{
.appVersion = "1075";
copyright = "Digitized data copyright (C) 2010-2011, Google Corporation.";
customParameters = (
{
name = vendorID;
value = "1ASC";
},
{
name = panose;
value = (
2,
11,
6,
6,
3,
5,
4,
2,
2,
4
);
},
{
name = unicodeRanges;
value = (
0,
1,
2,
3,
5,
6,
7,
9,
11,
29,
30,
31,
32,
33,
35,
36,
38,
45,
62,
67,
69
);
},
{
name = codePageRanges;
value = (
1252,
1250,
1251,
1253,
1254,
1255,
1257,
1258
);
}
);
date = "2017-11-07 16:51:35 +0000";
designerURL = "http://www.ascendercorp.com/typedesigners.html";
disablesNiceNames = 1;
familyName = "Open Sans";
featurePrefixes = (
{
automatic = 1;
code = "languagesystem DFLT dflt;\012languagesystem latn dflt;\012languagesystem hebr dflt;\012languagesystem latn MOL;\012languagesystem latn ROM;\012";
name = Languagesystems;
}
);
features = (
{
code = "script latn;\012sub f f l by ffl;\012sub f f i by ffi;\012sub f f by ff;\012sub f l by fl;\012sub f i by fi;\012language MOL ;\012sub f f l by ffl;\012sub f f i by ffi;\012sub f f by ff;\012sub f l by fl;\012sub f i by fi;\012language ROM ;\012sub f f l by ffl;\012sub f f i by ffi;\012sub f f by ff;\012sub f l by fl;\012sub f i by fi;\012";
name = liga;
},
{
code = "script latn;\012sub g899 by zero;\012sub g900 by g898;\012sub g901 by two;\012sub g902 by three;\012sub g903 by four;\012sub g904 by five;\012sub g905 by six;\012sub g906 by seven;\012sub g907 by eight;\012sub g908 by nine;\012language MOL ;\012sub g899 by zero;\012sub g900 by g898;\012sub g901 by two;\012sub g902 by three;\012sub g903 by four;\012sub g904 by five;\012sub g905 by six;\012sub g906 by seven;\012sub g907 by eight;\012sub g908 by nine;\012language ROM ;\012sub g899 by zero;\012sub g900 by g898;\012sub g901 by two;\012sub g902 by three;\012sub g903 by four;\012sub g904 by five;\012sub g905 by six;\012sub g906 by seven;\012sub g907 by eight;\012sub g908 by nine;\012";
name = lnum;
},
{

glyphs = (
{
glyphname = A;
lastChange = "2017-12-07 15:40:37 +0000";
layers = (
{
layerId = "2BF40018-41B3-4590-AC2B-A33F7CBCBD7D";
paths = (
{
closed = 1;
nodes = (
"172 0 LINE",
"352 465 LINE",
"938 465 LINE",
"1120 0 LINE",
"1296 0 LINE",
"721 1468 LINE",
"578 1468 LINE",
"0 0 LINE"
);
},
{
closed = 1;
nodes = (
"584 1071 LINE SMOOTH",
"611 1148 OFFCURVE",
"632 1218 OFFCURVE",
"647 1282 CURVE",
"670 1199 OFFCURVE",
"693 1128 OFFCURVE",
"715 1071 CURVE SMOOTH",
"885 618 LINE",
"412 618 LINE"
);
}
);
width = 1296;
},
{
anchors = (
{
name = bottom;
position = "{707, 0}";
},
{
name = ogonek;
position = "{1272, 10}";
},
{
name = top;
position = "{707, 1462}";
}
);
layerId = "BF02A00B-9E13-4540-898E-0A41FC656544";
paths = (
{
closed = 1;
nodes = (
"334 0 LINE",
"440 348 LINE",
"973 348 LINE",
"1079 0 LINE",
"1413 0 LINE",
"895 1468 LINE",
"516 1468 LINE",
"0 0 LINE"
);
},
{
closed = 1;
nodes = (
"622 945 OFFCURVE",
"685 1156 OFFCURVE",
"707 1241 CURVE",
"712 1217 OFFCURVE",
"721 1184 OFFCURVE",
"734 1143 CURVE SMOOTH",
"746 1102 OFFCURVE",
"801 923 OFFCURVE",
"899 608 CURVE",
"518 608 LINE"
);
}
);
width = 1413;
},
{
anchors = (
{
name = bottom;
position = "{615, 0}";
},
{
name = ogonek;
position = "{1106, 10}";
},
{
name = top;
position = "{615, 1462}";
}
);
layerId = "E5E970AF-9D0D-497A-BF30-FBE5F35FA9E4";
paths = (
{
closed = 1;
nodes = (
"1229 0 LINE",
"653 1468 LINE",
"588 1468 LINE",
"0 0 LINE",
"113 0 LINE",
"317 516 LINE",
"911 516 LINE",
"1114 0 LINE"
);
},
{
closed = 1;
nodes = (
"580 1185 OFFCURVE",
"600 1243 OFFCURVE",
"618 1307 CURVE",
"641 1234 OFFCURVE",
"661 1176 OFFCURVE",
"678 1135 CURVE SMOOTH",
"877 608 LINE",
"354 608 LINE",
"559 1133 LINE SMOOTH"
);
}
);
width = 1229;
},
{
layerId = "BD2371FC-E5C9-4A02-81E0-967D9F93D406";
paths = (
{
closed = 1;
nodes = (
"1004 1468 LINE",
"477 1468 LINE",
"0 0 LINE",
"434 0 LINE",
"508 274 LINE",
"983 274 LINE",
"1055 0 LINE",
"1487 0 LINE"
);
},
{
closed = 1;
nodes = (
"651 827 OFFCURVE",
"690 981 OFFCURVE",
"708 1059 CURVE SMOOTH",
"725 1137 OFFCURVE",
"737 1193 OFFCURVE",
"743 1227 CURVE",
"756 1154 OFFCURVE",
"809 945 OFFCURVE",
"838 838 CURVE SMOOTH",
"901 598 LINE",
"590 598 LINE"
);
}
);
width = 1487;
},
{
layerId = "57AE6E33-18DE-4F33-B821-7CA4FEF45BB8";
paths = (
{
closed = 1;
nodes = (
"807 1468 LINE",
"547 1468 LINE",
"0 0 LINE",
"252 0 LINE",
"395 406 LINE",
"954 406 LINE",
"1100 0 LINE",
"1354 0 LINE"
);
},
{
closed = 1;
nodes = (
"597 993 LINE SMOOTH",
"632 1090 OFFCURVE",
"658 1180 OFFCURVE",
"676 1262 CURVE",
"689 1209 OFFCURVE",
"734 1063 OFFCURVE",
"754 1010 CURVE SMOOTH",
"891 612 LINE",
"465 612 LINE"
);
}
);
width = 1354;
}
);
note = A;
unicode = 0041;
},
{
glyphname = Aacute;
lastChange = "2017-12-01 17:48:57 +0000";
layers = (
{
layerId = "2BF40018-41B3-4590-AC2B-A33F7CBCBD7D";
paths = (
{
closed = 1;
nodes = (
"172 0 LINE",
"352 465 LINE",
"938 465 LINE",
"1120 0 LINE",
"1296 0 LINE",
"721 1468 LINE",
"578 1468 LINE",
"0 0 LINE"
);
},
{
closed = 1;
nodes = (
"584 1071 LINE SMOOTH",
"611 1148 OFFCURVE",
"632 1218 OFFCURVE",
"647 1282 CURVE",
"670 1199 OFFCURVE",
"693 1128 OFFCURVE",
"715 1071 CURVE SMOOTH",
"885 618 LINE",
"412 618 LINE"
);
},
{
closed = 1;
nodes = (
"637 1579 LINE",
"722 1648 OFFCURVE",
"860 1799 OFFCURVE",
"919 1886 CURVE",
"919 1907 LINE",
"717 1907 LINE",
"674 1820 OFFCURVE",
"590 1687 OFFCURVE",
"526 1604 CURVE",
"526 1579 LINE"
);
}
);
width = 1296;
},
{
layerId = "BF02A00B-9E13-4540-898E-0A41FC656544";
paths = (
{
closed = 1;
nodes = (
"334 0 LINE",
"440 348 LINE",
"973 348 LINE",
"1079 0 LINE",
"1413 0 LINE",
"895 1468 LINE",
"516 1468 LINE",
"0 0 LINE"
);
},
{
closed = 1;
nodes = (
"622 945 OFFCURVE",
"685 1156 OFFCURVE",
"707 1241 CURVE",
"712 1217 OFFCURVE",
"721 1184 OFFCURVE",
"734 1143 CURVE SMOOTH",
"746 1102 OFFCURVE",
"801 923 OFFCURVE",
"899 608 CURVE",
"518 608 LINE"
);
},
{
closed = 1;
nodes = (
"744 1579 LINE",
"839 1646 OFFCURVE",
"1049 1817 OFFCURVE",
"1118 1886 CURVE",
"1118 1907 LINE",
"776 1907 LINE",
"734 1840 OFFCURVE",
"656 1739 OFFCURVE",
"541 1606 CURVE",
"541 1579 LINE"
);
}
);
width = 1413;
},
{
layerId = "E5E970AF-9D0D-497A-BF30-FBE5F35FA9E4";
paths = (
{
closed = 1;
nodes = (
"1229 0 LINE",
"653 1468 LINE",
"588 1468 LINE",
"0 0 LINE",
"113 0 LINE",
"317 516 LINE",
"911 516 LINE",
"1114 0 LINE"
);
},
{
closed = 1;
nodes = (
"580 1185 OFFCURVE",
"600 1243 OFFCURVE",
"618 1307 CURVE",
"641 1234 OFFCURVE",
"661 1176 OFFCURVE",
"678 1135 CURVE SMOOTH",
"877 608 LINE",
"354 608 LINE",
"559 1133 LINE SMOOTH"
);
},
{
closed = 1;
nodes = (
"574 1579 LINE",
"713 1695 OFFCURVE",
"839 1821 OFFCURVE",
"887 1890 CURVE",
"887 1907 LINE",
"746 1907 LINE",
"711 1843 OFFCURVE",
"601 1700 OFFCURVE",
"504 1595 CURVE",
"504 1579 LINE"
);
}
);
width = 1229;
},
{
layerId = "BD2371FC-E5C9-4A02-81E0-967D9F93D406";
paths = (
{
closed = 1;
nodes = (
"1004 1468 LINE",
"477 1468 LINE",
"0 0 LINE",
"434 0 LINE",
"508 274 LINE",
"983 274 LINE",
"1055 0 LINE",
"1487 0 LINE"
);
},
{
closed = 1;
nodes = (
"651 827 OFFCURVE",
"690 981 OFFCURVE",
"708 1059 CURVE SMOOTH",
"725 1137 OFFCURVE",
"737 1193 OFFCURVE",
"743 1227 CURVE",
"756 1154 OFFCURVE",
"809 945 OFFCURVE",
"838 838 CURVE SMOOTH",
"901 598 LINE",
"590 598 LINE"
);
},
{
closed = 1;
nodes = (
"888 1639 OFFCURVE",
"1117 1801 OFFCURVE",
"1224 1886 CURVE",
"1224 1907 LINE",
"796 1907 LINE",
"778 1882 OFFCURVE",
"755 1853 OFFCURVE",
"728 1821 CURVE SMOOTH",
"700 1789 OFFCURVE",
"635 1718 OFFCURVE",
"532 1608 CURVE",
"532 1579 LINE",
"792 1579 LINE"
);
}
);
width = 1487;
},
{
components = (
{
name = A;
},
{
name = acute;
transform = "{1, 0, 0, 1, 170, 338}";
}
);
layerId = "57AE6E33-18DE-4F33-B821-7CA4FEF45BB8";
width = 1354;
}
);
note = Aacute;
unicode = 00C1;
},
{
glyphname = Abreve;
lastChange = "2017-12-01 17:48:57 +0000";
layers = (
{
layerId = "2BF40018-41B3-4590-AC2B-A33F7CBCBD7D";
paths = (
{
closed = 1;
nodes = (
"172 0 LINE",
"352 465 LINE",
"938 465 LINE",
"1120 0 LINE",
"1296 0 LINE",
"721 1468 LINE",
"578 1468 LINE",
"0 0 LINE"
);
},
{
closed = 1;
nodes = (
"584 1071 LINE SMOOTH",
"611 1148 OFFCURVE",
"632 1218 OFFCURVE",
"647 1282 CURVE",
"670 1199 OFFCURVE",
"693 1128 OFFCURVE",
"715 1071 CURVE SMOOTH",
"885 618 LINE",
"412 618 LINE"
);
},
{
closed = 1;
nodes = (
"825 1579 OFFCURVE",
"943 1679 OFFCURVE",
"956 1847 CURVE",
"852 1847 LINE",
"839 1758 OFFCURVE",
"780 1716 OFFCURVE",
"645 1716 CURVE SMOOTH",
"588 1716 OFFCURVE",
"548 1720 OFFCURVE",
"524 1729 CURVE SMOOTH",
"475 1746 OFFCURVE",
"448 1782 OFFCURVE",
"440 1847 CURVE",
"336 1847 LINE",
"348 1672 OFFCURVE",
"454 1579 OFFCURVE",
"641 1579 CURVE SMOOTH"
);
}
);
width = 1296;
},
{
layerId = "BF02A00B-9E13-4540-898E-0A41FC656544";
paths = (
{
closed = 1;
nodes = (
"334 0 LINE",
"440 348 LINE",
"973 348 LINE",
"1079 0 LINE",
"1413 0 LINE",
"895 1468 LINE",
"516 1468 LINE",
"0 0 LINE"
);
},
{
closed = 1;
nodes = (
"622 945 OFFCURVE",
"685 1156 OFFCURVE",
"707 1241 CURVE",
"712 1217 OFFCURVE",
"721 1184 OFFCURVE",
"734 1143 CURVE SMOOTH",
"746 1102 OFFCURVE",
"801 923 OFFCURVE",
"899 608 CURVE",
"518 608 LINE"
);
},
{
closed = 1;
nodes = (
"923 1579 OFFCURVE",
"1084 1712 OFFCURVE",
"1100 1917 CURVE",
"926 1917 LINE",
"915 1834 OFFCURVE",
"841 1792 OFFCURVE",
"704 1792 CURVE SMOOTH",
"647 1792 OFFCURVE",
"605 1796 OFFCURVE",
"577 1804 CURVE SMOOTH",
"520 1820 OFFCURVE",
"488 1854 OFFCURVE",
"483 1917 CURVE",
"313 1917 LINE",
"324 1709 OFFCURVE",
"470 1579 OFFCURVE",
"702 1579 CURVE SMOOTH"
);
}
);
width = 1413;
},
{
layerId = "E5E970AF-9D0D-497A-BF30-FBE5F35FA9E4";
paths = (
{
closed = 1;
nodes = (
"1229 0 LINE",
"653 1468 LINE",
"588 1468 LINE",
"0 0 LINE",
"113 0 LINE",
"317 516 LINE",
"911 516 LINE",
"1114 0 LINE"
);
},
{
closed = 1;
nodes = (
"580 1185 OFFCURVE",
"600 1243 OFFCURVE",
"618 1307 CURVE",
"641 1234 OFFCURVE",
"661 1176 OFFCURVE",
"678 1135 CURVE SMOOTH",
"877 608 LINE",
"354 608 LINE",
"559 1133 LINE SMOOTH"
);
},
{
closed = 1;
nodes = (
"782 1579 OFFCURVE",
"875 1661 OFFCURVE",
"895 1825 CURVE",
"815 1825 LINE",
"795 1709 OFFCURVE",
"736 1663 OFFCURVE",
"619 1663 CURVE SMOOTH",
"502 1663 OFFCURVE",
"443 1709 OFFCURVE",
"424 1825 CURVE",
"342 1825 LINE",
"357 1661 OFFCURVE",
"448 1579 OFFCURVE",
"617 1579 CURVE SMOOTH"
);
}
);
width = 1229;
},
{
layerId = "BD2371FC-E5C9-4A02-81E0-967D9F93D406";
paths = (
{
closed = 1;
nodes = (
"1004 1468 LINE",
"477 1468 LINE",
"0 0 LINE",
"434 0 LINE",
"508 274 LINE",
"983 274 LINE",
"1055 0 LINE",
"1487 0 LINE"
);
},
{
closed = 1;
nodes = (
"651 827 OFFCURVE",
"690 981 OFFCURVE",
"708 1059 CURVE SMOOTH",
"725 1137 OFFCURVE",
"737 1193 OFFCURVE",
"743 1227 CURVE",
"756 1154 OFFCURVE",
"809 945 OFFCURVE",
"838 838 CURVE SMOOTH",
"901 598 LINE",
"590 598 LINE"
);
},
{
closed = 1;
nodes = (
"905 1859 OFFCURVE",
"849 1819 OFFCURVE",
"741 1819 CURVE SMOOTH",
"614 1819 OFFCURVE",
"578 1846 OFFCURVE",
"551 1950 CURVE",
"340 1950 LINE",
"352 1709 OFFCURVE",
"492 1579 OFFCURVE",
"741 1579 CURVE SMOOTH",
"984 1579 OFFCURVE",
"1136 1722 OFFCURVE",
"1149 1950 CURVE",
"930 1950 LINE"
);
}
);
width = 1487;
},
{
components = (
{
name = A;
},
{
name = breve;
transform = "{1, 0, 0, 1, 63, 338}";
}
);
layerId = "57AE6E33-18DE-4F33-B821-7CA4FEF45BB8";
width = 1354;
}
);
note = Abreve;
unicode = 0102;
},
{
glyphname = Acircumflex;
lastChange = "2017-12-01 17:48:57 +0000";
layers = (
{
layerId = "2BF40018-41B3-4590-AC2B-A33F7CBCBD7D";
paths = (
{
closed = 1;
nodes = (
"172 0 LINE",
"352 465 LINE",
"938 465 LINE",
"1120 0 LINE",
"1296 0 LINE",
"721 1468 LINE",
"578 1468 LINE",
"0 0 LINE"
);
},
{
closed = 1;
nodes = (
"584 1071 LINE SMOOTH",
"611 1148 OFFCURVE",
"632 1218 OFFCURVE",
"647 1282 CURVE",
"670 1199 OFFCURVE",
"693 1128 OFFCURVE",
"715 1071 CURVE SMOOTH",
"885 618 LINE",
"412 618 LINE"
);
},
{
closed = 1;
nodes = (
"418 1579 LINE",
"473 1614 OFFCURVE",
"546 1676 OFFCURVE",
"637 1765 CURVE",
"726 1678 OFFCURVE",
"799 1616 OFFCURVE",
"858 1579 CURVE",
"977 1579 LINE",
"977 1602 LINE",
"894 1689 OFFCURVE",
"834 1754 OFFCURVE",
"798 1799 CURVE SMOOTH",
"761 1843 OFFCURVE",
"736 1879 OFFCURVE",
"721 1907 CURVE",
"555 1907 LINE",
"540 1880 OFFCURVE",
"515 1845 OFFCURVE",
"481 1802 CURVE SMOOTH",
"447 1759 OFFCURVE",
"388 1693 OFFCURVE",
"303 1602 CURVE",
"303 1579 LINE"
);
}
);
width = 1296;
},
{
layerId = "BF02A00B-9E13-4540-898E-0A41FC656544";
paths = (
{
closed = 1;
nodes = (
"334 0 LINE",
"440 348 LINE",
"973 348 LINE",
"1079 0 LINE",
"1413 0 LINE",
"895 1468 LINE",
"516 1468 LINE",
"0 0 LINE"
);
},
{
closed = 1;
nodes = (
"622 945 OFFCURVE",
"685 1156 OFFCURVE",
"707 1241 CURVE",
"712 1217 OFFCURVE",
"721 1184 OFFCURVE",
"734 1143 CURVE SMOOTH",
"746 1102 OFFCURVE",
"801 923 OFFCURVE",
"899 608 CURVE",
"518 608 LINE"
);
},
{
closed = 1;
nodes = (
"475 1579 LINE",
"576 1642 OFFCURVE",
"652 1701 OFFCURVE",
"704 1755 CURVE",
"755 1700 OFFCURVE",
"833 1641 OFFCURVE",
"938 1579 CURVE",
"1141 1579 LINE",
"1141 1606 LINE",
"1045 1699 OFFCURVE",
"926 1838 OFFCURVE",
"885 1907 CURVE",
"528 1907 LINE",
"483 1832 OFFCURVE",
"398 1732 OFFCURVE",
"272 1606 CURVE",
"272 1579 LINE"
);
}
);
width = 1413;
},
{
layerId = "E5E970AF-9D0D-497A-BF30-FBE5F35FA9E4";
paths = (
{
closed = 1;
nodes = (
"1229 0 LINE",
"653 1468 LINE",
"588 1468 LINE",
"0 0 LINE",
"113 0 LINE",
"317 516 LINE",
"911 516 LINE",
"1114 0 LINE"
);
},
{
closed = 1;
nodes = (
"580 1185 OFFCURVE",
"600 1243 OFFCURVE",
"618 1307 CURVE",
"641 1234 OFFCURVE",
"661 1176 OFFCURVE",
"678 1135 CURVE SMOOTH",
"877 608 LINE",
"354 608 LINE",
"559 1133 LINE SMOOTH"
);
},
{
closed = 1;
nodes = (
"398 1579 LINE",
"473 1641 OFFCURVE",
"547 1710 OFFCURVE",
"619 1786 CURVE",
"685 1715 OFFCURVE",
"759 1646 OFFCURVE",
"840 1579 CURVE",
"910 1579 LINE",
"910 1595 LINE",
"794 1723 OFFCURVE",
"713 1827 OFFCURVE",
"668 1907 CURVE",
"570 1907 LINE",
"515 1818 OFFCURVE",
"411 1684 OFFCURVE",
"328 1595 CURVE",
"328 1579 LINE"
);
}
);
width = 1229;
},
{
layerId = "BD2371FC-E5C9-4A02-81E0-967D9F93D406";
paths = (
{
closed = 1;
nodes = (
"1004 1468 LINE",
"477 1468 LINE",
"0 0 LINE",
"434 0 LINE",
"508 274 LINE",
"983 274 LINE",
"1055 0 LINE",
"1487 0 LINE"
);
},
{
closed = 1;
nodes = (
"651 827 OFFCURVE",
"690 981 OFFCURVE",
"708 1059 CURVE SMOOTH",
"725 1137 OFFCURVE",
"737 1193 OFFCURVE",
"743 1227 CURVE",
"756 1154 OFFCURVE",
"809 945 OFFCURVE",
"838 838 CURVE SMOOTH",
"901 598 LINE",
"590 598 LINE"
);
},
{
closed = 1;
nodes = (
"1202 1608 LINE",
"1094 1716 OFFCURVE",
"1009 1816 OFFCURVE",
"946 1907 CURVE",
"553 1907 LINE",
"502 1830 OFFCURVE",
"387 1695 OFFCURVE",
"295 1608 CURVE",
"295 1579 LINE",
"553 1579 LINE",
"599 1608 OFFCURVE",
"664 1658 OFFCURVE",
"747 1729 CURVE",
"825 1661 OFFCURVE",
"892 1611 OFFCURVE",
"948 1579 CURVE",
"1202 1579 LINE"
);
}
);
width = 1487;
},
{
components = (
{
name = A;
},
{
name = circumflex;
transform = "{1, 0, 0, 1, 59, 338}";
}
);
layerId = "57AE6E33-18DE-4F33-B821-7CA4FEF45BB8";
width = 1354;
}
);
note = Acircumflex;
unicode = 00C2;
},
{
glyphname = Adieresis;
lastChange = "2017-12-01 17:48:57 +0000";
layers = (
{
layerId = "2BF40018-41B3-4590-AC2B-A33F7CBCBD7D";
paths = (
{
closed = 1;
nodes = (
"172 0 LINE",
"352 465 LINE",
"938 465 LINE",
"1120 0 LINE",
"1296 0 LINE",
"721 1468 LINE",
"578 1468 LINE",
"0 0 LINE"
);
},
{
closed = 1;
nodes = (
"584 1071 LINE SMOOTH",
"611 1148 OFFCURVE",
"632 1218 OFFCURVE",
"647 1282 CURVE",
"670 1199 OFFCURVE",
"693 1128 OFFCURVE",
"715 1071 CURVE SMOOTH",
"885 618 LINE",
"412 618 LINE"
);
},
{
closed = 1;
nodes = (
"505 1632 OFFCURVE",
"547 1664 OFFCURVE",
"547 1731 CURVE SMOOTH",
"547 1800 OFFCURVE",
"505 1829 OFFCURVE",
"454 1829 CURVE SMOOTH",
"405 1829 OFFCURVE",
"364 1800 OFFCURVE",
"364 1731 CURVE SMOOTH",
"364 1664 OFFCURVE",
"405 1632 OFFCURVE",
"454 1632 CURVE SMOOTH"
);
},
{
closed = 1;
nodes = (
"884 1632 OFFCURVE",
"927 1664 OFFCURVE",
"927 1731 CURVE SMOOTH",
"927 1800 OFFCURVE",
"884 1829 OFFCURVE",
"835 1829 CURVE SMOOTH",
"786 1829 OFFCURVE",
"745 1800 OFFCURVE",
"745 1731 CURVE SMOOTH",
"745 1664 OFFCURVE",
"786 1632 OFFCURVE",
"835 1632 CURVE SMOOTH"
);
}
);
width = 1296;
},
{
layerId = "BF02A00B-9E13-4540-898E-0A41FC656544";
paths = (
{
closed = 1;
nodes = (
"334 0 LINE",
"440 348 LINE",
"973 348 LINE",
"1079 0 LINE",
"1413 0 LINE",
"895 1468 LINE",
"516 1468 LINE",
"0 0 LINE"
);
},
{
closed = 1;
nodes = (
"622 945 OFFCURVE",
"685 1156 OFFCURVE",
"707 1241 CURVE",
"712 1217 OFFCURVE",
"721 1184 OFFCURVE",
"734 1143 CURVE SMOOTH",
"746 1102 OFFCURVE",
"801 923 OFFCURVE",
"899 608 CURVE",
"518 608 LINE"
);
},
{
closed = 1;
nodes = (
"591 1610 OFFCURVE",
"645 1663 OFFCURVE",
"645 1743 CURVE SMOOTH",
"645 1824 OFFCURVE",
"592 1878 OFFCURVE",
"504 1878 CURVE SMOOTH",
"419 1878 OFFCURVE",
"365 1830 OFFCURVE",
"365 1743 CURVE SMOOTH",
"365 1659 OFFCURVE",
"419 1610 OFFCURVE",
"504 1610 CURVE SMOOTH"
);
},
{
closed = 1;
nodes = (
"994 1610 OFFCURVE",
"1051 1662 OFFCURVE",
"1051 1743 CURVE SMOOTH",
"1051 1827 OFFCURVE",
"996 1878 OFFCURVE",
"909 1878 CURVE SMOOTH",
"829 1878 OFFCURVE",
"768 1836 OFFCURVE",
"768 1743 CURVE SMOOTH",
"768 1652 OFFCURVE",
"829 1610 OFFCURVE",
"909 1610 CURVE SMOOTH"
);
}
);
width = 1413;
},
{
layerId = "E5E970AF-9D0D-497A-BF30-FBE5F35FA9E4";
paths = (
{
closed = 1;
nodes = (
"1229 0 LINE",
"653 1468 LINE",
"588 1468 LINE",
"0 0 LINE",
"113 0 LINE",
"317 516 LINE",
"911 516 LINE",
"1114 0 LINE"
);
},
{
closed = 1;
nodes = (
"580 1185 OFFCURVE",
"600 1243 OFFCURVE",
"618 1307 CURVE",
"641 1234 OFFCURVE",
"661 1176 OFFCURVE",
"678 1135 CURVE SMOOTH",
"877 608 LINE",
"354 608 LINE",
"559 1133 LINE SMOOTH"
);
},
{
closed = 1;
nodes = (
"367 1670 OFFCURVE",
"388 1641 OFFCURVE",
"430 1641 CURVE SMOOTH",
"473 1641 OFFCURVE",
"494 1670 OFFCURVE",
"494 1727 CURVE SMOOTH",
"494 1784 OFFCURVE",
"473 1813 OFFCURVE",
"430 1813 CURVE SMOOTH",
"387 1813 OFFCURVE",
"367 1788 OFFCURVE",
"367 1727 CURVE SMOOTH"
);
},
{
closed = 1;
nodes = (
"748 1670 OFFCURVE",
"769 1641 OFFCURVE",
"811 1641 CURVE SMOOTH",
"854 1641 OFFCURVE",
"875 1670 OFFCURVE",
"875 1727 CURVE SMOOTH",
"875 1784 OFFCURVE",
"854 1813 OFFCURVE",
"811 1813 CURVE SMOOTH",
"768 1813 OFFCURVE",
"748 1788 OFFCURVE",
"748 1727 CURVE SMOOTH"
);
}
);
width = 1229;
},
{
layerId = "BD2371FC-E5C9-4A02-81E0-967D9F93D406";
paths = (
{
closed = 1;
nodes = (
"1004 1468 LINE",
"477 1468 LINE",
"0 0 LINE",
"434 0 LINE",
"508 274 LINE",
"983 274 LINE",
"1055 0 LINE",
"1487 0 LINE"
);
},
{
closed = 1;
nodes = (
"651 827 OFFCURVE",
"690 981 OFFCURVE",
"708 1059 CURVE SMOOTH",
"725 1137 OFFCURVE",
"737 1193 OFFCURVE",
"743 1227 CURVE",
"756 1154 OFFCURVE",
"809 945 OFFCURVE",
"838 838 CURVE SMOOTH",
"901 598 LINE",
"590 598 LINE"
);
},
{
closed = 1;
nodes = (
"352 1652 OFFCURVE",
"418 1595 OFFCURVE",
"522 1595 CURVE SMOOTH",
"627 1595 OFFCURVE",
"694 1656 OFFCURVE",
"694 1751 CURVE SMOOTH",
"694 1848 OFFCURVE",
"627 1909 OFFCURVE",
"522 1909 CURVE SMOOTH",
"418 1909 OFFCURVE",
"352 1851 OFFCURVE",
"352 1751 CURVE SMOOTH"
);
},
{
closed = 1;
nodes = (
"831 1654 OFFCURVE",
"895 1595 OFFCURVE",
"1003 1595 CURVE SMOOTH",
"1110 1595 OFFCURVE",
"1176 1656 OFFCURVE",
"1176 1751 CURVE SMOOTH",
"1176 1847 OFFCURVE",
"1110 1909 OFFCURVE",
"1003 1909 CURVE SMOOTH",
"896 1909 OFFCURVE",
"831 1851 OFFCURVE",
"831 1751 CURVE SMOOTH"
);
}
);
width = 1487;
},
{
components = (
{
name = A;
},
{
name = dieresis;
transform = "{1, 0, 0, 1, 70, 338}";
}
);
layerId = "57AE6E33-18DE-4F33-B821-7CA4FEF45BB8";
width = 1354;
}
);
note = Adieresis;
unicode = 00C4;
},
{
glyphname = Agrave;
lastChange = "2017-12-01 17:48:57 +0000";
layers = (
{
layerId = "2BF40018-41B3-4590-AC2B-A33F7CBCBD7D";
paths = (
{
closed = 1;
nodes = (
"172 0 LINE",
"352 465 LINE",
"938 465 LINE",
"1120 0 LINE",
"1296 0 LINE",
"721 1468 LINE",
"578 1468 LINE",
"0 0 LINE"
);
},
{
closed = 1;
nodes = (
"584 1071 LINE SMOOTH",
"611 1148 OFFCURVE",
"632 1218 OFFCURVE",
"647 1282 CURVE",
"670 1199 OFFCURVE",
"693 1128 OFFCURVE",
"715 1071 CURVE SMOOTH",
"885 618 LINE",
"412 618 LINE"
);
},
{
closed = 1;
nodes = (
"724 1579 LINE",
"724 1604 LINE",
"665 1675 OFFCURVE",
"577 1815 OFFCURVE",
"534 1907 CURVE",
"331 1907 LINE",
"331 1886 LINE",
"384 1802 OFFCURVE",
"527 1648 OFFCURVE",
"614 1579 CURVE"
);
}
);
width = 1296;
},
{
layerId = "BF02A00B-9E13-4540-898E-0A41FC656544";
paths = (
{
closed = 1;
nodes = (
"334 0 LINE",
"440 348 LINE",
"973 348 LINE",
"1079 0 LINE",
"1413 0 LINE",
"895 1468 LINE",
"516 1468 LINE",
"0 0 LINE"
);
},
{
closed = 1;
nodes = (
"622 945 OFFCURVE",
"685 1156 OFFCURVE",
"707 1241 CURVE",
"712 1217 OFFCURVE",
"721 1184 OFFCURVE",
"734 1143 CURVE SMOOTH",
"746 1102 OFFCURVE",
"801 923 OFFCURVE",
"899 608 CURVE",
"518 608 LINE"
);
},
{
closed = 1;
nodes = (
"915 1579 LINE",
"915 1606 LINE",
"800 1739 OFFCURVE",
"722 1840 OFFCURVE",
"680 1907 CURVE",
"338 1907 LINE",
"338 1886 LINE",
"429 1798 OFFCURVE",
"629 1638 OFFCURVE",
"713 1579 CURVE"
);
}
);
width = 1413;
},
{
layerId = "E5E970AF-9D0D-497A-BF30-FBE5F35FA9E4";
paths = (
{
closed = 1;
nodes = (
"1229 0 LINE",
"653 1468 LINE",
"588 1468 LINE",
"0 0 LINE",
"113 0 LINE",
"317 516 LINE",
"911 516 LINE",
"1114 0 LINE"
);
},
{
closed = 1;
nodes = (
"580 1185 OFFCURVE",
"600 1243 OFFCURVE",
"618 1307 CURVE",
"641 1234 OFFCURVE",
"661 1176 OFFCURVE",
"678 1135 CURVE SMOOTH",
"877 608 LINE",
"354 608 LINE",
"559 1133 LINE SMOOTH"
);
},
{
closed = 1;
nodes = (
"627 1696 OFFCURVE",
"514 1843 OFFCURVE",
"479 1907 CURVE",
"337 1907 LINE",
"337 1890 LINE",
"381 1827 OFFCURVE",
"523 1684 OFFCURVE",
"651 1579 CURVE",
"720 1579 LINE",
"720 1595 LINE"
);
}
);
width = 1229;
},
{
layerId = "BD2371FC-E5C9-4A02-81E0-967D9F93D406";
paths = (
{
closed = 1;
nodes = (
"1004 1468 LINE",
"477 1468 LINE",
"0 0 LINE",
"434 0 LINE",
"508 274 LINE",
"983 274 LINE",
"1055 0 LINE",
"1487 0 LINE"
);
},
{
closed = 1;
nodes = (
"651 827 OFFCURVE",
"690 981 OFFCURVE",
"708 1059 CURVE SMOOTH",
"725 1137 OFFCURVE",
"737 1193 OFFCURVE",
"743 1227 CURVE",
"756 1154 OFFCURVE",
"809 945 OFFCURVE",
"838 838 CURVE SMOOTH",
"901 598 LINE",
"590 598 LINE"
);
},
{
closed = 1;
nodes = (
"964 1608 LINE",
"905 1674 LINE SMOOTH",
"804 1783 OFFCURVE",
"737 1860 OFFCURVE",
"702 1907 CURVE",
"272 1907 LINE",
"272 1886 LINE",
"397 1787 OFFCURVE",
"612 1638 OFFCURVE",
"704 1579 CURVE",
"964 1579 LINE"
);
}
);
width = 1487;
},
{
components = (
{
name = A;
},
{
name = grave;
transform = "{1, 0, 0, 1, -28, 338}";
}
);
layerId = "57AE6E33-18DE-4F33-B821-7CA4FEF45BB8";
width = 1354;
}
);
note = Agrave;
unicode = 00C0;
},
{
glyphname = Amacron;
lastChange = "2017-12-01 17:48:57 +0000";
layers = (
{
layerId = "2BF40018-41B3-4590-AC2B-A33F7CBCBD7D";
paths = (
{
closed = 1;
nodes = (
"172 0 LINE",
"352 465 LINE",
"938 465 LINE",
"1120 0 LINE",
"1296 0 LINE",
"721 1468 LINE",
"578 1468 LINE",
"0 0 LINE"
);
},
{
closed = 1;
nodes = (
"584 1071 LINE SMOOTH",
"611 1148 OFFCURVE",
"632 1218 OFFCURVE",
"647 1282 CURVE",
"670 1199 OFFCURVE",
"693 1128 OFFCURVE",
"715 1071 CURVE SMOOTH",
"885 618 LINE",
"412 618 LINE"
);
},
{
closed = 1;
nodes = (
"964 1579 LINE",
"964 1716 LINE",
"364 1716 LINE",
"364 1579 LINE"
);
}
);
width = 1296;
},
{
layerId = "BF02A00B-9E13-4540-898E-0A41FC656544";
paths = (
{
closed = 1;
nodes = (
"334 0 LINE",
"440 348 LINE",
"973 348 LINE",
"1079 0 LINE",
"1413 0 LINE",
"895 1468 LINE",
"516 1468 LINE",
"0 0 LINE"
);
},
{
closed = 1;
nodes = (
"622 945 OFFCURVE",
"685 1156 OFFCURVE",
"707 1241 CURVE",
"712 1217 OFFCURVE",
"721 1184 OFFCURVE",
"734 1143 CURVE SMOOTH",
"746 1102 OFFCURVE",
"801 923 OFFCURVE",
"899 608 CURVE",
"518 608 LINE"
);
},
{
closed = 1;
nodes = (
"1049 1579 LINE",
"1049 1790 LINE",
"371 1790 LINE",
"371 1579 LINE"
);
}
);
width = 1413;
},
{
layerId = "E5E970AF-9D0D-497A-BF30-FBE5F35FA9E4";
paths = (
{
closed = 1;
nodes = (
"1229 0 LINE",
"653 1468 LINE",
"588 1468 LINE",
"0 0 LINE",
"113 0 LINE",
"317 516 LINE",
"911 516 LINE",
"1114 0 LINE"
);
},
{
closed = 1;
nodes = (
"580 1185 OFFCURVE",
"600 1243 OFFCURVE",
"618 1307 CURVE",
"641 1234 OFFCURVE",
"661 1176 OFFCURVE",
"678 1135 CURVE SMOOTH",
"877 608 LINE",
"354 608 LINE",
"559 1133 LINE SMOOTH"
);
},
{
closed = 1;
nodes = (
"897 1589 LINE",
"897 1671 LINE",
"342 1671 LINE",
"342 1589 LINE"
);
}
);
width = 1229;
},
{
layerId = "BD2371FC-E5C9-4A02-81E0-967D9F93D406";
paths = (
{
closed = 1;
nodes = (
"1004 1468 LINE",
"477 1468 LINE",
"0 0 LINE",
"434 0 LINE",
"508 274 LINE",
"983 274 LINE",
"1055 0 LINE",
"1487 0 LINE"
);
},
{
closed = 1;
nodes = (
"651 827 OFFCURVE",
"690 981 OFFCURVE",
"708 1059 CURVE SMOOTH",
"725 1137 OFFCURVE",
"737 1193 OFFCURVE",
"743 1227 CURVE",
"756 1154 OFFCURVE",
"809 945 OFFCURVE",
"838 838 CURVE SMOOTH",
"901 598 LINE",
"590 598 LINE"
);
},
{
closed = 1;
nodes = (
"1100 1579 LINE",
"1100 1815 LINE",
"373 1815 LINE",
"373 1579 LINE"
);
}
);
width = 1487;
},
{
components = (
{
name = A;
},
{
name = macron;
transform = "{1, 0, 0, 1, 76, 338}";
}
);
layerId = "57AE6E33-18DE-4F33-B821-7CA4FEF45BB8";
width = 1354;
}
);
note = Amacron;
unicode = 0100;
},
{
glyphname = Aogonek;
lastChange = "2017-12-01 17:48:57 +0000";
layers = (
{
layerId = "2BF40018-41B3-4590-AC2B-A33F7CBCBD7D";
paths = (
{
closed = 1;
nodes = (
"172 0 LINE",
"352 465 LINE",
"938 465 LINE",
"1120 0 LINE",
"1296 0 LINE",
"721 1468 LINE",
"578 1468 LINE",
"0 0 LINE"
);
},
{
closed = 1;
nodes = (
"584 1071 LINE SMOOTH",
"611 1148 OFFCURVE",
"632 1218 OFFCURVE",
"647 1282 CURVE",
"670 1199 OFFCURVE",
"693 1128 OFFCURVE",
"715 1071 CURVE SMOOTH",
"885 618 LINE",
"412 618 LINE"
);
},
{
closed = 1;
nodes = (
"1212 -446 OFFCURVE",
"1254 -440 OFFCURVE",
"1297 -428 CURVE",
"1297 -319 LINE",
"1260 -328 OFFCURVE",
"1228 -332 OFFCURVE",
"1200 -332 CURVE SMOOTH",
"1137 -332 OFFCURVE",
"1106 -301 OFFCURVE",
"1106 -238 CURVE SMOOTH",
"1106 -154 OFFCURVE",
"1152 -88 OFFCURVE",
"1243 0 CURVE",
"1123 0 LINE",
"1027 -71 OFFCURVE",
"965 -165 OFFCURVE",
"965 -258 CURVE SMOOTH",
"965 -383 OFFCURVE",
"1034 -446 OFFCURVE",
"1172 -446 CURVE SMOOTH"
);
}
);
width = 1296;
},
{
color = 2;
layerId = "BF02A00B-9E13-4540-898E-0A41FC656544";
paths = (
{
closed = 1;
nodes = (
"334 0 LINE",
"440 348 LINE",
"973 348 LINE",
"1079 0 LINE",
"1413 0 LINE",
"895 1468 LINE",
"516 1468 LINE",
"0 0 LINE"
);
},
{
closed = 1;
nodes = (
"622 945 OFFCURVE",
"685 1156 OFFCURVE",
"707 1241 CURVE",
"712 1217 OFFCURVE",
"721 1184 OFFCURVE",
"734 1143 CURVE SMOOTH",
"746 1102 OFFCURVE",
"801 923 OFFCURVE",
"899 608 CURVE",
"518 608 LINE"
);
},
{
closed = 1;
nodes = (
"1200 -492 OFFCURVE",
"1252 -484 OFFCURVE",
"1307 -469 CURVE",
"1307 -291 LINE",
"1267 -303 OFFCURVE",
"1229 -309 OFFCURVE",
"1192 -309 CURVE SMOOTH",
"1145 -309 OFFCURVE",
"1112 -283 OFFCURVE",
"1112 -227 CURVE SMOOTH",
"1112 -158 OFFCURVE",
"1167 -88 OFFCURVE",
"1260 0 CURVE",
"1081 0 LINE",
"942 -103 OFFCURVE",
"901 -173 OFFCURVE",
"901 -262 CURVE SMOOTH",
"901 -399 OFFCURVE",
"1000 -492 OFFCURVE",
"1151 -492 CURVE SMOOTH"
);
}
);
width = 1413;
},
{
layerId = "E5E970AF-9D0D-497A-BF30-FBE5F35FA9E4";
paths = (
{
closed = 1;
nodes = (
"1229 0 LINE",
"653 1468 LINE",
"588 1468 LINE",
"0 0 LINE",
"113 0 LINE",
"317 516 LINE",
"911 516 LINE",
"1114 0 LINE"
);
},
{
closed = 1;
nodes = (
"580 1185 OFFCURVE",
"600 1243 OFFCURVE",
"618 1307 CURVE",
"641 1234 OFFCURVE",
"661 1176 OFFCURVE",
"678 1135 CURVE SMOOTH",
"877 608 LINE",
"354 608 LINE",
"559 1133 LINE SMOOTH"
);
},
{
closed = 1;
nodes = (
"1061 -152 OFFCURVE",
"1108 -84 OFFCURVE",
"1204 0 CURVE",
"1114 0 LINE",
"1018 -75 OFFCURVE",
"962 -171 OFFCURVE",
"962 -264 CURVE SMOOTH",
"962 -380 OFFCURVE",
"1033 -446 OFFCURVE",
"1145 -446 CURVE SMOOTH",
"1188 -446 OFFCURVE",
"1222 -441 OFFCURVE",
"1249 -430 CURVE",
"1249 -346 LINE",
"1227 -354 OFFCURVE",
"1200 -358 OFFCURVE",
"1167 -358 CURVE SMOOTH",
"1096 -358 OFFCURVE",
"1061 -321 OFFCURVE",
"1061 -248 CURVE SMOOTH"
);
}
);
width = 1229;
},
{
layerId = "BD2371FC-E5C9-4A02-81E0-967D9F93D406";
paths = (
{
closed = 1;
nodes = (
"1004 1468 LINE",
"477 1468 LINE",
"0 0 LINE",
"434 0 LINE",
"508 274 LINE",
"983 274 LINE",
"1055 0 LINE",
"1487 0 LINE"
);
},
{
closed = 1;
nodes = (
"651 827 OFFCURVE",
"690 981 OFFCURVE",
"708 1059 CURVE SMOOTH",
"725 1137 OFFCURVE",
"737 1193 OFFCURVE",
"743 1227 CURVE",
"756 1154 OFFCURVE",
"809 945 OFFCURVE",
"838 838 CURVE SMOOTH",
"901 598 LINE",
"590 598 LINE"
);
},
{
closed = 1;
nodes = (
"1137 -173 OFFCURVE",
"1146 -146 OFFCURVE",
"1164 -117 CURVE SMOOTH",
"1182 -88 OFFCURVE",
"1217 -49 OFFCURVE",
"1270 0 CURVE",
"1057 0 LINE",
"932 -88 OFFCURVE",
"883 -168 OFFCURVE",
"883 -260 CURVE SMOOTH",
"883 -397 OFFCURVE",
"996 -492 OFFCURVE",
"1159 -492 CURVE SMOOTH",
"1220 -492 OFFCURVE",
"1278 -483 OFFCURVE",
"1333 -465 CURVE",
"1333 -244 LINE",
"1301 -259 OFFCURVE",
"1262 -266 OFFCURVE",
"1215 -266 CURVE SMOOTH",
"1163 -266 OFFCURVE",
"1137 -244 OFFCURVE",
"1137 -199 CURVE SMOOTH"
);
}
);
width = 1487;
},
{
components = (
{
name = A;
},
{
name = ogonek;
transform = "{1, 0, 0, 1, 909, 0}";
}
);
layerId = "57AE6E33-18DE-4F33-B821-7CA4FEF45BB8";
width = 1354;
}
);
note = Aogonek;
unicode = 0104;
},
{
glyphname = Aring;
lastChange = "2017-12-01 17:48:57 +0000";
layers = (
{
layerId = "2BF40018-41B3-4590-AC2B-A33F7CBCBD7D";
paths = (
{
closed = 1;
nodes = (
"172 0 LINE",
"352 465 LINE",
"938 465 LINE",
"1120 0 LINE",
"1296 0 LINE",
"721 1468 LINE",
"578 1468 LINE",
"0 0 LINE"
);
},
{
closed = 1;
nodes = (
"584 1071 LINE SMOOTH",
"611 1148 OFFCURVE",
"632 1218 OFFCURVE",
"647 1282 CURVE",
"670 1199 OFFCURVE",
"693 1128 OFFCURVE",
"715 1071 CURVE SMOOTH",
"885 618 LINE",
"412 618 LINE"
);
},
{
closed = 1;
nodes = (
"781 1370 OFFCURVE",
"870 1456 OFFCURVE",
"870 1587 CURVE SMOOTH",
"870 1710 OFFCURVE",
"780 1798 OFFCURVE",
"645 1798 CURVE SMOOTH",
"512 1798 OFFCURVE",
"424 1716 OFFCURVE",
"424 1585 CURVE SMOOTH",
"424 1454 OFFCURVE",
"510 1370 OFFCURVE",
"645 1370 CURVE SMOOTH"
);
},
{
closed = 1;
nodes = (
"569 1468 OFFCURVE",
"528 1510 OFFCURVE",
"528 1585 CURVE SMOOTH",
"528 1660 OFFCURVE",
"577 1702 OFFCURVE",
"645 1702 CURVE SMOOTH",
"713 1702 OFFCURVE",
"762 1660 OFFCURVE",
"762 1585 CURVE SMOOTH",
"762 1510 OFFCURVE",
"714 1468 OFFCURVE",
"645 1468 CURVE SMOOTH"
);
}
);
width = 1296;
},
{
color = 2;
layerId = "BF02A00B-9E13-4540-898E-0A41FC656544";
paths = (
{
closed = 1;
nodes = (
"334 0 LINE",
"440 348 LINE",
"973 348 LINE",
"1079 0 LINE",
"1413 0 LINE",
"895 1468 LINE",
"516 1468 LINE",
"0 0 LINE"
);
},
{
closed = 1;
nodes = (
"622 945 OFFCURVE",
"685 1156 OFFCURVE",
"707 1241 CURVE",
"712 1217 OFFCURVE",
"721 1184 OFFCURVE",
"734 1143 CURVE SMOOTH",
"746 1102 OFFCURVE",
"801 923 OFFCURVE",
"899 608 CURVE",
"518 608 LINE"
);
},
{
closed = 1;
nodes = (
"854 1327 OFFCURVE",
"959 1423 OFFCURVE",
"959 1567 CURVE SMOOTH",
"959 1704 OFFCURVE",
"852 1802 OFFCURVE",
"705 1802 CURVE SMOOTH",
"554 1802 OFFCURVE",
"457 1709 OFFCURVE",
"457 1565 CURVE SMOOTH",
"457 1418 OFFCURVE",
"556 1327 OFFCURVE",
"705 1327 CURVE SMOOTH"
);
},
{
closed = 1;
nodes = (
"641 1468 OFFCURVE",
"609 1505 OFFCURVE",
"609 1565 CURVE SMOOTH",
"609 1625 OFFCURVE",
"649 1661 OFFCURVE",
"705 1661 CURVE SMOOTH",
"761 1661 OFFCURVE",
"801 1625 OFFCURVE",
"801 1565 CURVE SMOOTH",
"801 1505 OFFCURVE",
"761 1468 OFFCURVE",
"705 1468 CURVE SMOOTH"
);
}
);
width = 1413;
},
{
layerId = "E5E970AF-9D0D-497A-BF30-FBE5F35FA9E4";
paths = (
{
closed = 1;
nodes = (
"1229 0 LINE",
"653 1468 LINE",
"588 1468 LINE",
"0 0 LINE",
"113 0 LINE",
"317 516 LINE",
"911 516 LINE",
"1114 0 LINE"
);
},
{
closed = 1;
nodes = (
"580 1185 OFFCURVE",
"600 1243 OFFCURVE",
"618 1307 CURVE",
"641 1234 OFFCURVE",
"661 1176 OFFCURVE",
"678 1135 CURVE SMOOTH",
"877 608 LINE",
"354 608 LINE",
"559 1133 LINE SMOOTH"
);
},
{
closed = 1;
nodes = (
"836 1734 OFFCURVE",
"748 1821 OFFCURVE",
"619 1821 CURVE SMOOTH",
"490 1821 OFFCURVE",
"402 1735 OFFCURVE",
"402 1610 CURVE SMOOTH",
"402 1481 OFFCURVE",
"490 1397 OFFCURVE",
"619 1397 CURVE SMOOTH",
"748 1397 OFFCURVE",
"836 1481 OFFCURVE",
"836 1610 CURVE SMOOTH"
);
},
{
closed = 1;
nodes = (
"482 1694 OFFCURVE",
"536 1749 OFFCURVE",
"619 1749 CURVE SMOOTH",
"698 1749 OFFCURVE",
"756 1695 OFFCURVE",
"756 1610 CURVE SMOOTH",
"756 1522 OFFCURVE",
"702 1469 OFFCURVE",
"619 1469 CURVE SMOOTH",
"536 1469 OFFCURVE",
"482 1522 OFFCURVE",
"482 1610 CURVE SMOOTH"
);
}
);
width = 1229;
},
{
layerId = "BD2371FC-E5C9-4A02-81E0-967D9F93D406";
paths = (
{
closed = 1;
nodes = (
"1004 1468 LINE",
"477 1468 LINE",
"0 0 LINE",
"434 0 LINE",
"508 274 LINE",
"983 274 LINE",
"1055 0 LINE",
"1487 0 LINE"
);
},
{
closed = 1;
nodes = (
"651 827 OFFCURVE",
"690 981 OFFCURVE",
"708 1059 CURVE SMOOTH",
"725 1137 OFFCURVE",
"737 1193 OFFCURVE",
"743 1227 CURVE",
"756 1154 OFFCURVE",
"809 945 OFFCURVE",
"838 838 CURVE SMOOTH",
"901 598 LINE",
"590 598 LINE"
);
},
{
closed = 1;
nodes = (
"1011 1765 OFFCURVE",
"896 1868 OFFCURVE",
"739 1868 CURVE SMOOTH",
"578 1868 OFFCURVE",
"475 1769 OFFCURVE",
"475 1614 CURVE SMOOTH",
"475 1461 OFFCURVE",
"578 1362 OFFCURVE",
"739 1362 CURVE SMOOTH",
"899 1362 OFFCURVE",
"1011 1465 OFFCURVE",
"1011 1616 CURVE SMOOTH"
);
},
{
closed = 1;
nodes = (
"823 1565 OFFCURVE",
"786 1530 OFFCURVE",
"739 1530 CURVE SMOOTH",
"683 1530 OFFCURVE",
"655 1565 OFFCURVE",
"655 1614 CURVE SMOOTH",
"655 1665 OFFCURVE",
"692 1698 OFFCURVE",
"739 1698 CURVE SMOOTH",
"786 1698 OFFCURVE",
"823 1665 OFFCURVE",
"823 1614 CURVE SMOOTH"
);
}
);
width = 1487;
},
{
components = (
{
name = A;
},
{
name = ring;
transform = "{1, 0, 0, 1, 86, 109}";
}
);
layerId = "57AE6E33-18DE-4F33-B821-7CA4FEF45BB8";
width = 1354;
}
);
note = Aring;
unicode = 00C5;
},
{
glyphname = Aringacute;
lastChange = "2017-12-01 17:48:57 +0000";
layers = (
{
layerId = "2BF40018-41B3-4590-AC2B-A33F7CBCBD7D";
paths = (
{
closed = 1;
nodes = (
"174 0 LINE",
"340 401 LINE",
"950 401 LINE",
"1126 0 LINE",
"1300 0 LINE",
"768 1241 LINE",
"837 1278 OFFCURVE",
"872 1341 OFFCURVE",
"872 1430 CURVE SMOOTH",
"872 1557 OFFCURVE",
"780 1642 OFFCURVE",
"647 1642 CURVE SMOOTH",
"515 1642 OFFCURVE",
"426 1562 OFFCURVE",
"426 1427 CURVE SMOOTH",
"426 1336 OFFCURVE",
"461 1274 OFFCURVE",
"532 1239 CURVE",
"0 0 LINE"
);
},
{
closed = 1;
nodes = (
"578 983 LINE SMOOTH",
"590 1015 OFFCURVE",
"630 1126 OFFCURVE",
"649 1190 CURVE",
"680 1093 OFFCURVE",
"704 1026 OFFCURVE",
"721 987 CURVE SMOOTH",
"899 555 LINE",
"401 555 LINE"
);
},
{
closed = 1;
nodes = (
"571 1311 OFFCURVE",
"530 1354 OFFCURVE",
"530 1427 CURVE SMOOTH",
"530 1503 OFFCURVE",
"579 1544 OFFCURVE",
"647 1544 CURVE SMOOTH",
"715 1544 OFFCURVE",
"764 1503 OFFCURVE",
"764 1427 CURVE SMOOTH",
"764 1354 OFFCURVE",
"718 1311 OFFCURVE",
"647 1311 CURVE SMOOTH"
);
},
{
closed = 1;
nodes = (
"664 1694 LINE",
"752 1754 OFFCURVE",
"887 1885 OFFCURVE",
"930 1946 CURVE",
"930 1962 LINE",
"727 1962 LINE",
"696 1906 OFFCURVE",
"618 1791 OFFCURVE",
"553 1712 CURVE",
"553 1694 LINE"
);
}
);
width = 1300;
},
{
layerId = "BF02A00B-9E13-4540-898E-0A41FC656544";
paths = (
{
closed = 1;
nodes = (
"332 0 LINE",
"440 330 LINE",
"975 330 LINE",
"1081 0 LINE",
"1413 0 LINE",
"911 1315 LINE",
"942 1356 OFFCURVE",
"958 1405 OFFCURVE",
"958 1462 CURVE SMOOTH",
"958 1605 OFFCURVE",
"850 1698 OFFCURVE",
"705 1698 CURVE SMOOTH",
"556 1698 OFFCURVE",
"457 1607 OFFCURVE",
"457 1460 CURVE SMOOTH",
"457 1402 OFFCURVE",
"471 1354 OFFCURVE",
"500 1315 CURVE",
"0 0 LINE"
);
},
{
closed = 1;
nodes = (
"620 911 LINE SMOOTH",
"665 1042 OFFCURVE",
"694 1131 OFFCURVE",
"707 1178 CURVE",
"716 1132 OFFCURVE",
"750 1032 OFFCURVE",
"807 879 CURVE SMOOTH",
"909 590 LINE",
"508 590 LINE"
);
},
{
closed = 1;
nodes = (
"637 1367 OFFCURVE",
"608 1399 OFFCURVE",
"608 1460 CURVE SMOOTH",
"608 1520 OFFCURVE",
"649 1556 OFFCURVE",
"705 1556 CURVE SMOOTH",
"761 1556 OFFCURVE",
"801 1520 OFFCURVE",
"801 1460 CURVE SMOOTH",
"801 1403 OFFCURVE",
"764 1367 OFFCURVE",
"713 1364 CURVE",
"694 1364 LINE"
);
},
{
closed = 1;
nodes = (
"786 1753 LINE",
"930 1826 OFFCURVE",
"1069 1915 OFFCURVE",
"1100 1950 CURVE",
"1100 1962 LINE",
"758 1962 LINE",
"729 1921 OFFCURVE",
"645 1825 OFFCURVE",
"584 1769 CURVE",
"584 1753 LINE"
);
}
);
width = 1413;
},
{
layerId = "E5E970AF-9D0D-497A-BF30-FBE5F35FA9E4";
paths = (
{
closed = 1;
nodes = (
"836 1538 OFFCURVE",
"749 1622 OFFCURVE",
"618 1622 CURVE SMOOTH",
"489 1622 OFFCURVE",
"401 1536 OFFCURVE",
"401 1411 CURVE SMOOTH",
"401 1299 OFFCURVE",
"462 1229 OFFCURVE",
"553 1206 CURVE",
"-12 0 LINE",
"98 0 LINE",
"307 446 LINE",
"924 446 LINE",
"1124 0 LINE",
"1239 0 LINE",
"686 1206 LINE",
"777 1233 OFFCURVE",
"836 1303 OFFCURVE",
"836 1411 CURVE SMOOTH"
);
},
{
closed = 1;
nodes = (
"555 987 LINE SMOOTH",
"582 1047 OFFCURVE",
"603 1100 OFFCURVE",
"618 1147 CURVE",
"642 1079 OFFCURVE",
"662 1028 OFFCURVE",
"678 993 CURVE SMOOTH",
"885 539 LINE",
"346 539 LINE"
);
},
{
closed = 1;
nodes = (
"481 1495 OFFCURVE",
"538 1550 OFFCURVE",
"618 1550 CURVE SMOOTH",
"698 1550 OFFCURVE",
"756 1496 OFFCURVE",
"756 1411 CURVE SMOOTH",
"756 1323 OFFCURVE",
"701 1270 OFFCURVE",
"618 1270 CURVE SMOOTH",
"537 1270 OFFCURVE",
"481 1323 OFFCURVE",
"481 1411 CURVE SMOOTH"
);
},
{
closed = 1;
nodes = (
"631 1673 LINE",
"715 1742 OFFCURVE",
"834 1865 OFFCURVE",
"893 1946 CURVE",
"893 1962 LINE",
"752 1962 LINE",
"693 1855 OFFCURVE",
"630 1764 OFFCURVE",
"561 1690 CURVE",
"561 1673 LINE"
);
}
);
width = 1229;
},
{
layerId = "BD2371FC-E5C9-4A02-81E0-967D9F93D406";
paths = (
{
closed = 1;
nodes = (
"1012 1630 OFFCURVE",
"898 1735 OFFCURVE",
"739 1735 CURVE SMOOTH",
"579 1735 OFFCURVE",
"475 1636 OFFCURVE",
"475 1481 CURVE SMOOTH",
"475 1445 OFFCURVE",
"480 1413 OFFCURVE",
"489 1386 CURVE",
"477 1386 LINE",
"0 0 LINE",
"434 0 LINE",
"508 274 LINE",
"977 274 LINE",
"1055 0 LINE",
"1487 0 LINE",
"1004 1386 LINE",
"993 1386 LINE",
"1006 1414 OFFCURVE",
"1012 1446 OFFCURVE",
"1012 1483 CURVE SMOOTH"
);
},
{
closed = 1;
nodes = (
"665 841 OFFCURVE",
"706 983 OFFCURVE",
"717 1026 CURVE SMOOTH",
"728 1069 OFFCURVE",
"736 1110 OFFCURVE",
"743 1147 CURVE",
"756 1075 OFFCURVE",
"802 906 OFFCURVE",
"831 811 CURVE SMOOTH",
"895 602 LINE",
"596 602 LINE"
);
},
{
closed = 1;
nodes = (
"823 1432 OFFCURVE",
"786 1397 OFFCURVE",
"739 1397 CURVE SMOOTH",
"683 1397 OFFCURVE",
"655 1432 OFFCURVE",
"655 1481 CURVE SMOOTH",
"655 1532 OFFCURVE",
"692 1565 OFFCURVE",
"739 1565 CURVE SMOOTH",
"786 1565 OFFCURVE",
"823 1532 OFFCURVE",
"823 1481 CURVE SMOOTH"
);
},
{
closed = 1;
nodes = (
"831 1790 LINE",
"936 1822 OFFCURVE",
"1137 1906 OFFCURVE",
"1176 1942 CURVE",
"1176 1962 LINE",
"745 1962 LINE",
"700 1911 OFFCURVE",
"619 1846 OFFCURVE",
"571 1815 CURVE",
"571 1790 LINE"
);
}
);
width = 1483;
},
{
layerId = "57AE6E33-18DE-4F33-B821-7CA4FEF45BB8";
paths = (
{
closed = 1;
nodes = (
"915 1582 OFFCURVE",
"813 1669 OFFCURVE",
"676 1669 CURVE SMOOTH",
"533 1669 OFFCURVE",
"440 1580 OFFCURVE",
"440 1444 CURVE SMOOTH",
"440 1371 OFFCURVE",
"465 1315 OFFCURVE",
"516 1276 CURVE",
"0 0 LINE",
"252 0 LINE",
"389 365 LINE",
"963 365 LINE",
"1104 0 LINE",
"1356 0 LINE",
"840 1278 LINE",
"890 1319 OFFCURVE",
"915 1375 OFFCURVE",
"915 1446 CURVE SMOOTH"
);
},
{
closed = 1;
nodes = (
"578 901 OFFCURVE",
"644 1079 OFFCURVE",
"653 1106 CURVE SMOOTH",
"662 1133 OFFCURVE",
"670 1159 OFFCURVE",
"678 1184 CURVE",
"696 1113 OFFCURVE",
"732 1011 OFFCURVE",
"786 879 CURVE SMOOTH",
"903 571 LINE",
"455 571 LINE"
);
},
{
closed = 1;
nodes = (
"814 1778 OFFCURVE",
"973 1896 OFFCURVE",
"1014 1948 CURVE",
"1014 1962 LINE",
"741 1962 LINE",
"698 1891 OFFCURVE",
"607 1780 OFFCURVE",
"567 1741 CURVE",
"567 1722 LINE",
"725 1722 LINE"
);
},
{
closed = 1;
nodes = (
"782 1377 OFFCURVE",
"740 1337 OFFCURVE",
"680 1337 CURVE SMOOTH",
"670 1337 LINE SMOOTH",
"603 1337 OFFCURVE",
"569 1377 OFFCURVE",
"569 1444 CURVE SMOOTH",
"569 1512 OFFCURVE",
"613 1550 OFFCURVE",
"676 1550 CURVE SMOOTH",
"737 1550 OFFCURVE",
"782 1512 OFFCURVE",
"782 1444 CURVE SMOOTH"
);
}
);
width = 1356;
}
);
note = Aringacute;
unicode = 01FA;
},
{
glyphname = Atilde;
lastChange = "2017-12-01 17:48:57 +0000";
layers = (
{
layerId = "2BF40018-41B3-4590-AC2B-A33F7CBCBD7D";
paths = (
{
closed = 1;
nodes = (
"172 0 LINE",
"352 465 LINE",
"938 465 LINE",
"1120 0 LINE",
"1296 0 LINE",
"721 1468 LINE",
"578 1468 LINE",
"0 0 LINE"
);
},
{
closed = 1;
nodes = (
"584 1071 LINE SMOOTH",
"611 1148 OFFCURVE",
"632 1218 OFFCURVE",
"647 1282 CURVE",
"670 1199 OFFCURVE",
"693 1128 OFFCURVE",
"715 1071 CURVE SMOOTH",
"885 618 LINE",
"412 618 LINE"
);
},
{
closed = 1;
nodes = (
"366 1579 LINE",
"385 1660 OFFCURVE",
"414 1700 OFFCURVE",
"481 1700 CURVE SMOOTH",
"526 1700 OFFCURVE",
"575 1671 OFFCURVE",
"628 1641 CURVE SMOOTH",
"680 1611 OFFCURVE",
"735 1581 OFFCURVE",
"792 1581 CURVE SMOOTH",
"917 1581 OFFCURVE",
"995 1678 OFFCURVE",
"1012 1839 CURVE",
"913 1839 LINE",
"893 1756 OFFCURVE",
"866 1718 OFFCURVE",
"801 1718 CURVE SMOOTH",
"758 1718 OFFCURVE",
"710 1748 OFFCURVE",
"658 1778 CURVE SMOOTH",
"606 1808 OFFCURVE",
"548 1837 OFFCURVE",
"487 1837 CURVE SMOOTH",
"366 1837 OFFCURVE",
"285 1740 OFFCURVE",
"268 1579 CURVE"
);
}
);
width = 1296;
},
{
layerId = "BF02A00B-9E13-4540-898E-0A41FC656544";
paths = (
{
closed = 1;
nodes = (
"334 0 LINE",
"440 348 LINE",
"973 348 LINE",
"1079 0 LINE",
"1413 0 LINE",
"895 1468 LINE",
"516 1468 LINE",
"0 0 LINE"
);
},
{
closed = 1;
nodes = (
"622 945 OFFCURVE",
"685 1156 OFFCURVE",
"707 1241 CURVE",
"712 1217 OFFCURVE",
"721 1184 OFFCURVE",
"734 1143 CURVE SMOOTH",
"746 1102 OFFCURVE",
"801 923 OFFCURVE",
"899 608 CURVE",
"518 608 LINE"
);
},
{
closed = 1;
nodes = (
"442 1577 LINE",
"459 1649 OFFCURVE",
"502 1684 OFFCURVE",
"543 1684 CURVE SMOOTH",
"591 1684 OFFCURVE",
"640 1658 OFFCURVE",
"692 1632 CURVE SMOOTH",
"743 1606 OFFCURVE",
"795 1579 OFFCURVE",
"850 1579 CURVE SMOOTH",
"1005 1579 OFFCURVE",
"1107 1695 OFFCURVE",
"1122 1888 CURVE",
"973 1888 LINE",
"956 1816 OFFCURVE",
"913 1782 OFFCURVE",
"872 1782 CURVE SMOOTH",
"824 1782 OFFCURVE",
"775 1808 OFFCURVE",
"724 1834 CURVE SMOOTH",
"672 1860 OFFCURVE",
"620 1886 OFFCURVE",
"565 1886 CURVE SMOOTH",
"408 1886 OFFCURVE",
"308 1770 OFFCURVE",
"293 1577 CURVE"
);
}
);
width = 1413;
},
{
layerId = "E5E970AF-9D0D-497A-BF30-FBE5F35FA9E4";
paths = (
{
closed = 1;
nodes = (
"1229 0 LINE",
"653 1468 LINE",
"588 1468 LINE",
"0 0 LINE",
"113 0 LINE",
"317 516 LINE",
"911 516 LINE",
"1114 0 LINE"
);
},
{
closed = 1;
nodes = (
"580 1185 OFFCURVE",
"600 1243 OFFCURVE",
"618 1307 CURVE",
"641 1234 OFFCURVE",
"661 1176 OFFCURVE",
"678 1135 CURVE SMOOTH",
"877 608 LINE",
"354 608 LINE",
"559 1133 LINE SMOOTH"
);
},
{
closed = 1;
nodes = (
"889 1581 OFFCURVE",
"964 1664 OFFCURVE",
"985 1819 CURVE",
"909 1819 LINE",
"886 1708 OFFCURVE",
"845 1663 OFFCURVE",
"784 1663 CURVE SMOOTH",
"745 1663 OFFCURVE",
"702 1698 OFFCURVE",
"657 1735 CURVE SMOOTH",
"601 1780 OFFCURVE",
"551 1819 OFFCURVE",
"487 1819 CURVE SMOOTH",
"375 1819 OFFCURVE",
"300 1729 OFFCURVE",
"287 1581 CURVE",
"360 1581 LINE",
"384 1697 OFFCURVE",
"423 1737 OFFCURVE",
"483 1737 CURVE SMOOTH",
"526 1737 OFFCURVE",
"565 1706 OFFCURVE",
"608 1671 CURVE SMOOTH",
"691 1600 OFFCURVE",
"736 1581 OFFCURVE",
"784 1581 CURVE SMOOTH"
);
}
);
width = 1229;
},
{
layerId = "BD2371FC-E5C9-4A02-81E0-967D9F93D406";
paths = (
{
closed = 1;
nodes = (
"1004 1468 LINE",
"477 1468 LINE",
"0 0 LINE",
"434 0 LINE",
"508 274 LINE",
"983 274 LINE",
"1055 0 LINE",
"1487 0 LINE"
);
},
{
closed = 1;
nodes = (
"651 827 OFFCURVE",
"690 981 OFFCURVE",
"708 1059 CURVE SMOOTH",
"725 1137 OFFCURVE",
"737 1193 OFFCURVE",
"743 1227 CURVE",
"756 1154 OFFCURVE",
"809 945 OFFCURVE",
"838 838 CURVE SMOOTH",
"901 598 LINE",
"590 598 LINE"
);
},
{
closed = 1;
nodes = (
"1071 1577 OFFCURVE",
"1157 1696 OFFCURVE",
"1172 1919 CURVE",
"990 1919 LINE",
"978 1855 OFFCURVE",
"957 1821 OFFCURVE",
"918 1821 CURVE SMOOTH",
"867 1821 OFFCURVE",
"809 1845 OFFCURVE",
"750 1869 CURVE SMOOTH",
"691 1893 OFFCURVE",
"633 1917 OFFCURVE",
"582 1917 CURVE SMOOTH",
"423 1917 OFFCURVE",
"345 1808 OFFCURVE",
"330 1575 CURVE",
"510 1575 LINE",
"522 1640 OFFCURVE",
"546 1673 OFFCURVE",
"582 1673 CURVE SMOOTH",
"631 1673 OFFCURVE",
"687 1649 OFFCURVE",
"746 1625 CURVE SMOOTH",
"805 1601 OFFCURVE",
"866 1577 OFFCURVE",
"926 1577 CURVE SMOOTH"
);
}
);
width = 1487;
},
{
components = (
{
name = A;
},
{
name = tilde;
transform = "{1, 0, 0, 1, 45, 338}";
}
);
layerId = "57AE6E33-18DE-4F33-B821-7CA4FEF45BB8";
width = 1354;
}
);
note = Atilde;
unicode = 00C3;
},
{
glyphname = AE;
lastChange = "2017-12-07 15:40:37 +0000";
layers = (
{
layerId = "2BF40018-41B3-4590-AC2B-A33F7CBCBD7D";
paths = (
{
closed = 1;
nodes = (
"174 0 LINE",
"401 465 LINE",
"915 465 LINE",
"915 0 LINE",
"1665 0 LINE",
"1665 152 LINE",
"1085 152 LINE",
"1085 690 LINE",
"1626 690 LINE",
"1626 840 LINE",
"1085 840 LINE",
"1085 1311 LINE",
"1665 1311 LINE",
"1665 1462 LINE",
"696 1462 LINE",
"-2 0 LINE"
);
},
{
closed = 1;
nodes = (
"797 1311 LINE",
"915 1311 LINE",
"915 618 LINE",
"469 618 LINE"
);
}
);
width = 1788;
},
{
layerId = "BF02A00B-9E13-4540-898E-0A41FC656544";
paths = (
{
closed = 1;
nodes = (
"315 0 LINE",
"465 348 LINE",
"956 348 LINE",
"956 0 LINE",
"1829 0 LINE",
"1829 256 LINE",
"1266 256 LINE",
"1266 633 LINE",
"1792 633 LINE",
"1792 887 LINE",
"1266 887 LINE",
"1266 1208 LINE",
"1829 1208 LINE",
"1829 1462 LINE",
"655 1462 LINE",
"0 0 LINE"
);
},
{
closed = 1;
nodes = (
"829 1198 LINE",
"956 1198 LINE",
"956 608 LINE",
"578 608 LINE"
);
}
);
width = 1950;
},
{
anchors = (
{
name = bottom;
position = "{827, 0}";
},
{
name = top;
position = "{827, 1462}";
}
);
layerId = "E5E970AF-9D0D-497A-BF30-FBE5F35FA9E4";
paths = (
{
closed = 1;
nodes = (
"913 94 LINE",
"913 721 LINE",
"1489 721 LINE",
"1489 815 LINE",
"913 815 LINE",
"913 1368 LINE",
"1528 1368 LINE",
"1528 1462 LINE",
"651 1462 LINE",
"-2 0 LINE",
"109 0 LINE",
"336 516 LINE",
"811 516 LINE",
"811 0 LINE",
"1528 0 LINE",
"1528 94 LINE"
);
},
{
closed = 1;
nodes = (
"811 1368 LINE",
"811 608 LINE",
"377 608 LINE",
"711 1368 LINE"
);
}
);
width = 1653;
},
{
layerId = "BD2371FC-E5C9-4A02-81E0-967D9F93D406";
paths = (
{
closed = 1;
nodes = (
"1366 322 LINE",
"1366 598 LINE",
"1804 598 LINE",
"1804 915 LINE",
"1366 915 LINE",
"1366 1145 LINE",
"1839 1145 LINE",
"1839 1462 LINE",
"618 1462 LINE",
"-10 0 LINE",
"432 0 LINE",
"532 274 LINE",
"969 274 LINE",
"969 0 LINE",
"1839 0 LINE",
"1839 322 LINE"
);
},
{
closed = 1;
nodes = (
"969 1128 LINE",
"969 602 LINE",
"653 602 LINE",
"858 1128 LINE"
);
}
);
width = 1937;
},
{
layerId = "57AE6E33-18DE-4F33-B821-7CA4FEF45BB8";
paths = (
{
closed = 1;
nodes = (
"1176 203 LINE",
"1176 662 LINE",
"1708 662 LINE",
"1708 862 LINE",
"1176 862 LINE",
"1176 1260 LINE",
"1747 1260 LINE",
"1747 1462 LINE",
"676 1462 LINE",
"-2 0 LINE",
"244 0 LINE",
"432 406 LINE",
"936 406 LINE",
"936 0 LINE",
"1747 0 LINE",
"1747 203 LINE"
);
},
{
closed = 1;
nodes = (
"936 1253 LINE",
"936 612 LINE",
"522 612 LINE",
"813 1253 LINE"
);
}
);
width = 1868;
}
);
note = AE;
unicode = 00C6;
},
{
glyphname = AEacute;
lastChange = "2017-12-01 17:48:57 +0000";
layers = (
{
layerId = "2BF40018-41B3-4590-AC2B-A33F7CBCBD7D";
paths = (
{
closed = 1;
nodes = (
"174 0 LINE",
"401 465 LINE",
"915 465 LINE",
"915 0 LINE",
"1665 0 LINE",
"1665 152 LINE",
"1085 152 LINE",
"1085 690 LINE",
"1626 690 LINE",
"1626 840 LINE",
"1085 840 LINE",
"1085 1311 LINE",
"1665 1311 LINE",
"1665 1462 LINE",
"696 1462 LINE",
"-2 0 LINE"
);
},
{
closed = 1;
nodes = (
"797 1311 LINE",
"915 1311 LINE",
"915 618 LINE",
"469 618 LINE"
);
},
{
closed = 1;
nodes = (
"1092 1579 LINE",
"1177 1648 OFFCURVE",
"1315 1799 OFFCURVE",
"1374 1886 CURVE",
"1374 1907 LINE",
"1172 1907 LINE",
"1129 1820 OFFCURVE",
"1045 1687 OFFCURVE",
"981 1604 CURVE",
"981 1579 LINE"
);
}
);
width = 1788;
},
{
layerId = "BF02A00B-9E13-4540-898E-0A41FC656544";
paths = (
{
closed = 1;
nodes = (
"315 0 LINE",
"465 348 LINE",
"956 348 LINE",
"956 0 LINE",
"1829 0 LINE",
"1829 256 LINE",
"1266 256 LINE",
"1266 633 LINE",
"1792 633 LINE",
"1792 887 LINE",
"1266 887 LINE",
"1266 1208 LINE",
"1829 1208 LINE",
"1829 1462 LINE",
"655 1462 LINE",
"0 0 LINE"
);
},
{
closed = 1;
nodes = (
"829 1198 LINE",
"956 1198 LINE",
"956 608 LINE",
"578 608 LINE"
);
},
{
closed = 1;
nodes = (
"1207 1579 LINE",
"1302 1646 OFFCURVE",
"1512 1817 OFFCURVE",
"1581 1886 CURVE",
"1581 1907 LINE",
"1239 1907 LINE",
"1197 1840 OFFCURVE",
"1119 1739 OFFCURVE",
"1004 1606 CURVE",
"1004 1579 LINE"
);
}
);
width = 1950;
},
{
layerId = "E5E970AF-9D0D-497A-BF30-FBE5F35FA9E4";
paths = (
{
closed = 1;
nodes = (
"913 94 LINE",
"913 721 LINE",
"1489 721 LINE",
"1489 815 LINE",
"913 815 LINE",
"913 1368 LINE",
"1528 1368 LINE",
"1528 1462 LINE",
"651 1462 LINE",
"-2 0 LINE",
"109 0 LINE",
"336 516 LINE",
"811 516 LINE",
"811 0 LINE",
"1528 0 LINE",
"1528 94 LINE"
);
},
{
closed = 1;
nodes = (
"811 1368 LINE",
"811 608 LINE",
"377 608 LINE",
"711 1368 LINE"
);
},
{
closed = 1;
nodes = (
"961 1579 LINE",
"1100 1695 OFFCURVE",
"1226 1821 OFFCURVE",
"1274 1890 CURVE",
"1274 1907 LINE",
"1133 1907 LINE",
"1098 1843 OFFCURVE",
"988 1700 OFFCURVE",
"891 1595 CURVE",
"891 1579 LINE"
);
}
);
width = 1653;
},
{
layerId = "BD2371FC-E5C9-4A02-81E0-967D9F93D406";
paths = (
{
closed = 1;
nodes = (
"1366 322 LINE",
"1366 598 LINE",
"1804 598 LINE",
"1804 915 LINE",
"1366 915 LINE",
"1366 1145 LINE",
"1839 1145 LINE",
"1839 1462 LINE",
"618 1462 LINE",
"-10 0 LINE",
"432 0 LINE",
"532 274 LINE",
"969 274 LINE",
"969 0 LINE",
"1839 0 LINE",
"1839 322 LINE"
);
},
{
closed = 1;
nodes = (
"969 1128 LINE",
"969 602 LINE",
"653 602 LINE",
"858 1128 LINE"
);
},
{
closed = 1;
nodes = (
"1284 1639 OFFCURVE",
"1513 1801 OFFCURVE",
"1620 1886 CURVE",
"1620 1907 LINE",
"1192 1907 LINE",
"1174 1882 OFFCURVE",
"1151 1853 OFFCURVE",
"1124 1821 CURVE SMOOTH",
"1096 1789 OFFCURVE",
"1031 1718 OFFCURVE",
"928 1608 CURVE",
"928 1579 LINE",
"1188 1579 LINE"
);
}
);
width = 1937;
},
{
components = (
{
name = AE;
},
{
name = acute;
transform = "{1, 0, 0, 1, 629, 338}";
}
);
layerId = "57AE6E33-18DE-4F33-B821-7CA4FEF45BB8";
width = 1868;
}
);
note = AEacute;
unicode = 01FC;
},
{
glyphname = B;
lastChange = "2017-12-07 15:40:37 +0000";
layers = (
{
layerId = "2BF40018-41B3-4590-AC2B-A33F7CBCBD7D";
paths = (
{
closed = 1;
nodes = (
"711 0 LINE SMOOTH",
"1028 0 OFFCURVE",
"1214 155 OFFCURVE",
"1214 416 CURVE SMOOTH",
"1214 611 OFFCURVE",
"1103 728 OFFCURVE",
"881 766 CURVE",
"881 776 LINE",
"1066 809 OFFCURVE",
"1165 927 OFFCURVE",
"1165 1100 CURVE SMOOTH",
"1165 1351 OFFCURVE",
"1002 1462 OFFCURVE",
"614 1462 CURVE SMOOTH",
"201 1462 LINE",
"201 0 LINE"
);
},
{
closed = 1;
nodes = (
"371 692 LINE",
"662 692 LINE SMOOTH",
"911 692 OFFCURVE",
"1032 609 OFFCURVE",
"1032 428 CURVE SMOOTH",
"1032 233 OFFCURVE",
"912 145 OFFCURVE",
"676 145 CURVE SMOOTH",
"371 145 LINE"
);
},
{
closed = 1;
nodes = (
"371 1315 LINE",
"621 1315 LINE SMOOTH",
"877 1315 OFFCURVE",
"989 1247 OFFCURVE",
"989 1083 CURVE SMOOTH",
"989 904 OFFCURVE",
"891 836 OFFCURVE",
"651 836 CURVE SMOOTH",
"371 836 LINE"
);
}
);
width = 1327;
},
{
layerId = "BF02A00B-9E13-4540-898E-0A41FC656544";
paths = (
{
closed = 1;
nodes = (
"731 0 LINE SMOOTH",
"1062 0 OFFCURVE",
"1268 157 OFFCURVE",
"1268 424 CURVE SMOOTH",
"1268 612 OFFCURVE",
"1191 725 OFFCURVE",
"1006 766 CURVE",
"1006 776 LINE",
"1142 799 OFFCURVE",
"1231 917 OFFCURVE",
"1231 1092 CURVE SMOOTH",
"1231 1349 OFFCURVE",
"1054 1462 OFFCURVE",
"639 1462 CURVE SMOOTH",
"184 1462 LINE",
"184 0 LINE"
);
},
{
closed = 1;
nodes = (
"494 637 LINE",
"686 637 LINE SMOOTH",
"859 637 OFFCURVE",
"946 576 OFFCURVE",
"946 455 CURVE SMOOTH",
"946 320 OFFCURVE",
"867 256 OFFCURVE",
"696 256 CURVE SMOOTH",
"494 256 LINE"
);
},
{
closed = 1;
nodes = (
"494 1208 LINE",
"657 1208 LINE SMOOTH",
"834 1208 OFFCURVE",
"913 1163 OFFCURVE",
"913 1051 CURVE SMOOTH",
"913 931 OFFCURVE",
"842 883 OFFCURVE",
"674 883 CURVE SMOOTH",
"494 883 LINE"
);
}
);
width = 1376;
},
{
anchors = (
{
name = bottom;
position = "{642, 0}";
},
{
name = top;
position = "{642, 1462}";
}
);
layerId = "E5E970AF-9D0D-497A-BF30-FBE5F35FA9E4";
paths = (
{
closed = 1;
nodes = (
"655 0 LINE SMOOTH",
"983 0 OFFCURVE",
"1169 151 OFFCURVE",
"1169 420 CURVE SMOOTH",
"1169 621 OFFCURVE",
"1062 731 OFFCURVE",
"829 766 CURVE",
"829 772 LINE",
"1028 804 OFFCURVE",
"1133 923 OFFCURVE",
"1133 1092 CURVE SMOOTH",
"1133 1340 OFFCURVE",
"969 1462 OFFCURVE",
"608 1462 CURVE SMOOTH",
"207 1462 LINE",
"207 0 LINE"
);
},
{
closed = 1;
nodes = (
"604 1372 LINE SMOOTH",
"883 1372 OFFCURVE",
"1024 1289 OFFCURVE",
"1024 1094 CURVE SMOOTH",
"1024 899 OFFCURVE",
"906 811 OFFCURVE",
"631 811 CURVE SMOOTH",
"309 811 LINE",
"309 1372 LINE"
);
},
{
closed = 1;
nodes = (
"916 721 OFFCURVE",
"1059 621 OFFCURVE",
"1059 420 CURVE SMOOTH",
"1059 200 OFFCURVE",
"924 90 OFFCURVE",
"653 90 CURVE SMOOTH",
"309 90 LINE",
"309 721 LINE",
"631 721 LINE SMOOTH"
);
}
);
width = 1284;
},
{
layerId = "BD2371FC-E5C9-4A02-81E0-967D9F93D406";
paths = (
{
closed = 1;
nodes = (
"727 0 LINE SMOOTH",
"1071 0 OFFCURVE",
"1284 163 OFFCURVE",
"1284 428 CURVE SMOOTH",
"1284 607 OFFCURVE",
"1207 718 OFFCURVE",
"1026 766 CURVE",
"1026 776 LINE",
"1163 809 OFFCURVE",
"1255 934 OFFCURVE",
"1255 1098 CURVE SMOOTH",
"1255 1347 OFFCURVE",
"1065 1462 OFFCURVE",
"668 1462 CURVE SMOOTH",
"158 1462 LINE",
"158 0 LINE"
);
},
{
closed = 1;
nodes = (
"664 1163 LINE SMOOTH",
"788 1163 OFFCURVE",
"850 1122 OFFCURVE",
"850 1040 CURVE SMOOTH",
"850 948 OFFCURVE",
"785 901 OFFCURVE",
"672 901 CURVE SMOOTH",
"553 901 LINE",
"553 1163 LINE"
);
},
{
closed = 1;
nodes = (
"809 612 OFFCURVE",
"877 558 OFFCURVE",
"877 461 CURVE SMOOTH",
"877 357 OFFCURVE",
"815 305 OFFCURVE",
"692 305 CURVE SMOOTH",
"553 305 LINE",
"553 612 LINE",
"684 612 LINE SMOOTH"
);
}
);
width = 1380;
},
{
layerId = "57AE6E33-18DE-4F33-B821-7CA4FEF45BB8";
paths = (
{
closed = 1;
nodes = (
"721 0 LINE SMOOTH",
"1048 0 OFFCURVE",
"1241 157 OFFCURVE",
"1241 420 CURVE SMOOTH",
"1241 615 OFFCURVE",
"1147 727 OFFCURVE",
"942 766 CURVE",
"942 776 LINE",
"1107 805 OFFCURVE",
"1198 925 OFFCURVE",
"1198 1096 CURVE SMOOTH",
"1198 1349 OFFCURVE",
"1030 1462 OFFCURVE",
"627 1462 CURVE SMOOTH",
"193 1462 LINE",
"193 0 LINE"
);
},
{
closed = 1;
nodes = (
"639 1262 LINE SMOOTH",
"855 1262 OFFCURVE",
"950 1204 OFFCURVE",
"950 1067 CURVE SMOOTH",
"950 915 OFFCURVE",
"862 858 OFFCURVE",
"662 858 CURVE SMOOTH",
"432 858 LINE",
"432 1262 LINE"
);
},
{
closed = 1;
nodes = (
"886 664 OFFCURVE",
"989 592 OFFCURVE",
"989 440 CURVE SMOOTH",
"989 275 OFFCURVE",
"886 201 OFFCURVE",
"686 201 CURVE SMOOTH",
"432 201 LINE",
"432 664 LINE",
"674 664 LINE SMOOTH"
);
}
);
width = 1352;
}
);
note = B;
unicode = 0042;
},
{
glyphname = C;
lastChange = "2017-12-07 15:40:37 +0000";
layers = (
{
layerId = "2BF40018-41B3-4590-AC2B-A33F7CBCBD7D";
paths = (
{
closed = 1;
nodes = (
"948 -20 OFFCURVE",
"1073 -1 OFFCURVE",
"1174 37 CURVE",
"1174 186 LINE",
"1043 149 OFFCURVE",
"927 131 OFFCURVE",
"825 131 CURVE SMOOTH",
"493 131 OFFCURVE",
"307 348 OFFCURVE",
"307 731 CURVE SMOOTH",
"307 1103 OFFCURVE",
"506 1331 OFFCURVE",
"827 1331 CURVE SMOOTH",
"938 1331 OFFCURVE",
"1048 1305 OFFCURVE",
"1159 1253 CURVE",
"1231 1399 LINE",
"1116 1455 OFFCURVE",
"982 1483 OFFCURVE",
"829 1483 CURVE SMOOTH",
"685 1483 OFFCURVE",
"560 1452 OFFCURVE",
"454 1391 CURVE SMOOTH",
"241 1268 OFFCURVE",
"125 1034 OFFCURVE",
"125 733 CURVE SMOOTH",
"125 252 OFFCURVE",
"368 -20 OFFCURVE",
"799 -20 CURVE SMOOTH"
);
}
);
width = 1292;
},
{
layerId = "BF02A00B-9E13-4540-898E-0A41FC656544";
paths = (
{
closed = 1;
nodes = (
"924 -20 OFFCURVE",
"1058 5 OFFCURVE",
"1178 55 CURVE",
"1178 315 LINE",
"1032 264 OFFCURVE",
"908 238 OFFCURVE",
"805 238 CURVE SMOOTH",
"560 238 OFFCURVE",
"438 401 OFFCURVE",
"438 727 CURVE SMOOTH",
"438 1040 OFFCURVE",
"572 1225 OFFCURVE",
"805 1225 CURVE SMOOTH",
"912 1225 OFFCURVE",
"1024 1180 OFFCURVE",
"1133 1128 CURVE",
"1233 1380 LINE",
"1090 1449 OFFCURVE",
"947 1483 OFFCURVE",
"805 1483 CURVE SMOOTH",
"666 1483 OFFCURVE",
"544 1453 OFFCURVE",
"441 1392 CURVE SMOOTH",
"233 1270 OFFCURVE",
"119 1033 OFFCURVE",
"119 729 CURVE SMOOTH",
"119 246 OFFCURVE",
"351 -20 OFFCURVE",
"776 -20 CURVE SMOOTH"
);
}
);
width = 1305;
},
{
anchors = (
{
name = bottom;
position = "{636, 0}";
},
{
name = top;
position = "{636, 1462}";
}
);
layerId = "E5E970AF-9D0D-497A-BF30-FBE5F35FA9E4";
paths = (
{
closed = 1;
nodes = (
"948 1391 OFFCURVE",
"1060 1364 OFFCURVE",
"1167 1311 CURVE",
"1208 1403 LINE",
"1095 1456 OFFCURVE",
"968 1483 OFFCURVE",
"825 1483 CURVE SMOOTH",
"685 1483 OFFCURVE",
"562 1452 OFFCURVE",
"457 1391 CURVE SMOOTH",
"245 1267 OFFCURVE",
"129 1032 OFFCURVE",
"129 735 CURVE SMOOTH",
"129 259 OFFCURVE",
"380 -20 OFFCURVE",
"791 -20 CURVE SMOOTH",
"936 -20 OFFCURVE",
"1056 -3 OFFCURVE",
"1153 31 CURVE",
"1153 121 LINE",
"1050 90 OFFCURVE",
"938 74 OFFCURVE",
"815 74 CURVE SMOOTH",
"446 74 OFFCURVE",
"240 316 OFFCURVE",
"240 733 CURVE SMOOTH",
"240 1141 OFFCURVE",
"464 1391 OFFCURVE",
"831 1391 CURVE SMOOTH"
);
}
);
width = 1272;
},
{
layerId = "BD2371FC-E5C9-4A02-81E0-967D9F93D406";
paths = (
{
closed = 1;
nodes = (
"933 1159 OFFCURVE",
"1037 1120 OFFCURVE",
"1145 1069 CURVE",
"1266 1380 LINE",
"1122 1449 OFFCURVE",
"971 1483 OFFCURVE",
"813 1483 CURVE SMOOTH",
"668 1483 OFFCURVE",
"543 1452 OFFCURVE",
"436 1391 CURVE SMOOTH",
"222 1267 OFFCURVE",
"104 1030 OFFCURVE",
"104 727 CURVE SMOOTH",
"104 243 OFFCURVE",
"347 -20 OFFCURVE",
"788 -20 CURVE SMOOTH",
"942 -20 OFFCURVE",
"1080 7 OFFCURVE",
"1202 61 CURVE",
"1202 395 LINE",
"1079 344 OFFCURVE",
"960 303 OFFCURVE",
"831 303 CURVE SMOOTH",
"617 303 OFFCURVE",
"510 444 OFFCURVE",
"510 725 CURVE SMOOTH",
"510 996 OFFCURVE",
"621 1159 OFFCURVE",
"809 1159 CURVE SMOOTH"
);
}
);
width = 1329;
},
{
layerId = "57AE6E33-18DE-4F33-B821-7CA4FEF45BB8";
paths = (
{
closed = 1;
nodes = (
"936 1278 OFFCURVE",
"1046 1237 OFFCURVE",
"1145 1190 CURVE",
"1231 1389 LINE",
"1104 1452 OFFCURVE",
"966 1483 OFFCURVE",
"817 1483 CURVE SMOOTH",
"675 1483 OFFCURVE",
"551 1453 OFFCURVE",
"446 1392 CURVE SMOOTH",
"235 1271 OFFCURVE",
"121 1035 OFFCURVE",
"121 731 CURVE SMOOTH",
"121 248 OFFCURVE",
"358 -20 OFFCURVE",
"786 -20 CURVE SMOOTH",
"931 -20 OFFCURVE",
"1061 2 OFFCURVE",
"1176 45 CURVE",
"1176 250 LINE",
"1051 211 OFFCURVE",
"939 184 OFFCURVE",
"815 184 CURVE SMOOTH",
"528 184 OFFCURVE",
"373 370 OFFCURVE",
"373 729 CURVE SMOOTH",
"373 1072 OFFCURVE",
"540 1278 OFFCURVE",
"815 1278 CURVE SMOOTH"
);
}
);
width = 1298;
}
);
note = C;
unicode = 0043;
},
{
glyphname = Cacute;
lastChange = "2017-12-01 17:48:57 +0000";
layers = (
{
layerId = "2BF40018-41B3-4590-AC2B-A33F7CBCBD7D";
paths = (
{
closed = 1;
nodes = (
"948 -20 OFFCURVE",
"1073 -1 OFFCURVE",
"1174 37 CURVE",
"1174 186 LINE",
"1043 149 OFFCURVE",
"927 131 OFFCURVE",
"825 131 CURVE SMOOTH",
"493 131 OFFCURVE",
"307 348 OFFCURVE",
"307 731 CURVE SMOOTH",
"307 1103 OFFCURVE",
"506 1331 OFFCURVE",
"827 1331 CURVE SMOOTH",
"938 1331 OFFCURVE",
"1048 1305 OFFCURVE",
"1159 1253 CURVE",
"1231 1399 LINE",
"1116 1455 OFFCURVE",
"982 1483 OFFCURVE",
"829 1483 CURVE SMOOTH",
"685 1483 OFFCURVE",
"560 1452 OFFCURVE",
"454 1391 CURVE SMOOTH",
"241 1268 OFFCURVE",
"125 1034 OFFCURVE",
"125 733 CURVE SMOOTH",
"125 252 OFFCURVE",
"368 -20 OFFCURVE",
"799 -20 CURVE SMOOTH"
);
},
{
closed = 1;
nodes = (
"768 1579 LINE",
"853 1648 OFFCURVE",
"991 1799 OFFCURVE",
"1050 1886 CURVE",
"1050 1907 LINE",
"848 1907 LINE",
"805 1820 OFFCURVE",
"721 1687 OFFCURVE",
"657 1604 CURVE",
"657 1579 LINE"
);
}
);
width = 1292;
},
{
layerId = "BF02A00B-9E13-4540-898E-0A41FC656544";
paths = (
{
closed = 1;
nodes = (
"924 -20 OFFCURVE",
"1058 5 OFFCURVE",
"1178 55 CURVE",
"1178 315 LINE",
"1032 264 OFFCURVE",
"908 238 OFFCURVE",
"805 238 CURVE SMOOTH",
"560 238 OFFCURVE",
"438 401 OFFCURVE",
"438 727 CURVE SMOOTH",
"438 1040 OFFCURVE",
"572 1225 OFFCURVE",
"805 1225 CURVE SMOOTH",
"912 1225 OFFCURVE",
"1024 1180 OFFCURVE",
"1133 1128 CURVE",
"1233 1380 LINE",
"1090 1449 OFFCURVE",
"947 1483 OFFCURVE",
"805 1483 CURVE SMOOTH",
"666 1483 OFFCURVE",
"544 1453 OFFCURVE",
"441 1392 CURVE SMOOTH",
"233 1270 OFFCURVE",
"119 1033 OFFCURVE",
"119 729 CURVE SMOOTH",
"119 246 OFFCURVE",
"351 -20 OFFCURVE",
"776 -20 CURVE SMOOTH"
);
},
{
closed = 1;
nodes = (
"801 1579 LINE",
"896 1646 OFFCURVE",
"1106 1817 OFFCURVE",
"1175 1886 CURVE",
"1175 1907 LINE",
"833 1907 LINE",
"791 1840 OFFCURVE",
"713 1739 OFFCURVE",
"598 1606 CURVE",
"598 1579 LINE"
);
}
);
width = 1305;
},
{
layerId = "E5E970AF-9D0D-497A-BF30-FBE5F35FA9E4";
paths = (
{
closed = 1;
nodes = (
"948 1391 OFFCURVE",
"1060 1364 OFFCURVE",
"1167 1311 CURVE",
"1208 1403 LINE",
"1095 1456 OFFCURVE",
"968 1483 OFFCURVE",
"825 1483 CURVE SMOOTH",
"685 1483 OFFCURVE",
"562 1452 OFFCURVE",
"457 1391 CURVE SMOOTH",
"245 1267 OFFCURVE",
"129 1032 OFFCURVE",
"129 735 CURVE SMOOTH",
"129 259 OFFCURVE",
"380 -20 OFFCURVE",
"791 -20 CURVE SMOOTH",
"936 -20 OFFCURVE",
"1056 -3 OFFCURVE",
"1153 31 CURVE",
"1153 121 LINE",
"1050 90 OFFCURVE",
"938 74 OFFCURVE",
"815 74 CURVE SMOOTH",
"446 74 OFFCURVE",
"240 316 OFFCURVE",
"240 733 CURVE SMOOTH",
"240 1141 OFFCURVE",
"464 1391 OFFCURVE",
"831 1391 CURVE SMOOTH"
);
},
{
closed = 1;
nodes = (
"727 1579 LINE",
"866 1695 OFFCURVE",
"992 1821 OFFCURVE",
"1040 1890 CURVE",
"1040 1907 LINE",
"899 1907 LINE",
"864 1843 OFFCURVE",
"754 1700 OFFCURVE",
"657 1595 CURVE",
"657 1579 LINE"
);
}
);
width = 1272;
},
{
layerId = "BD2371FC-E5C9-4A02-81E0-967D9F93D406";
paths = (
{
closed = 1;
nodes = (
"933 1159 OFFCURVE",
"1037 1120 OFFCURVE",
"1145 1069 CURVE",
"1266 1380 LINE",
"1122 1449 OFFCURVE",
"971 1483 OFFCURVE",
"813 1483 CURVE SMOOTH",
"668 1483 OFFCURVE",
"543 1452 OFFCURVE",
"436 1391 CURVE SMOOTH",
"222 1267 OFFCURVE",
"104 1030 OFFCURVE",
"104 727 CURVE SMOOTH",
"104 243 OFFCURVE",
"347 -20 OFFCURVE",
"788 -20 CURVE SMOOTH",
"942 -20 OFFCURVE",
"1080 7 OFFCURVE",
"1202 61 CURVE",
"1202 395 LINE",
"1079 344 OFFCURVE",
"960 303 OFFCURVE",
"831 303 CURVE SMOOTH",
"617 303 OFFCURVE",
"510 444 OFFCURVE",
"510 725 CURVE SMOOTH",
"510 996 OFFCURVE",
"621 1159 OFFCURVE",
"809 1159 CURVE SMOOTH"
);
},
{
closed = 1;
nodes = (
"907 1639 OFFCURVE",
"1136 1801 OFFCURVE",
"1243 1886 CURVE",
"1243 1907 LINE",
"815 1907 LINE",
"797 1882 OFFCURVE",
"774 1853 OFFCURVE",
"747 1821 CURVE SMOOTH",
"719 1789 OFFCURVE",
"654 1718 OFFCURVE",
"551 1608 CURVE",
"551 1579 LINE",
"811 1579 LINE"
);
}
);
width = 1329;
},
{
components = (
{
name = C;
},
{
name = acute;
transform = "{1, 0, 0, 1, 264, 338}";
}
);
layerId = "57AE6E33-18DE-4F33-B821-7CA4FEF45BB8";
width = 1298;
}
);
note = Cacute;
unicode = 0106;
},
{
glyphname = Ccaron;
lastChange = "2017-12-01 17:48:57 +0000";
layers = (
{
layerId = "2BF40018-41B3-4590-AC2B-A33F7CBCBD7D";
paths = (
{
closed = 1;
nodes = (
"948 -20 OFFCURVE",
"1073 -1 OFFCURVE",
"1174 37 CURVE",
"1174 186 LINE",
"1043 149 OFFCURVE",
"927 131 OFFCURVE",
"825 131 CURVE SMOOTH",
"493 131 OFFCURVE",
"307 348 OFFCURVE",
"307 731 CURVE SMOOTH",
"307 1103 OFFCURVE",
"506 1331 OFFCURVE",
"827 1331 CURVE SMOOTH",
"938 1331 OFFCURVE",
"1048 1305 OFFCURVE",
"1159 1253 CURVE",
"1231 1399 LINE",
"1116 1455 OFFCURVE",
"982 1483 OFFCURVE",
"829 1483 CURVE SMOOTH",
"685 1483 OFFCURVE",
"560 1452 OFFCURVE",
"454 1391 CURVE SMOOTH",
"241 1268 OFFCURVE",
"125 1034 OFFCURVE",
"125 733 CURVE SMOOTH",
"125 252 OFFCURVE",
"368 -20 OFFCURVE",
"799 -20 CURVE SMOOTH"
);
},
{
closed = 1;
nodes = (
"879 1579 LINE",
"910 1637 OFFCURVE",
"973 1715 OFFCURVE",
"1069 1814 CURVE SMOOTH",
"1135 1882 LINE",
"1135 1907 LINE",
"1016 1907 LINE",
"955 1868 OFFCURVE",
"882 1805 OFFCURVE",
"795 1718 CURVE",
"725 1795 OFFCURVE",
"652 1858 OFFCURVE",
"576 1907 CURVE",
"461 1907 LINE",
"461 1882 LINE",
"546 1791 OFFCURVE",
"605 1725 OFFCURVE",
"639 1683 CURVE SMOOTH",
"673 1641 OFFCURVE",
"698 1606 OFFCURVE",
"713 1579 CURVE"
);
}
);
width = 1292;
},
{
layerId = "BF02A00B-9E13-4540-898E-0A41FC656544";
paths = (
{
closed = 1;
nodes = (
"924 -20 OFFCURVE",
"1058 5 OFFCURVE",
"1178 55 CURVE",
"1178 315 LINE",
"1032 264 OFFCURVE",
"908 238 OFFCURVE",
"805 238 CURVE SMOOTH",
"560 238 OFFCURVE",
"438 401 OFFCURVE",
"438 727 CURVE SMOOTH",
"438 1040 OFFCURVE",
"572 1225 OFFCURVE",
"805 1225 CURVE SMOOTH",
"912 1225 OFFCURVE",
"1024 1180 OFFCURVE",
"1133 1128 CURVE",
"1233 1380 LINE",
"1090 1449 OFFCURVE",
"947 1483 OFFCURVE",
"805 1483 CURVE SMOOTH",
"666 1483 OFFCURVE",
"544 1453 OFFCURVE",
"441 1392 CURVE SMOOTH",
"233 1270 OFFCURVE",
"119 1033 OFFCURVE",
"119 729 CURVE SMOOTH",
"119 246 OFFCURVE",
"351 -20 OFFCURVE",
"776 -20 CURVE SMOOTH"
);
},
{
closed = 1;
nodes = (
"971 1579 LINE",
"1012 1646 OFFCURVE",
"1115 1768 OFFCURVE",
"1227 1880 CURVE",
"1227 1907 LINE",
"1024 1907 LINE",
"924 1848 OFFCURVE",
"846 1789 OFFCURVE",
"790 1731 CURVE",
"735 1786 OFFCURVE",
"659 1845 OFFCURVE",
"561 1907 CURVE",
"358 1907 LINE",
"358 1880 LINE",
"437 1798 OFFCURVE",
"495 1735 OFFCURVE",
"531 1692 CURVE SMOOTH",
"567 1648 OFFCURVE",
"595 1610 OFFCURVE",
"614 1579 CURVE"
);
}
);
width = 1305;
},
{
layerId = "E5E970AF-9D0D-497A-BF30-FBE5F35FA9E4";
paths = (
{
closed = 1;
nodes = (
"948 1391 OFFCURVE",
"1060 1364 OFFCURVE",
"1167 1311 CURVE",
"1208 1403 LINE",
"1095 1456 OFFCURVE",
"968 1483 OFFCURVE",
"825 1483 CURVE SMOOTH",
"685 1483 OFFCURVE",
"562 1452 OFFCURVE",
"457 1391 CURVE SMOOTH",
"245 1267 OFFCURVE",
"129 1032 OFFCURVE",
"129 735 CURVE SMOOTH",
"129 259 OFFCURVE",
"380 -20 OFFCURVE",
"791 -20 CURVE SMOOTH",
"936 -20 OFFCURVE",
"1056 -3 OFFCURVE",
"1153 31 CURVE",
"1153 121 LINE",
"1050 90 OFFCURVE",
"938 74 OFFCURVE",
"815 74 CURVE SMOOTH",
"446 74 OFFCURVE",
"240 316 OFFCURVE",
"240 733 CURVE SMOOTH",
"240 1141 OFFCURVE",
"464 1391 OFFCURVE",
"831 1391 CURVE SMOOTH"
);
},
{
closed = 1;
nodes = (
"981 1907 LINE",
"906 1845 OFFCURVE",
"832 1776 OFFCURVE",
"760 1700 CURVE",
"689 1775 OFFCURVE",
"615 1844 OFFCURVE",
"539 1907 CURVE",
"469 1907 LINE",
"469 1890 LINE",
"580 1768 OFFCURVE",
"660 1664 OFFCURVE",
"711 1579 CURVE",
"809 1579 LINE",
"857 1661 OFFCURVE",
"938 1765 OFFCURVE",
"1051 1890 CURVE",
"1051 1907 LINE"
);
}
);
width = 1272;
},
{
layerId = "BD2371FC-E5C9-4A02-81E0-967D9F93D406";
paths = (
{
closed = 1;
nodes = (
"933 1159 OFFCURVE",
"1037 1120 OFFCURVE",
"1145 1069 CURVE",
"1266 1380 LINE",
"1122 1449 OFFCURVE",
"971 1483 OFFCURVE",
"813 1483 CURVE SMOOTH",
"668 1483 OFFCURVE",
"543 1452 OFFCURVE",
"436 1391 CURVE SMOOTH",
"222 1267 OFFCURVE",
"104 1030 OFFCURVE",
"104 727 CURVE SMOOTH",
"104 243 OFFCURVE",
"347 -20 OFFCURVE",
"788 -20 CURVE SMOOTH",
"942 -20 OFFCURVE",
"1080 7 OFFCURVE",
"1202 61 CURVE",
"1202 395 LINE",
"1079 344 OFFCURVE",
"960 303 OFFCURVE",
"831 303 CURVE SMOOTH",
"617 303 OFFCURVE",
"510 444 OFFCURVE",
"510 725 CURVE SMOOTH",
"510 996 OFFCURVE",
"621 1159 OFFCURVE",
"809 1159 CURVE SMOOTH"
);
},
{
closed = 1;
nodes = (
"923 1875 OFFCURVE",
"856 1825 OFFCURVE",
"778 1757 CURVE",
"695 1828 OFFCURVE",
"630 1878 OFFCURVE",
"584 1907 CURVE",
"326 1907 LINE",
"326 1878 LINE",
"427 1779 OFFCURVE",
"532 1659 OFFCURVE",
"584 1579 CURVE",
"977 1579 LINE",
"1036 1666 OFFCURVE",
"1145 1790 OFFCURVE",
"1233 1878 CURVE",
"1233 1907 LINE",
"979 1907 LINE"
);
}
);
width = 1329;
},
{
components = (
{
name = C;
},
{
name = caron;
transform = "{1, 0, 0, 1, 182, 338}";
}
);
layerId = "57AE6E33-18DE-4F33-B821-7CA4FEF45BB8";
width = 1298;
}
);
note = Ccaron;
unicode = 010C;
},
{
glyphname = Ccedilla;
lastChange = "2017-12-01 17:48:57 +0000";
layers = (
{
layerId = "2BF40018-41B3-4590-AC2B-A33F7CBCBD7D";
paths = (
{
closed = 1;
nodes = (
"948 -20 OFFCURVE",
"1073 -1 OFFCURVE",
"1174 37 CURVE",
"1174 186 LINE",
"1043 149 OFFCURVE",
"927 131 OFFCURVE",
"825 131 CURVE SMOOTH",
"493 131 OFFCURVE",
"307 348 OFFCURVE",
"307 731 CURVE SMOOTH",
"307 1103 OFFCURVE",
"506 1331 OFFCURVE",
"827 1331 CURVE SMOOTH",
"938 1331 OFFCURVE",
"1048 1305 OFFCURVE",
"1159 1253 CURVE",
"1231 1399 LINE",
"1116 1455 OFFCURVE",
"982 1483 OFFCURVE",
"829 1483 CURVE SMOOTH",
"685 1483 OFFCURVE",
"560 1452 OFFCURVE",
"454 1391 CURVE SMOOTH",
"241 1268 OFFCURVE",
"125 1034 OFFCURVE",
"125 733 CURVE SMOOTH",
"125 252 OFFCURVE",
"368 -20 OFFCURVE",
"799 -20 CURVE SMOOTH"
);
},
{
closed = 1;
nodes = (
"847 -492 OFFCURVE",
"950 -418 OFFCURVE",
"950 -289 CURVE SMOOTH",
"950 -199 OFFCURVE",
"890 -141 OFFCURVE",
"770 -115 CURVE",
"825 0 LINE",
"715 0 LINE",
"627 -178 LINE",
"700 -189 OFFCURVE",
"749 -204 OFFCURVE",
"776 -221 CURVE",
"802 -239 OFFCURVE",
"815 -262 OFFCURVE",
"815 -291 CURVE SMOOTH",
"815 -363 OFFCURVE",
"760 -385 OFFCURVE",
"655 -385 CURVE SMOOTH",
"616 -385 OFFCURVE",
"581 -382 OFFCURVE",
"551 -377 CURVE",
"551 -483 LINE",
"581 -489 OFFCURVE",
"613 -492 OFFCURVE",
"647 -492 CURVE SMOOTH"
);
}
);
width = 1292;
},
{
color = 2;
layerId = "BF02A00B-9E13-4540-898E-0A41FC656544";
paths = (
{
closed = 1;
nodes = (
"924 -20 OFFCURVE",
"1058 5 OFFCURVE",
"1178 55 CURVE",
"1178 315 LINE",
"1032 264 OFFCURVE",
"908 238 OFFCURVE",
"805 238 CURVE SMOOTH",
"560 238 OFFCURVE",
"438 401 OFFCURVE",
"438 727 CURVE SMOOTH",
"438 1040 OFFCURVE",
"572 1225 OFFCURVE",
"805 1225 CURVE SMOOTH",
"912 1225 OFFCURVE",
"1024 1180 OFFCURVE",
"1133 1128 CURVE",
"1233 1380 LINE",
"1090 1449 OFFCURVE",
"947 1483 OFFCURVE",
"805 1483 CURVE SMOOTH",
"666 1483 OFFCURVE",
"544 1453 OFFCURVE",
"441 1392 CURVE SMOOTH",
"233 1270 OFFCURVE",
"119 1033 OFFCURVE",
"119 729 CURVE SMOOTH",
"119 246 OFFCURVE",
"351 -20 OFFCURVE",
"776 -20 CURVE SMOOTH"
);
},
{
closed = 1;
nodes = (
"861 -492 OFFCURVE",
"959 -421 OFFCURVE",
"959 -250 CURVE SMOOTH",
"959 -165 OFFCURVE",
"896 -93 OFFCURVE",
"797 -61 CURVE",
"824 0 LINE",
"631 0 LINE",
"553 -154 LINE",
"664 -171 OFFCURVE",
"719 -207 OFFCURVE",
"719 -262 CURVE SMOOTH",
"719 -303 OFFCURVE",
"695 -324 OFFCURVE",
"647 -324 CURVE SMOOTH",
"614 -324 OFFCURVE",
"540 -312 OFFCURVE",
"504 -303 CURVE",
"504 -471 LINE",
"549 -485 OFFCURVE",
"598 -492 OFFCURVE",
"650 -492 CURVE SMOOTH"
);
}
);
width = 1305;
},
{
layerId = "E5E970AF-9D0D-497A-BF30-FBE5F35FA9E4";
paths = (
{
closed = 1;
nodes = (
"948 1391 OFFCURVE",
"1060 1364 OFFCURVE",
"1167 1311 CURVE",
"1208 1403 LINE",
"1095 1456 OFFCURVE",
"968 1483 OFFCURVE",
"825 1483 CURVE SMOOTH",
"685 1483 OFFCURVE",
"562 1452 OFFCURVE",
"457 1391 CURVE SMOOTH",
"245 1267 OFFCURVE",
"129 1032 OFFCURVE",
"129 735 CURVE SMOOTH",
"129 259 OFFCURVE",
"380 -20 OFFCURVE",
"791 -20 CURVE SMOOTH",
"936 -20 OFFCURVE",
"1056 -3 OFFCURVE",
"1153 31 CURVE",
"1153 121 LINE",
"1050 90 OFFCURVE",
"938 74 OFFCURVE",
"815 74 CURVE SMOOTH",
"446 74 OFFCURVE",
"240 316 OFFCURVE",
"240 733 CURVE SMOOTH",
"240 1141 OFFCURVE",
"464 1391 OFFCURVE",
"831 1391 CURVE SMOOTH"
);
},
{
closed = 1;
nodes = (
"911 -200 OFFCURVE",
"855 -142 OFFCURVE",
"743 -117 CURVE",
"809 0 LINE",
"713 0 LINE",
"620 -174 LINE",
"749 -192 OFFCURVE",
"813 -232 OFFCURVE",
"813 -295 CURVE SMOOTH",
"813 -364 OFFCURVE",
"757 -403 OFFCURVE",
"653 -403 CURVE SMOOTH",
"612 -403 OFFCURVE",
"581 -400 OFFCURVE",
"561 -393 CURVE",
"561 -481 LINE",
"578 -488 OFFCURVE",
"610 -492 OFFCURVE",
"655 -492 CURVE SMOOTH",
"816 -492 OFFCURVE",
"911 -424 OFFCURVE",
"911 -291 CURVE SMOOTH"
);
}
);
width = 1272;
},
{
layerId = "BD2371FC-E5C9-4A02-81E0-967D9F93D406";
paths = (
{
closed = 1;
nodes = (
"933 1159 OFFCURVE",
"1037 1120 OFFCURVE",
"1145 1069 CURVE",
"1266 1380 LINE",
"1122 1449 OFFCURVE",
"971 1483 OFFCURVE",
"813 1483 CURVE SMOOTH",
"668 1483 OFFCURVE",
"543 1452 OFFCURVE",
"436 1391 CURVE SMOOTH",
"222 1267 OFFCURVE",
"104 1030 OFFCURVE",
"104 727 CURVE SMOOTH",
"104 243 OFFCURVE",
"347 -20 OFFCURVE",
"788 -20 CURVE SMOOTH",
"942 -20 OFFCURVE",
"1080 7 OFFCURVE",
"1202 61 CURVE",
"1202 395 LINE",
"1079 344 OFFCURVE",
"960 303 OFFCURVE",
"831 303 CURVE SMOOTH",
"617 303 OFFCURVE",
"510 444 OFFCURVE",
"510 725 CURVE SMOOTH",
"510 996 OFFCURVE",
"621 1159 OFFCURVE",
"809 1159 CURVE SMOOTH"
);
},
{
closed = 1;
nodes = (
"964 -149 OFFCURVE",
"922 -81 OFFCURVE",
"794 -29 CURVE",
"803 0 LINE",
"600 0 LINE",
"528 -139 LINE",
"616 -159 OFFCURVE",
"676 -194 OFFCURVE",
"676 -238 CURVE SMOOTH",
"676 -269 OFFCURVE",
"659 -285 OFFCURVE",
"624 -285 CURVE SMOOTH",
"581 -285 OFFCURVE",
"532 -276 OFFCURVE",
"477 -258 CURVE",
"477 -463 LINE",
"528 -482 OFFCURVE",
"599 -492 OFFCURVE",
"690 -492 CURVE SMOOTH",
"855 -492 OFFCURVE",
"964 -397 OFFCURVE",
"964 -252 CURVE SMOOTH"
);
}
);
width = 1329;
},
{
components = (
{
name = C;
},
{
name = cedilla;
transform = "{1, 0, 0, 1, 526, 0}";
}
);
layerId = "57AE6E33-18DE-4F33-B821-7CA4FEF45BB8";
width = 1298;
}
);
note = Ccedilla;
unicode = 00C7;
},
{
glyphname = Ccircumflex;
lastChange = "2017-12-01 17:48:57 +0000";
layers = (
{
layerId = "2BF40018-41B3-4590-AC2B-A33F7CBCBD7D";
paths = (
{
closed = 1;
nodes = (
"948 -20 OFFCURVE",
"1073 -1 OFFCURVE",
"1174 37 CURVE",
"1174 186 LINE",
"1043 149 OFFCURVE",
"927 131 OFFCURVE",
"825 131 CURVE SMOOTH",
"493 131 OFFCURVE",
"307 348 OFFCURVE",
"307 731 CURVE SMOOTH",
"307 1103 OFFCURVE",
"506 1331 OFFCURVE",
"827 1331 CURVE SMOOTH",
"938 1331 OFFCURVE",
"1048 1305 OFFCURVE",
"1159 1253 CURVE",
"1231 1399 LINE",
"1116 1455 OFFCURVE",
"982 1483 OFFCURVE",
"829 1483 CURVE SMOOTH",
"685 1483 OFFCURVE",
"560 1452 OFFCURVE",
"454 1391 CURVE SMOOTH",
"241 1268 OFFCURVE",
"125 1034 OFFCURVE",
"125 733 CURVE SMOOTH",
"125 252 OFFCURVE",
"368 -20 OFFCURVE",
"799 -20 CURVE SMOOTH"
);
},
{
closed = 1;
nodes = (
"555 1579 LINE",
"610 1614 OFFCURVE",
"683 1676 OFFCURVE",
"774 1765 CURVE",
"863 1678 OFFCURVE",
"936 1616 OFFCURVE",
"995 1579 CURVE",
"1114 1579 LINE",
"1114 1602 LINE",
"1031 1689 OFFCURVE",
"971 1754 OFFCURVE",
"935 1799 CURVE SMOOTH",
"898 1843 OFFCURVE",
"873 1879 OFFCURVE",
"858 1907 CURVE",
"692 1907 LINE",
"677 1880 OFFCURVE",
"652 1845 OFFCURVE",
"618 1802 CURVE SMOOTH",
"584 1759 OFFCURVE",
"525 1693 OFFCURVE",
"440 1602 CURVE",
"440 1579 LINE"
);
}
);
width = 1292;
},
{
layerId = "BF02A00B-9E13-4540-898E-0A41FC656544";
paths = (
{
closed = 1;
nodes = (
"924 -20 OFFCURVE",
"1058 5 OFFCURVE",
"1178 55 CURVE",
"1178 315 LINE",
"1032 264 OFFCURVE",
"908 238 OFFCURVE",
"805 238 CURVE SMOOTH",
"560 238 OFFCURVE",
"438 401 OFFCURVE",
"438 727 CURVE SMOOTH",
"438 1040 OFFCURVE",
"572 1225 OFFCURVE",
"805 1225 CURVE SMOOTH",
"912 1225 OFFCURVE",
"1024 1180 OFFCURVE",
"1133 1128 CURVE",
"1233 1380 LINE",
"1090 1449 OFFCURVE",
"947 1483 OFFCURVE",
"805 1483 CURVE SMOOTH",
"666 1483 OFFCURVE",
"544 1453 OFFCURVE",
"441 1392 CURVE SMOOTH",
"233 1270 OFFCURVE",
"119 1033 OFFCURVE",
"119 729 CURVE SMOOTH",
"119 246 OFFCURVE",
"351 -20 OFFCURVE",
"776 -20 CURVE SMOOTH"
);
},
{
closed = 1;
nodes = (
"559 1579 LINE",
"660 1642 OFFCURVE",
"736 1701 OFFCURVE",
"788 1755 CURVE",
"839 1700 OFFCURVE",
"917 1641 OFFCURVE",
"1022 1579 CURVE",
"1225 1579 LINE",
"1225 1606 LINE",
"1129 1699 OFFCURVE",
"1010 1838 OFFCURVE",
"969 1907 CURVE",
"612 1907 LINE",
"567 1832 OFFCURVE",
"482 1732 OFFCURVE",
"356 1606 CURVE",
"356 1579 LINE"
);
}
);
width = 1305;
},
{
layerId = "E5E970AF-9D0D-497A-BF30-FBE5F35FA9E4";
paths = (
{
closed = 1;
nodes = (
"948 1391 OFFCURVE",
"1060 1364 OFFCURVE",
"1167 1311 CURVE",
"1208 1403 LINE",
"1095 1456 OFFCURVE",
"968 1483 OFFCURVE",
"825 1483 CURVE SMOOTH",
"685 1483 OFFCURVE",
"562 1452 OFFCURVE",
"457 1391 CURVE SMOOTH",
"245 1267 OFFCURVE",
"129 1032 OFFCURVE",
"129 735 CURVE SMOOTH",
"129 259 OFFCURVE",
"380 -20 OFFCURVE",
"791 -20 CURVE SMOOTH",
"936 -20 OFFCURVE",
"1056 -3 OFFCURVE",
"1153 31 CURVE",
"1153 121 LINE",
"1050 90 OFFCURVE",
"938 74 OFFCURVE",
"815 74 CURVE SMOOTH",
"446 74 OFFCURVE",
"240 316 OFFCURVE",
"240 733 CURVE SMOOTH",
"240 1141 OFFCURVE",
"464 1391 OFFCURVE",
"831 1391 CURVE SMOOTH"
);
},
{
closed = 1;
nodes = (
"543 1579 LINE",
"618 1641 OFFCURVE",
"692 1710 OFFCURVE",
"764 1786 CURVE",
"830 1715 OFFCURVE",
"904 1646 OFFCURVE",
"985 1579 CURVE",
"1055 1579 LINE",
"1055 1595 LINE",
"939 1723 OFFCURVE",
"858 1827 OFFCURVE",
"813 1907 CURVE",
"715 1907 LINE",
"660 1818 OFFCURVE",
"556 1684 OFFCURVE",
"473 1595 CURVE",
"473 1579 LINE"
);
}
);
width = 1272;
},
{
layerId = "BD2371FC-E5C9-4A02-81E0-967D9F93D406";
paths = (
{
closed = 1;
nodes = (
"933 1159 OFFCURVE",
"1037 1120 OFFCURVE",
"1145 1069 CURVE",
"1266 1380 LINE",
"1122 1449 OFFCURVE",
"971 1483 OFFCURVE",
"813 1483 CURVE SMOOTH",
"668 1483 OFFCURVE",
"543 1452 OFFCURVE",
"436 1391 CURVE SMOOTH",
"222 1267 OFFCURVE",
"104 1030 OFFCURVE",
"104 727 CURVE SMOOTH",
"104 243 OFFCURVE",
"347 -20 OFFCURVE",
"788 -20 CURVE SMOOTH",
"942 -20 OFFCURVE",
"1080 7 OFFCURVE",
"1202 61 CURVE",
"1202 395 LINE",
"1079 344 OFFCURVE",
"960 303 OFFCURVE",
"831 303 CURVE SMOOTH",
"617 303 OFFCURVE",
"510 444 OFFCURVE",
"510 725 CURVE SMOOTH",
"510 996 OFFCURVE",
"621 1159 OFFCURVE",
"809 1159 CURVE SMOOTH"
);
},
{
closed = 1;
nodes = (
"1241 1608 LINE",
"1133 1716 OFFCURVE",
"1048 1816 OFFCURVE",
"985 1907 CURVE",
"592 1907 LINE",
"541 1830 OFFCURVE",
"426 1695 OFFCURVE",
"334 1608 CURVE",
"334 1579 LINE",
"592 1579 LINE",
"638 1608 OFFCURVE",
"703 1658 OFFCURVE",
"786 1729 CURVE",
"864 1661 OFFCURVE",
"931 1611 OFFCURVE",
"987 1579 CURVE",
"1241 1579 LINE"
);
}
);
width = 1329;
},
{
components = (
{
name = C;
},
{
name = circumflex;
transform = "{1, 0, 0, 1, 170, 338}";
}
);
layerId = "57AE6E33-18DE-4F33-B821-7CA4FEF45BB8";
width = 1298;
}
);
note = Ccircumflex;
unicode = 0108;
},
{
glyphname = Cdotaccent;
lastChange = "2017-12-07 16:10:52 +0000";
layers = (
{
layerId = "2BF40018-41B3-4590-AC2B-A33F7CBCBD7D";
paths = (
{
closed = 1;
nodes = (
"948 -20 OFFCURVE",
"1073 -1 OFFCURVE",
"1174 37 CURVE",
"1174 186 LINE",
"1043 149 OFFCURVE",
"927 131 OFFCURVE",
"825 131 CURVE SMOOTH",
"493 131 OFFCURVE",
"307 348 OFFCURVE",
"307 731 CURVE SMOOTH",
"307 1103 OFFCURVE",
"506 1331 OFFCURVE",
"827 1331 CURVE SMOOTH",
"938 1331 OFFCURVE",
"1048 1305 OFFCURVE",
"1159 1253 CURVE",
"1231 1399 LINE",
"1116 1455 OFFCURVE",
"982 1483 OFFCURVE",
"829 1483 CURVE SMOOTH",
"685 1483 OFFCURVE",
"560 1452 OFFCURVE",
"454 1391 CURVE SMOOTH",
"241 1268 OFFCURVE",
"125 1034 OFFCURVE",
"125 733 CURVE SMOOTH",
"125 252 OFFCURVE",
"368 -20 OFFCURVE",
"799 -20 CURVE SMOOTH"
);
},
{
closed = 1;
nodes = (
"852 1620 OFFCURVE",
"897 1656 OFFCURVE",
"897 1731 CURVE SMOOTH",
"897 1806 OFFCURVE",
"852 1841 OFFCURVE",
"799 1841 CURVE SMOOTH",
"743 1841 OFFCURVE",
"701 1807 OFFCURVE",
"701 1731 CURVE SMOOTH",
"701 1656 OFFCURVE",
"743 1620 OFFCURVE",
"799 1620 CURVE SMOOTH"
);
}
);
width = 1292;
},
{
layerId = "BF02A00B-9E13-4540-898E-0A41FC656544";
paths = (
{
closed = 1;
nodes = (
"924 -20 OFFCURVE",
"1058 5 OFFCURVE",
"1178 55 CURVE",
"1178 315 LINE",
"1032 264 OFFCURVE",
"908 238 OFFCURVE",
"805 238 CURVE SMOOTH",
"560 238 OFFCURVE",
"438 401 OFFCURVE",
"438 727 CURVE SMOOTH",
"438 1040 OFFCURVE",
"572 1225 OFFCURVE",
"805 1225 CURVE SMOOTH",
"912 1225 OFFCURVE",
"1024 1180 OFFCURVE",
"1133 1128 CURVE",
"1233 1380 LINE",
"1090 1449 OFFCURVE",
"947 1483 OFFCURVE",
"805 1483 CURVE SMOOTH",
"666 1483 OFFCURVE",
"544 1453 OFFCURVE",
"441 1392 CURVE SMOOTH",
"233 1270 OFFCURVE",
"119 1033 OFFCURVE",
"119 729 CURVE SMOOTH",
"119 246 OFFCURVE",
"351 -20 OFFCURVE",
"776 -20 CURVE SMOOTH"
);
},
{
closed = 1;
nodes = (
"897 1595 OFFCURVE",
"952 1650 OFFCURVE",
"952 1745 CURVE SMOOTH",
"952 1844 OFFCURVE",
"897 1894 OFFCURVE",
"786 1894 CURVE SMOOTH",
"675 1894 OFFCURVE",
"620 1844 OFFCURVE",
"620 1745 CURVE SMOOTH",
"620 1645 OFFCURVE",
"675 1595 OFFCURVE",
"786 1595 CURVE SMOOTH"
);
}
);
width = 1305;
},
{
layerId = "E5E970AF-9D0D-497A-BF30-FBE5F35FA9E4";
paths = (
{
closed = 1;
nodes = (
"940 1391 OFFCURVE",
"1052 1364 OFFCURVE",
"1159 1311 CURVE",
"1200 1403 LINE",
"1087 1456 OFFCURVE",
"960 1483 OFFCURVE",
"817 1483 CURVE SMOOTH",
"677 1483 OFFCURVE",
"554 1452 OFFCURVE",
"449 1391 CURVE SMOOTH",
"237 1267 OFFCURVE",
"121 1032 OFFCURVE",
"121 735 CURVE SMOOTH",
"121 259 OFFCURVE",
"372 -20 OFFCURVE",
"783 -20 CURVE SMOOTH",
"928 -20 OFFCURVE",
"1048 -3 OFFCURVE",
"1145 31 CURVE",
"1145 121 LINE",
"1042 90 OFFCURVE",
"930 74 OFFCURVE",
"807 74 CURVE SMOOTH",
"438 74 OFFCURVE",
"232 316 OFFCURVE",
"232 733 CURVE SMOOTH",
"232 1141 OFFCURVE",
"456 1391 OFFCURVE",
"823 1391 CURVE SMOOTH"
);
},
{
closed = 1;
nodes = (
"709 1662 OFFCURVE",
"730 1630 OFFCURVE",
"773 1630 CURVE SMOOTH",
"814 1630 OFFCURVE",
"838 1667 OFFCURVE",
"838 1727 CURVE SMOOTH",
"838 1788 OFFCURVE",
"814 1823 OFFCURVE",
"773 1823 CURVE SMOOTH",
"730 1823 OFFCURVE",
"709 1791 OFFCURVE",
"709 1727 CURVE SMOOTH"
);
}
);
width = 1267;
},
{
layerId = "BD2371FC-E5C9-4A02-81E0-967D9F93D406";
paths = (
{
closed = 1;
nodes = (
"933 1159 OFFCURVE",
"1037 1120 OFFCURVE",
"1145 1069 CURVE",
"1266 1380 LINE",
"1122 1449 OFFCURVE",
"971 1483 OFFCURVE",
"813 1483 CURVE SMOOTH",
"668 1483 OFFCURVE",
"543 1452 OFFCURVE",
"436 1391 CURVE SMOOTH",
"222 1267 OFFCURVE",
"104 1030 OFFCURVE",
"104 727 CURVE SMOOTH",
"104 243 OFFCURVE",
"347 -20 OFFCURVE",
"788 -20 CURVE SMOOTH",
"942 -20 OFFCURVE",
"1080 7 OFFCURVE",
"1202 61 CURVE",
"1202 395 LINE",
"1079 344 OFFCURVE",
"960 303 OFFCURVE",
"831 303 CURVE SMOOTH",
"617 303 OFFCURVE",
"510 444 OFFCURVE",
"510 725 CURVE SMOOTH",
"510 996 OFFCURVE",
"621 1159 OFFCURVE",
"809 1159 CURVE SMOOTH"
);
},
{
closed = 1;
nodes = (
"561 1638 OFFCURVE",
"630 1581 OFFCURVE",
"768 1581 CURVE SMOOTH",
"907 1581 OFFCURVE",
"977 1638 OFFCURVE",
"977 1753 CURVE SMOOTH",
"977 1868 OFFCURVE",
"913 1927 OFFCURVE",
"768 1927 CURVE SMOOTH",
"623 1927 OFFCURVE",
"561 1870 OFFCURVE",
"561 1753 CURVE SMOOTH"
);
}
);
width = 1329;
},
{
components = (
{
name = C;
},
{
name = dotaccent;
transform = "{1, 0, 0, 1, 506, 338}";
}
);
layerId = "57AE6E33-18DE-4F33-B821-7CA4FEF45BB8";
width = 1298;
}
);
note = Cdotaccent;
unicode = 010A;
},
{
glyphname = D;
lastChange = "2017-12-07 15:40:37 +0000";
layers = (
{
layerId = "2BF40018-41B3-4590-AC2B-A33F7CBCBD7D";
paths = (
{
closed = 1;
nodes = (
"606 0 LINE SMOOTH",
"1098 0 OFFCURVE",
"1368 262 OFFCURVE",
"1368 745 CURVE SMOOTH",
"1368 1197 OFFCURVE",
"1104 1462 OFFCURVE",
"649 1462 CURVE SMOOTH",
"201 1462 LINE",
"201 0 LINE"
);
},
{
closed = 1;
nodes = (
"371 1315 LINE",
"618 1315 LINE SMOOTH",
"995 1315 OFFCURVE",
"1188 1120 OFFCURVE",
"1188 739 CURVE SMOOTH",
"1188 348 OFFCURVE",
"983 147 OFFCURVE",
"578 147 CURVE SMOOTH",
"371 147 LINE"
);
}
);
width = 1493;
},
{
layerId = "BF02A00B-9E13-4540-898E-0A41FC656544";
paths = (
{
closed = 1;
nodes = (
"598 0 LINE SMOOTH",
"1115 0 OFFCURVE",
"1397 264 OFFCURVE",
"1397 745 CURVE SMOOTH",
"1397 1197 OFFCURVE",
"1120 1462 OFFCURVE",
"643 1462 CURVE SMOOTH",
"184 1462 LINE",
"184 0 LINE"
);
},
{
closed = 1;
nodes = (
"494 1208 LINE",
"659 1208 LINE SMOOTH",
"936 1208 OFFCURVE",
"1075 1051 OFFCURVE",
"1075 737 CURVE SMOOTH",
"1075 416 OFFCURVE",
"926 256 OFFCURVE",
"627 256 CURVE SMOOTH",
"494 256 LINE"
);
}
);
width = 1516;
},
{
anchors = (
{
name = bottom;
position = "{723, 0}";
},
{
name = center;
position = "{723, 731}";
},
{
name = top;
position = "{723, 1462}";
}
);
layerId = "E5E970AF-9D0D-497A-BF30-FBE5F35FA9E4";
paths = (
{
closed = 1;
nodes = (
"1317 1213 OFFCURVE",
"1069 1462 OFFCURVE",
"602 1462 CURVE SMOOTH",
"207 1462 LINE",
"207 0 LINE",
"557 0 LINE SMOOTH",
"1056 0 OFFCURVE",
"1317 254 OFFCURVE",
"1317 745 CURVE SMOOTH"
);
},
{
closed = 1;
nodes = (
"1206 307 OFFCURVE",
"988 90 OFFCURVE",
"551 90 CURVE SMOOTH",
"309 90 LINE",
"309 1372 LINE",
"578 1372 LINE SMOOTH",
"990 1372 OFFCURVE",
"1206 1160 OFFCURVE",
"1206 741 CURVE SMOOTH"
);
}
);
width = 1446;
},
{
layerId = "BD2371FC-E5C9-4A02-81E0-967D9F93D406";
paths = (
{
closed = 1;
nodes = (
"1399 1215 OFFCURVE",
"1133 1462 OFFCURVE",
"664 1462 CURVE SMOOTH",
"158 1462 LINE",
"158 0 LINE",
"631 0 LINE SMOOTH",
"1118 0 OFFCURVE",
"1399 274 OFFCURVE",
"1399 762 CURVE SMOOTH"
);
},
{
closed = 1;
nodes = (
"989 461 OFFCURVE",
"881 324 OFFCURVE",
"641 324 CURVE SMOOTH",
"553 324 LINE",
"553 1143 LINE",
"668 1143 LINE SMOOTH",
"884 1143 OFFCURVE",
"989 1016 OFFCURVE",
"989 748 CURVE SMOOTH"
);
}
);
width = 1503;
},
{
layerId = "57AE6E33-18DE-4F33-B821-7CA4FEF45BB8";
paths = (
{
closed = 1;
nodes = (
"1382 1200 OFFCURVE",
"1110 1462 OFFCURVE",
"645 1462 CURVE SMOOTH",
"193 1462 LINE",
"193 0 LINE",
"602 0 LINE SMOOTH",
"1106 0 OFFCURVE",
"1382 262 OFFCURVE",
"1382 745 CURVE SMOOTH"
);
},
{
closed = 1;
nodes = (
"1130 380 OFFCURVE",
"954 201 OFFCURVE",
"602 201 CURVE SMOOTH",
"432 201 LINE",
"432 1262 LINE",
"639 1262 LINE SMOOTH",
"966 1262 OFFCURVE",
"1130 1087 OFFCURVE",
"1130 737 CURVE SMOOTH"
);
}
);
width = 1503;
}
);
note = D;
unicode = 0044;
},
{
glyphname = Eth;
lastChange = "2017-12-01 17:48:57 +0000";
layers = (
{
layerId = "2BF40018-41B3-4590-AC2B-A33F7CBCBD7D";
paths = (
{
closed = 1;
nodes = (
"590 0 LINE SMOOTH",
"1082 0 OFFCURVE",
"1352 262 OFFCURVE",
"1352 745 CURVE SMOOTH",
"1352 1201 OFFCURVE",
"1084 1462 OFFCURVE",
"635 1462 CURVE SMOOTH",
"201 1462 LINE",
"201 799 LINE",
"47 799 LINE",
"47 649 LINE",
"201 649 LINE",
"201 0 LINE"
);
},
{
closed = 1;
nodes = (
"371 649 LINE",
"750 649 LINE",
"750 799 LINE",
"371 799 LINE",
"371 1315 LINE",
"602 1315 LINE SMOOTH",
"981 1315 OFFCURVE",
"1171 1123 OFFCURVE",
"1171 739 CURVE SMOOTH",
"1171 344 OFFCURVE",
"968 147 OFFCURVE",
"561 147 CURVE SMOOTH",
"371 147 LINE"
);
}
);
width = 1479;
},
{
layerId = "BF02A00B-9E13-4540-898E-0A41FC656544";
paths = (
{
closed = 1;
nodes = (
"598 0 LINE SMOOTH",
"1115 0 OFFCURVE",
"1397 264 OFFCURVE",
"1397 745 CURVE SMOOTH",
"1397 1197 OFFCURVE",
"1120 1462 OFFCURVE",
"643 1462 CURVE SMOOTH",
"184 1462 LINE",
"184 850 LINE",
"47 850 LINE",
"47 596 LINE",
"184 596 LINE",
"184 0 LINE"
);
},
{
closed = 1;
nodes = (
"494 596 LINE",
"731 596 LINE",
"731 850 LINE",
"494 850 LINE",
"494 1208 LINE",
"657 1208 LINE SMOOTH",
"937 1208 OFFCURVE",
"1075 1046 OFFCURVE",
"1075 737 CURVE SMOOTH",
"1075 416 OFFCURVE",
"925 256 OFFCURVE",
"625 256 CURVE SMOOTH",
"494 256 LINE"
);
}
);
width = 1516;
},
{
layerId = "E5E970AF-9D0D-497A-BF30-FBE5F35FA9E4";
paths = (
{
closed = 1;
nodes = (
"1317 1213 OFFCURVE",
"1069 1462 OFFCURVE",
"602 1462 CURVE SMOOTH",
"207 1462 LINE",
"207 772 LINE",
"47 772 LINE",
"47 678 LINE",
"207 678 LINE",
"207 0 LINE",
"557 0 LINE SMOOTH",
"1056 0 OFFCURVE",
"1317 254 OFFCURVE",
"1317 745 CURVE SMOOTH"
);
},
{
closed = 1;
nodes = (
"1206 307 OFFCURVE",
"988 90 OFFCURVE",
"551 90 CURVE SMOOTH",
"309 90 LINE",
"309 678 LINE",
"715 678 LINE",
"715 772 LINE",
"309 772 LINE",
"309 1372 LINE",
"578 1372 LINE SMOOTH",
"990 1372 OFFCURVE",
"1206 1160 OFFCURVE",
"1206 741 CURVE SMOOTH"
);
}
);
width = 1466;
},
{
layerId = "BD2371FC-E5C9-4A02-81E0-967D9F93D406";
paths = (
{
closed = 1;
nodes = (
"1399 1215 OFFCURVE",
"1133 1462 OFFCURVE",
"664 1462 CURVE SMOOTH",
"158 1462 LINE",
"158 883 LINE",
"31 883 LINE",
"31 563 LINE",
"158 563 LINE",
"158 0 LINE",
"631 0 LINE SMOOTH",
"1118 0 OFFCURVE",
"1399 274 OFFCURVE",
"1399 762 CURVE SMOOTH"
);
},
{
closed = 1;
nodes = (
"989 461 OFFCURVE",
"881 324 OFFCURVE",
"641 324 CURVE SMOOTH",
"553 324 LINE",
"553 563 LINE",
"764 563 LINE",
"764 883 LINE",
"553 883 LINE",
"553 1143 LINE",
"668 1143 LINE SMOOTH",
"884 1143 OFFCURVE",
"989 1016 OFFCURVE",
"989 748 CURVE SMOOTH"
);
}
);
width = 1503;
},
{
layerId = "57AE6E33-18DE-4F33-B821-7CA4FEF45BB8";
paths = (
{
closed = 1;
nodes = (
"1374 1198 OFFCURVE",
"1102 1462 OFFCURVE",
"639 1462 CURVE SMOOTH",
"193 1462 LINE",
"193 823 LINE",
"47 823 LINE",
"47 623 LINE",
"193 623 LINE",
"193 0 LINE",
"594 0 LINE SMOOTH",
"1098 0 OFFCURVE",
"1374 265 OFFCURVE",
"1374 745 CURVE SMOOTH"
);
},
{
closed = 1;
nodes = (
"1122 380 OFFCURVE",
"945 201 OFFCURVE",
"592 201 CURVE SMOOTH",
"432 201 LINE",
"432 623 LINE",
"739 623 LINE",
"739 823 LINE",
"432 823 LINE",
"432 1262 LINE",
"629 1262 LINE SMOOTH",
"954 1262 OFFCURVE",
"1122 1084 OFFCURVE",
"1122 737 CURVE SMOOTH"
);
}
);
width = 1497;
}
);
note = Eth;
unicode = 00D0;
},
{
glyphname = Dcaron;
lastChange = "2017-12-01 17:48:57 +0000";
layers = (
{
layerId = "2BF40018-41B3-4590-AC2B-A33F7CBCBD7D";
paths = (
{
closed = 1;
nodes = (
"606 0 LINE SMOOTH",
"1098 0 OFFCURVE",
"1368 262 OFFCURVE",
"1368 745 CURVE SMOOTH",
"1368 1197 OFFCURVE",
"1104 1462 OFFCURVE",
"649 1462 CURVE SMOOTH",
"201 1462 LINE",
"201 0 LINE"
);
},
{
closed = 1;
nodes = (
"371 1315 LINE",
"618 1315 LINE SMOOTH",
"995 1315 OFFCURVE",
"1188 1120 OFFCURVE",
"1188 739 CURVE SMOOTH",
"1188 348 OFFCURVE",
"983 147 OFFCURVE",
"578 147 CURVE SMOOTH",
"371 147 LINE"
);
},
{
closed = 1;
nodes = (
"774 1579 LINE",
"805 1637 OFFCURVE",
"868 1715 OFFCURVE",
"964 1814 CURVE SMOOTH",
"1030 1882 LINE",
"1030 1907 LINE",
"911 1907 LINE",
"850 1868 OFFCURVE",
"777 1805 OFFCURVE",
"690 1718 CURVE",
"620 1795 OFFCURVE",
"547 1858 OFFCURVE",
"471 1907 CURVE",
"356 1907 LINE",
"356 1882 LINE",
"441 1791 OFFCURVE",
"500 1725 OFFCURVE",
"534 1683 CURVE SMOOTH",
"568 1641 OFFCURVE",
"593 1606 OFFCURVE",
"608 1579 CURVE"
);
}
);
width = 1493;
},
{
layerId = "BF02A00B-9E13-4540-898E-0A41FC656544";
paths = (
{
closed = 1;
nodes = (
"598 0 LINE SMOOTH",
"1115 0 OFFCURVE",
"1397 264 OFFCURVE",
"1397 745 CURVE SMOOTH",
"1397 1197 OFFCURVE",
"1120 1462 OFFCURVE",
"643 1462 CURVE SMOOTH",
"184 1462 LINE",
"184 0 LINE"
);
},
{
closed = 1;
nodes = (
"494 1208 LINE",
"659 1208 LINE SMOOTH",
"936 1208 OFFCURVE",
"1075 1051 OFFCURVE",
"1075 737 CURVE SMOOTH",
"1075 416 OFFCURVE",
"926 256 OFFCURVE",
"627 256 CURVE SMOOTH",
"494 256 LINE"
);
},
{
closed = 1;
nodes = (
"903 1579 LINE",
"944 1646 OFFCURVE",
"1047 1768 OFFCURVE",
"1159 1880 CURVE",
"1159 1907 LINE",
"956 1907 LINE",
"856 1848 OFFCURVE",
"778 1789 OFFCURVE",
"722 1731 CURVE",
"667 1786 OFFCURVE",
"591 1845 OFFCURVE",
"493 1907 CURVE",
"290 1907 LINE",
"290 1880 LINE",
"369 1798 OFFCURVE",
"427 1735 OFFCURVE",
"463 1692 CURVE SMOOTH",
"499 1648 OFFCURVE",
"527 1610 OFFCURVE",
"546 1579 CURVE"
);
}
);
width = 1516;
},
{
layerId = "E5E970AF-9D0D-497A-BF30-FBE5F35FA9E4";
paths = (
{
closed = 1;
nodes = (
"1317 1213 OFFCURVE",
"1069 1462 OFFCURVE",
"602 1462 CURVE SMOOTH",
"207 1462 LINE",
"207 0 LINE",
"557 0 LINE SMOOTH",
"1056 0 OFFCURVE",
"1317 254 OFFCURVE",
"1317 745 CURVE SMOOTH"
);
},
{
closed = 1;
nodes = (
"1206 307 OFFCURVE",
"988 90 OFFCURVE",
"551 90 CURVE SMOOTH",
"309 90 LINE",
"309 1372 LINE",
"578 1372 LINE SMOOTH",
"990 1372 OFFCURVE",
"1206 1160 OFFCURVE",
"1206 741 CURVE SMOOTH"
);
},
{
closed = 1;
nodes = (
"891 1907 LINE",
"816 1845 OFFCURVE",
"742 1776 OFFCURVE",
"670 1700 CURVE",
"599 1775 OFFCURVE",
"525 1844 OFFCURVE",
"449 1907 CURVE",
"379 1907 LINE",
"379 1890 LINE",
"490 1768 OFFCURVE",
"570 1664 OFFCURVE",
"621 1579 CURVE",
"719 1579 LINE",
"767 1661 OFFCURVE",
"848 1765 OFFCURVE",
"961 1890 CURVE",
"961 1907 LINE"
);
}
);
width = 1446;
},
{
layerId = "BD2371FC-E5C9-4A02-81E0-967D9F93D406";
paths = (
{
closed = 1;
nodes = (
"1399 1215 OFFCURVE",
"1133 1462 OFFCURVE",
"664 1462 CURVE SMOOTH",
"158 1462 LINE",
"158 0 LINE",
"631 0 LINE SMOOTH",
"1118 0 OFFCURVE",
"1399 274 OFFCURVE",
"1399 762 CURVE SMOOTH"
);
},
{
closed = 1;
nodes = (
"989 461 OFFCURVE",
"881 324 OFFCURVE",
"641 324 CURVE SMOOTH",
"553 324 LINE",
"553 1143 LINE",
"668 1143 LINE SMOOTH",
"884 1143 OFFCURVE",
"989 1016 OFFCURVE",
"989 748 CURVE SMOOTH"
);
},
{
closed = 1;
nodes = (
"872 1875 OFFCURVE",
"805 1825 OFFCURVE",
"727 1757 CURVE",
"644 1828 OFFCURVE",
"579 1878 OFFCURVE",
"533 1907 CURVE",
"275 1907 LINE",
"275 1878 LINE",
"376 1779 OFFCURVE",
"481 1659 OFFCURVE",
"533 1579 CURVE",
"926 1579 LINE",
"985 1666 OFFCURVE",
"1094 1790 OFFCURVE",
"1182 1878 CURVE",
"1182 1907 LINE",
"928 1907 LINE"
);
}
);
width = 1503;
},
{
components = (
{
name = D;
},
{
name = caron;
transform = "{1, 0, 0, 1, 96, 338}";
}
);
layerId = "57AE6E33-18DE-4F33-B821-7CA4FEF45BB8";
width = 1503;
}
);
note = Dcaron;
unicode = 010E;
},
{
glyphname = Dcroat;
lastChange = "2017-12-01 17:48:57 +0000";
layers = (
{
layerId = "2BF40018-41B3-4590-AC2B-A33F7CBCBD7D";
paths = (
{
closed = 1;
nodes = (
"590 0 LINE SMOOTH",
"1082 0 OFFCURVE",
"1352 262 OFFCURVE",
"1352 745 CURVE SMOOTH",
"1352 1201 OFFCURVE",
"1084 1462 OFFCURVE",
"635 1462 CURVE SMOOTH",
"201 1462 LINE",
"201 799 LINE",
"47 799 LINE",
"47 649 LINE",
"201 649 LINE",
"201 0 LINE"
);
},
{
closed = 1;
nodes = (
"371 649 LINE",
"750 649 LINE",
"750 799 LINE",
"371 799 LINE",
"371 1315 LINE",
"602 1315 LINE SMOOTH",
"981 1315 OFFCURVE",
"1171 1123 OFFCURVE",
"1171 739 CURVE SMOOTH",
"1171 344 OFFCURVE",
"968 147 OFFCURVE",
"561 147 CURVE SMOOTH",
"371 147 LINE"
);
}
);
width = 1479;
},
{
layerId = "BF02A00B-9E13-4540-898E-0A41FC656544";
paths = (
{
closed = 1;
nodes = (
"598 0 LINE SMOOTH",
"1115 0 OFFCURVE",
"1397 264 OFFCURVE",
"1397 745 CURVE SMOOTH",
"1397 1197 OFFCURVE",
"1120 1462 OFFCURVE",
"643 1462 CURVE SMOOTH",
"184 1462 LINE",
"184 850 LINE",
"47 850 LINE",
"47 596 LINE",
"184 596 LINE",
"184 0 LINE"
);
},
{
closed = 1;
nodes = (
"494 596 LINE",
"731 596 LINE",
"731 850 LINE",
"494 850 LINE",
"494 1208 LINE",
"657 1208 LINE SMOOTH",
"937 1208 OFFCURVE",
"1075 1046 OFFCURVE",
"1075 737 CURVE SMOOTH",
"1075 416 OFFCURVE",
"925 256 OFFCURVE",
"625 256 CURVE SMOOTH",
"494 256 LINE"
);
}
);
width = 1516;
},
{
layerId = "E5E970AF-9D0D-497A-BF30-FBE5F35FA9E4";
paths = (
{
closed = 1;
nodes = (
"1317 1213 OFFCURVE",
"1069 1462 OFFCURVE",
"602 1462 CURVE SMOOTH",
"207 1462 LINE",
"207 772 LINE",
"47 772 LINE",
"47 678 LINE",
"207 678 LINE",
"207 0 LINE",
"557 0 LINE SMOOTH",
"1056 0 OFFCURVE",
"1317 254 OFFCURVE",
"1317 745 CURVE SMOOTH"
);
},
{
closed = 1;
nodes = (
"1206 307 OFFCURVE",
"988 90 OFFCURVE",
"551 90 CURVE SMOOTH",
"309 90 LINE",
"309 678 LINE",
"715 678 LINE",
"715 772 LINE",
"309 772 LINE",
"309 1372 LINE",
"578 1372 LINE SMOOTH",
"990 1372 OFFCURVE",
"1206 1160 OFFCURVE",
"1206 741 CURVE SMOOTH"
);
}
);
width = 1466;
},
{
layerId = "BD2371FC-E5C9-4A02-81E0-967D9F93D406";
paths = (
{
closed = 1;
nodes = (
"1399 1215 OFFCURVE",
"1133 1462 OFFCURVE",
"664 1462 CURVE SMOOTH",
"158 1462 LINE",
"158 883 LINE",
"31 883 LINE",
"31 563 LINE",
"158 563 LINE",
"158 0 LINE",
"631 0 LINE SMOOTH",
"1118 0 OFFCURVE",
"1399 274 OFFCURVE",
"1399 762 CURVE SMOOTH"
);
},
{
closed = 1;
nodes = (
"989 461 OFFCURVE",
"881 324 OFFCURVE",
"641 324 CURVE SMOOTH",
"553 324 LINE",
"553 563 LINE",
"764 563 LINE",
"764 883 LINE",
"553 883 LINE",
"553 1143 LINE",
"668 1143 LINE SMOOTH",
"884 1143 OFFCURVE",
"989 1016 OFFCURVE",
"989 748 CURVE SMOOTH"
);
}
);
width = 1503;
},
{
components = (
{
name = Eth;
}
);
layerId = "57AE6E33-18DE-4F33-B821-7CA4FEF45BB8";
width = 1497;
}
);
note = Dcroat;
unicode = 0110;
},
{
glyphname = E;
lastChange = "2017-12-07 15:40:37 +0000";
layers = (
{
layerId = "2BF40018-41B3-4590-AC2B-A33F7CBCBD7D";
paths = (
{
closed = 1;
nodes = (
"1016 0 LINE",
"1016 152 LINE",
"371 152 LINE",
"371 690 LINE",
"977 690 LINE",
"977 840 LINE",
"371 840 LINE",
"371 1311 LINE",
"1016 1311 LINE",
"1016 1462 LINE",
"201 1462 LINE",
"201 0 LINE"
);
}
);
width = 1139;
},
{
layerId = "BF02A00B-9E13-4540-898E-0A41FC656544";
paths = (
{
closed = 1;
nodes = (
"1026 0 LINE",
"1026 256 LINE",
"494 256 LINE",
"494 633 LINE",
"989 633 LINE",
"989 887 LINE",
"494 887 LINE",
"494 1208 LINE",
"1026 1208 LINE",
"1026 1462 LINE",
"184 1462 LINE",
"184 0 LINE"
);
}
);
width = 1147;
},
{
anchors = (
{
name = bottom;
position = "{565, 0}";
},
{
name = ogonek;
position = "{1017, 10}";
},
{
name = top;
position = "{565, 1462}";
},
{
name = topleft;
position = "{20, 1462}";
}
);
layerId = "E5E970AF-9D0D-497A-BF30-FBE5F35FA9E4";
paths = (
{
closed = 1;
nodes = (
"309 94 LINE",
"309 721 LINE",
"967 721 LINE",
"967 815 LINE",
"309 815 LINE",
"309 1368 LINE",
"1006 1368 LINE",
"1006 1462 LINE",
"207 1462 LINE",
"207 0 LINE",
"1006 0 LINE",
"1006 94 LINE"
);
}
);
width = 1130;
},
{
layerId = "BD2371FC-E5C9-4A02-81E0-967D9F93D406";
paths = (
{
closed = 1;
nodes = (
"553 322 LINE",
"553 598 LINE",
"991 598 LINE",
"991 915 LINE",
"553 915 LINE",
"553 1145 LINE",
"1026 1145 LINE",
"1026 1462 LINE",
"158 1462 LINE",
"158 0 LINE",
"1026 0 LINE",
"1026 322 LINE"
);
}
);
width = 1124;
},
{
layerId = "57AE6E33-18DE-4F33-B821-7CA4FEF45BB8";
paths = (
{
closed = 1;
nodes = (
"432 203 LINE",
"432 662 LINE",
"983 662 LINE",
"983 862 LINE",
"432 862 LINE",
"432 1260 LINE",
"1020 1260 LINE",
"1020 1462 LINE",
"193 1462 LINE",
"193 0 LINE",
"1020 0 LINE",
"1020 203 LINE"
);
}
);
width = 1143;
}
);
note = E;
unicode = 0045;
},
{
glyphname = Eacute;
lastChange = "2017-12-01 17:48:57 +0000";
layers = (
{
layerId = "2BF40018-41B3-4590-AC2B-A33F7CBCBD7D";
paths = (
{
closed = 1;
nodes = (
"1016 0 LINE",
"1016 152 LINE",
"371 152 LINE",
"371 690 LINE",
"977 690 LINE",
"977 840 LINE",
"371 840 LINE",
"371 1311 LINE",
"1016 1311 LINE",
"1016 1462 LINE",
"201 1462 LINE",
"201 0 LINE"
);
},
{
closed = 1;
nodes = (
"567 1579 LINE",
"652 1648 OFFCURVE",
"790 1799 OFFCURVE",
"849 1886 CURVE",
"849 1907 LINE",
"647 1907 LINE",
"604 1820 OFFCURVE",
"520 1687 OFFCURVE",
"456 1604 CURVE",
"456 1579 LINE"
);
}
);
width = 1139;
},
{
layerId = "BF02A00B-9E13-4540-898E-0A41FC656544";
paths = (
{
closed = 1;
nodes = (
"1026 0 LINE",
"1026 256 LINE",
"494 256 LINE",
"494 633 LINE",
"989 633 LINE",
"989 887 LINE",
"494 887 LINE",
"494 1208 LINE",
"1026 1208 LINE",
"1026 1462 LINE",
"184 1462 LINE",
"184 0 LINE"
);
},
{
closed = 1;
nodes = (
"627 1579 LINE",
"722 1646 OFFCURVE",
"932 1817 OFFCURVE",
"1001 1886 CURVE",
"1001 1907 LINE",
"659 1907 LINE",
"617 1840 OFFCURVE",
"539 1739 OFFCURVE",
"424 1606 CURVE",
"424 1579 LINE"
);
}
);
width = 1147;
},
{
layerId = "E5E970AF-9D0D-497A-BF30-FBE5F35FA9E4";
paths = (
{
closed = 1;
nodes = (
"309 94 LINE",
"309 721 LINE",
"967 721 LINE",
"967 815 LINE",
"309 815 LINE",
"309 1368 LINE",
"1006 1368 LINE",
"1006 1462 LINE",
"207 1462 LINE",
"207 0 LINE",
"1006 0 LINE",
"1006 94 LINE"
);
},
{
closed = 1;
nodes = (
"533 1579 LINE",
"672 1695 OFFCURVE",
"798 1821 OFFCURVE",
"846 1890 CURVE",
"846 1907 LINE",
"705 1907 LINE",
"670 1843 OFFCURVE",
"560 1700 OFFCURVE",
"463 1595 CURVE",
"463 1579 LINE"
);
}
);
width = 1130;
},
{
layerId = "BD2371FC-E5C9-4A02-81E0-967D9F93D406";
paths = (
{
closed = 1;
nodes = (
"553 322 LINE",
"553 598 LINE",
"991 598 LINE",
"991 915 LINE",
"553 915 LINE",
"553 1145 LINE",
"1026 1145 LINE",
"1026 1462 LINE",
"158 1462 LINE",
"158 0 LINE",
"1026 0 LINE",
"1026 322 LINE"
);
},
{
closed = 1;
nodes = (
"718 1639 OFFCURVE",
"947 1801 OFFCURVE",
"1054 1886 CURVE",
"1054 1907 LINE",
"626 1907 LINE",
"608 1882 OFFCURVE",
"585 1853 OFFCURVE",
"558 1821 CURVE SMOOTH",
"530 1789 OFFCURVE",
"465 1718 OFFCURVE",
"362 1608 CURVE",
"362 1579 LINE",
"622 1579 LINE"
);
}
);
width = 1124;
},
{
components = (
{
name = E;
},
{
name = acute;
transform = "{1, 0, 0, 1, 78, 338}";
}
);
layerId = "57AE6E33-18DE-4F33-B821-7CA4FEF45BB8";
width = 1143;
}
);
note = Eacute;
unicode = 00C9;
},
{
glyphname = Ebreve;
lastChange = "2017-12-01 17:48:57 +0000";
layers = (
{
layerId = "2BF40018-41B3-4590-AC2B-A33F7CBCBD7D";
paths = (
{
closed = 1;
nodes = (
"1016 0 LINE",
"1016 152 LINE",
"371 152 LINE",
"371 690 LINE",
"977 690 LINE",
"977 840 LINE",
"371 840 LINE",
"371 1311 LINE",
"1016 1311 LINE",
"1016 1462 LINE",
"201 1462 LINE",
"201 0 LINE"
);
},
{
closed = 1;
nodes = (
"798 1579 OFFCURVE",
"916 1679 OFFCURVE",
"929 1847 CURVE",
"825 1847 LINE",
"812 1758 OFFCURVE",
"753 1716 OFFCURVE",
"618 1716 CURVE SMOOTH",
"561 1716 OFFCURVE",
"521 1720 OFFCURVE",
"497 1729 CURVE SMOOTH",
"448 1746 OFFCURVE",
"421 1782 OFFCURVE",
"413 1847 CURVE",
"309 1847 LINE",
"321 1672 OFFCURVE",
"427 1579 OFFCURVE",
"614 1579 CURVE SMOOTH"
);
}
);
width = 1139;
},
{
layerId = "BF02A00B-9E13-4540-898E-0A41FC656544";
paths = (
{
closed = 1;
nodes = (
"1026 0 LINE",
"1026 256 LINE",
"494 256 LINE",
"494 633 LINE",
"989 633 LINE",
"989 887 LINE",
"494 887 LINE",
"494 1208 LINE",
"1026 1208 LINE",
"1026 1462 LINE",
"184 1462 LINE",
"184 0 LINE"
);
},
{
closed = 1;
nodes = (
"815 1579 OFFCURVE",
"976 1712 OFFCURVE",
"992 1917 CURVE",
"818 1917 LINE",
"807 1834 OFFCURVE",
"733 1792 OFFCURVE",
"596 1792 CURVE SMOOTH",
"539 1792 OFFCURVE",
"497 1796 OFFCURVE",
"469 1804 CURVE SMOOTH",
"412 1820 OFFCURVE",
"380 1854 OFFCURVE",
"375 1917 CURVE",
"205 1917 LINE",
"216 1709 OFFCURVE",
"362 1579 OFFCURVE",
"594 1579 CURVE SMOOTH"
);
}
);
width = 1147;
},
{
layerId = "E5E970AF-9D0D-497A-BF30-FBE5F35FA9E4";
paths = (
{
closed = 1;
nodes = (
"309 94 LINE",
"309 721 LINE",
"967 721 LINE",
"967 815 LINE",
"309 815 LINE",
"309 1368 LINE",
"1006 1368 LINE",
"1006 1462 LINE",
"207 1462 LINE",
"207 0 LINE",
"1006 0 LINE",
"1006 94 LINE"
);
},
{
closed = 1;
nodes = (
"761 1579 OFFCURVE",
"854 1661 OFFCURVE",
"874 1825 CURVE",
"794 1825 LINE",
"774 1709 OFFCURVE",
"715 1663 OFFCURVE",
"598 1663 CURVE SMOOTH",
"481 1663 OFFCURVE",
"422 1709 OFFCURVE",
"403 1825 CURVE",
"321 1825 LINE",
"336 1661 OFFCURVE",
"427 1579 OFFCURVE",
"596 1579 CURVE SMOOTH"
);
}
);
width = 1130;
},
{
layerId = "BD2371FC-E5C9-4A02-81E0-967D9F93D406";
paths = (
{
closed = 1;
nodes = (
"553 322 LINE",
"553 598 LINE",
"991 598 LINE",
"991 915 LINE",
"553 915 LINE",
"553 1145 LINE",
"1026 1145 LINE",
"1026 1462 LINE",
"158 1462 LINE",
"158 0 LINE",
"1026 0 LINE",
"1026 322 LINE"
);
},
{
closed = 1;
nodes = (
"734 1859 OFFCURVE",
"678 1819 OFFCURVE",
"570 1819 CURVE SMOOTH",
"443 1819 OFFCURVE",
"407 1846 OFFCURVE",
"380 1950 CURVE",
"169 1950 LINE",
"181 1709 OFFCURVE",
"321 1579 OFFCURVE",
"570 1579 CURVE SMOOTH",
"813 1579 OFFCURVE",
"965 1722 OFFCURVE",
"978 1950 CURVE",
"759 1950 LINE"
);
}
);
width = 1124;
},
{
components = (
{
name = E;
},
{
name = breve;
transform = "{1, 0, 0, 1, -1, 338}";
}
);
layerId = "57AE6E33-18DE-4F33-B821-7CA4FEF45BB8";
width = 1143;
}
);
note = Ebreve;
unicode = 0114;
},
{
glyphname = Ecaron;
lastChange = "2017-12-01 17:48:57 +0000";
layers = (
{
layerId = "2BF40018-41B3-4590-AC2B-A33F7CBCBD7D";
paths = (
{
closed = 1;
nodes = (
"1016 0 LINE",
"1016 152 LINE",
"371 152 LINE",
"371 690 LINE",
"977 690 LINE",
"977 840 LINE",
"371 840 LINE",
"371 1311 LINE",
"1016 1311 LINE",
"1016 1462 LINE",
"201 1462 LINE",
"201 0 LINE"
);
},
{
closed = 1;
nodes = (
"702 1579 LINE",
"733 1637 OFFCURVE",
"796 1715 OFFCURVE",
"892 1814 CURVE SMOOTH",
"958 1882 LINE",
"958 1907 LINE",
"839 1907 LINE",
"778 1868 OFFCURVE",
"705 1805 OFFCURVE",
"618 1718 CURVE",
"548 1795 OFFCURVE",
"475 1858 OFFCURVE",
"399 1907 CURVE",
"284 1907 LINE",
"284 1882 LINE",
"369 1791 OFFCURVE",
"428 1725 OFFCURVE",
"462 1683 CURVE SMOOTH",
"496 1641 OFFCURVE",
"521 1606 OFFCURVE",
"536 1579 CURVE"
);
}
);
width = 1139;
},
{
layerId = "BF02A00B-9E13-4540-898E-0A41FC656544";
paths = (
{
closed = 1;
nodes = (
"1026 0 LINE",
"1026 256 LINE",
"494 256 LINE",
"494 633 LINE",
"989 633 LINE",
"989 887 LINE",
"494 887 LINE",
"494 1208 LINE",
"1026 1208 LINE",
"1026 1462 LINE",
"184 1462 LINE",
"184 0 LINE"
);
},
{
closed = 1;
nodes = (
"788 1579 LINE",
"829 1646 OFFCURVE",
"932 1768 OFFCURVE",
"1044 1880 CURVE",
"1044 1907 LINE",
"841 1907 LINE",
"741 1848 OFFCURVE",
"663 1789 OFFCURVE",
"607 1731 CURVE",
"552 1786 OFFCURVE",
"476 1845 OFFCURVE",
"378 1907 CURVE",
"175 1907 LINE",
"175 1880 LINE",
"254 1798 OFFCURVE",
"312 1735 OFFCURVE",
"348 1692 CURVE SMOOTH",
"384 1648 OFFCURVE",
"412 1610 OFFCURVE",
"431 1579 CURVE"
);
}
);
width = 1147;
},
{
layerId = "E5E970AF-9D0D-497A-BF30-FBE5F35FA9E4";
paths = (
{
closed = 1;
nodes = (
"309 94 LINE",
"309 721 LINE",
"967 721 LINE",
"967 815 LINE",
"309 815 LINE",
"309 1368 LINE",
"1006 1368 LINE",
"1006 1462 LINE",
"207 1462 LINE",
"207 0 LINE",
"1006 0 LINE",
"1006 94 LINE"
);
},
{
closed = 1;
nodes = (
"819 1907 LINE",
"744 1845 OFFCURVE",
"670 1776 OFFCURVE",
"598 1700 CURVE",
"527 1775 OFFCURVE",
"453 1844 OFFCURVE",
"377 1907 CURVE",
"307 1907 LINE",
"307 1890 LINE",
"418 1768 OFFCURVE",
"498 1664 OFFCURVE",
"549 1579 CURVE",
"647 1579 LINE",
"695 1661 OFFCURVE",
"776 1765 OFFCURVE",
"889 1890 CURVE",
"889 1907 LINE"
);
}
);
width = 1130;
},
{
layerId = "BD2371FC-E5C9-4A02-81E0-967D9F93D406";
paths = (
{
closed = 1;
nodes = (
"553 322 LINE",
"553 598 LINE",
"991 598 LINE",
"991 915 LINE",
"553 915 LINE",
"553 1145 LINE",
"1026 1145 LINE",
"1026 1462 LINE",
"158 1462 LINE",
"158 0 LINE",
"1026 0 LINE",
"1026 322 LINE"
);
},
{
closed = 1;
nodes = (
"733 1875 OFFCURVE",
"666 1825 OFFCURVE",
"588 1757 CURVE",
"505 1828 OFFCURVE",
"440 1878 OFFCURVE",
"394 1907 CURVE",
"136 1907 LINE",
"136 1878 LINE",
"237 1779 OFFCURVE",
"342 1659 OFFCURVE",
"394 1579 CURVE",
"787 1579 LINE",
"846 1666 OFFCURVE",
"955 1790 OFFCURVE",
"1043 1878 CURVE",
"1043 1907 LINE",
"789 1907 LINE"
);
}
);
width = 1124;
},
{
components = (
{
name = E;
},
{
name = caron;
transform = "{1, 0, 0, 1, 2, 338}";
}
);
layerId = "57AE6E33-18DE-4F33-B821-7CA4FEF45BB8";
width = 1143;
}
);
note = Ecaron;
unicode = 011A;
},
{
glyphname = Ecircumflex;
lastChange = "2017-12-01 17:48:57 +0000";
layers = (
{
layerId = "2BF40018-41B3-4590-AC2B-A33F7CBCBD7D";
paths = (
{
closed = 1;
nodes = (
"1016 0 LINE",
"1016 152 LINE",
"371 152 LINE",
"371 690 LINE",
"977 690 LINE",
"977 840 LINE",
"371 840 LINE",
"371 1311 LINE",
"1016 1311 LINE",
"1016 1462 LINE",
"201 1462 LINE",
"201 0 LINE"
);
},
{
closed = 1;
nodes = (
"378 1579 LINE",
"433 1614 OFFCURVE",
"506 1676 OFFCURVE",
"597 1765 CURVE",
"686 1678 OFFCURVE",
"759 1616 OFFCURVE",
"818 1579 CURVE",
"937 1579 LINE",
"937 1602 LINE",
"854 1689 OFFCURVE",
"794 1754 OFFCURVE",
"758 1799 CURVE SMOOTH",
"721 1843 OFFCURVE",
"696 1879 OFFCURVE",
"681 1907 CURVE",
"515 1907 LINE",
"500 1880 OFFCURVE",
"475 1845 OFFCURVE",
"441 1802 CURVE SMOOTH",
"407 1759 OFFCURVE",
"348 1693 OFFCURVE",
"263 1602 CURVE",
"263 1579 LINE"
);
}
);
width = 1139;
},
{
layerId = "BF02A00B-9E13-4540-898E-0A41FC656544";
paths = (
{
closed = 1;
nodes = (
"1026 0 LINE",
"1026 256 LINE",
"494 256 LINE",
"494 633 LINE",
"989 633 LINE",
"989 887 LINE",
"494 887 LINE",
"494 1208 LINE",
"1026 1208 LINE",
"1026 1462 LINE",
"184 1462 LINE",
"184 0 LINE"
);
},
{
closed = 1;
nodes = (
"378 1579 LINE",
"479 1642 OFFCURVE",
"555 1701 OFFCURVE",
"607 1755 CURVE",
"658 1700 OFFCURVE",
"736 1641 OFFCURVE",
"841 1579 CURVE",
"1044 1579 LINE",
"1044 1606 LINE",
"948 1699 OFFCURVE",
"829 1838 OFFCURVE",
"788 1907 CURVE",
"431 1907 LINE",
"386 1832 OFFCURVE",
"301 1732 OFFCURVE",
"175 1606 CURVE",
"175 1579 LINE"
);
}
);
width = 1147;
},
{
layerId = "E5E970AF-9D0D-497A-BF30-FBE5F35FA9E4";
paths = (
{
closed = 1;
nodes = (
"309 94 LINE",
"309 721 LINE",
"967 721 LINE",
"967 815 LINE",
"309 815 LINE",
"309 1368 LINE",
"1006 1368 LINE",
"1006 1462 LINE",
"207 1462 LINE",
"207 0 LINE",
"1006 0 LINE",
"1006 94 LINE"
);
},
{
closed = 1;
nodes = (
"385 1579 LINE",
"460 1641 OFFCURVE",
"534 1710 OFFCURVE",
"606 1786 CURVE",
"672 1715 OFFCURVE",
"746 1646 OFFCURVE",
"827 1579 CURVE",
"897 1579 LINE",
"897 1595 LINE",
"781 1723 OFFCURVE",
"700 1827 OFFCURVE",
"655 1907 CURVE",
"557 1907 LINE",
"502 1818 OFFCURVE",
"398 1684 OFFCURVE",
"315 1595 CURVE",
"315 1579 LINE"
);
}
);
width = 1130;
},
{
layerId = "BD2371FC-E5C9-4A02-81E0-967D9F93D406";
paths = (
{
closed = 1;
nodes = (
"553 322 LINE",
"553 598 LINE",
"991 598 LINE",
"991 915 LINE",
"553 915 LINE",
"553 1145 LINE",
"1026 1145 LINE",
"1026 1462 LINE",
"158 1462 LINE",
"158 0 LINE",
"1026 0 LINE",
"1026 322 LINE"
);
},
{
closed = 1;
nodes = (
"1058 1608 LINE",
"950 1716 OFFCURVE",
"865 1816 OFFCURVE",
"802 1907 CURVE",
"409 1907 LINE",
"358 1830 OFFCURVE",
"243 1695 OFFCURVE",
"151 1608 CURVE",
"151 1579 LINE",
"409 1579 LINE",
"455 1608 OFFCURVE",
"520 1658 OFFCURVE",
"603 1729 CURVE",
"681 1661 OFFCURVE",
"748 1611 OFFCURVE",
"804 1579 CURVE",
"1058 1579 LINE"
);
}
);
width = 1124;
},
{
components = (
{
name = E;
},
{
name = circumflex;
transform = "{1, 0, 0, 1, -7, 338}";
}
);
layerId = "57AE6E33-18DE-4F33-B821-7CA4FEF45BB8";
width = 1143;
}
);
note = Ecircumflex;
unicode = 00CA;
},
{
glyphname = Edieresis;
lastChange = "2017-12-01 17:48:57 +0000";
layers = (
{
layerId = "2BF40018-41B3-4590-AC2B-A33F7CBCBD7D";
paths = (
{
closed = 1;
nodes = (
"1016 0 LINE",
"1016 152 LINE",
"371 152 LINE",
"371 690 LINE",
"977 690 LINE",
"977 840 LINE",
"371 840 LINE",
"371 1311 LINE",
"1016 1311 LINE",
"1016 1462 LINE",
"201 1462 LINE",
"201 0 LINE"
);
},
{
closed = 1;
nodes = (
"468 1632 OFFCURVE",
"510 1664 OFFCURVE",
"510 1731 CURVE SMOOTH",
"510 1800 OFFCURVE",
"468 1829 OFFCURVE",
"417 1829 CURVE SMOOTH",
"368 1829 OFFCURVE",
"327 1800 OFFCURVE",
"327 1731 CURVE SMOOTH",
"327 1664 OFFCURVE",
"368 1632 OFFCURVE",
"417 1632 CURVE SMOOTH"
);
},
{
closed = 1;
nodes = (
"847 1632 OFFCURVE",
"890 1664 OFFCURVE",
"890 1731 CURVE SMOOTH",
"890 1800 OFFCURVE",
"847 1829 OFFCURVE",
"798 1829 CURVE SMOOTH",
"749 1829 OFFCURVE",
"708 1800 OFFCURVE",
"708 1731 CURVE SMOOTH",
"708 1664 OFFCURVE",
"749 1632 OFFCURVE",
"798 1632 CURVE SMOOTH"
);
}
);
width = 1139;
},
{
layerId = "BF02A00B-9E13-4540-898E-0A41FC656544";
paths = (
{
closed = 1;
nodes = (
"1026 0 LINE",
"1026 256 LINE",
"494 256 LINE",
"494 633 LINE",
"989 633 LINE",
"989 887 LINE",
"494 887 LINE",
"494 1208 LINE",
"1026 1208 LINE",
"1026 1462 LINE",
"184 1462 LINE",
"184 0 LINE"
);
},
{
closed = 1;
nodes = (
"498 1610 OFFCURVE",
"552 1663 OFFCURVE",
"552 1743 CURVE SMOOTH",
"552 1824 OFFCURVE",
"499 1878 OFFCURVE",
"411 1878 CURVE SMOOTH",
"326 1878 OFFCURVE",
"272 1830 OFFCURVE",
"272 1743 CURVE SMOOTH",
"272 1659 OFFCURVE",
"326 1610 OFFCURVE",
"411 1610 CURVE SMOOTH"
);
},
{
closed = 1;
nodes = (
"901 1610 OFFCURVE",
"958 1662 OFFCURVE",
"958 1743 CURVE SMOOTH",
"958 1827 OFFCURVE",
"903 1878 OFFCURVE",
"816 1878 CURVE SMOOTH",
"736 1878 OFFCURVE",
"675 1836 OFFCURVE",
"675 1743 CURVE SMOOTH",
"675 1652 OFFCURVE",
"736 1610 OFFCURVE",
"816 1610 CURVE SMOOTH"
);
}
);
width = 1147;
},
{
layerId = "E5E970AF-9D0D-497A-BF30-FBE5F35FA9E4";
paths = (
{
closed = 1;
nodes = (
"309 94 LINE",
"309 721 LINE",
"967 721 LINE",
"967 815 LINE",
"309 815 LINE",
"309 1368 LINE",
"1006 1368 LINE",
"1006 1462 LINE",
"207 1462 LINE",
"207 0 LINE",
"1006 0 LINE",
"1006 94 LINE"
);
},
{
closed = 1;
nodes = (
"354 1670 OFFCURVE",
"375 1641 OFFCURVE",
"417 1641 CURVE SMOOTH",
"460 1641 OFFCURVE",
"481 1670 OFFCURVE",
"481 1727 CURVE SMOOTH",
"481 1784 OFFCURVE",
"460 1813 OFFCURVE",
"417 1813 CURVE SMOOTH",
"374 1813 OFFCURVE",
"354 1788 OFFCURVE",
"354 1727 CURVE SMOOTH"
);
},
{
closed = 1;
nodes = (
"735 1670 OFFCURVE",
"756 1641 OFFCURVE",
"798 1641 CURVE SMOOTH",
"841 1641 OFFCURVE",
"862 1670 OFFCURVE",
"862 1727 CURVE SMOOTH",
"862 1784 OFFCURVE",
"841 1813 OFFCURVE",
"798 1813 CURVE SMOOTH",
"755 1813 OFFCURVE",
"735 1788 OFFCURVE",
"735 1727 CURVE SMOOTH"
);
}
);
width = 1130;
},
{
layerId = "BD2371FC-E5C9-4A02-81E0-967D9F93D406";
paths = (
{
closed = 1;
nodes = (
"553 322 LINE",
"553 598 LINE",
"991 598 LINE",
"991 915 LINE",
"553 915 LINE",
"553 1145 LINE",
"1026 1145 LINE",
"1026 1462 LINE",
"158 1462 LINE",
"158 0 LINE",
"1026 0 LINE",
"1026 322 LINE"
);
},
{
closed = 1;
nodes = (
"187 1652 OFFCURVE",
"253 1595 OFFCURVE",
"357 1595 CURVE SMOOTH",
"462 1595 OFFCURVE",
"529 1656 OFFCURVE",
"529 1751 CURVE SMOOTH",
"529 1848 OFFCURVE",
"462 1909 OFFCURVE",
"357 1909 CURVE SMOOTH",
"253 1909 OFFCURVE",
"187 1851 OFFCURVE",
"187 1751 CURVE SMOOTH"
);
},
{
closed = 1;
nodes = (
"666 1654 OFFCURVE",
"730 1595 OFFCURVE",
"838 1595 CURVE SMOOTH",
"945 1595 OFFCURVE",
"1011 1656 OFFCURVE",
"1011 1751 CURVE SMOOTH",
"1011 1847 OFFCURVE",
"945 1909 OFFCURVE",
"838 1909 CURVE SMOOTH",
"731 1909 OFFCURVE",
"666 1851 OFFCURVE",
"666 1751 CURVE SMOOTH"
);
}
);
width = 1124;
},
{
components = (
{
name = E;
},
{
name = dieresis;
transform = "{1, 0, 0, 1, 4, 338}";
}
);
layerId = "57AE6E33-18DE-4F33-B821-7CA4FEF45BB8";
width = 1143;
}
);
note = Edieresis;
unicode = 00CB;
},
{
glyphname = Edotaccent;
lastChange = "2017-12-01 17:48:57 +0000";
layers = (
{
layerId = "2BF40018-41B3-4590-AC2B-A33F7CBCBD7D";
paths = (
{
closed = 1;
nodes = (
"1016 0 LINE",
"1016 152 LINE",
"371 152 LINE",
"371 690 LINE",
"977 690 LINE",
"977 840 LINE",
"371 840 LINE",
"371 1311 LINE",
"1016 1311 LINE",
"1016 1462 LINE",
"201 1462 LINE",
"201 0 LINE"
);
},
{
closed = 1;
nodes = (
"680 1591 OFFCURVE",
"725 1627 OFFCURVE",
"725 1702 CURVE SMOOTH",
"725 1777 OFFCURVE",
"680 1812 OFFCURVE",
"627 1812 CURVE SMOOTH",
"571 1812 OFFCURVE",
"529 1778 OFFCURVE",
"529 1702 CURVE SMOOTH",
"529 1627 OFFCURVE",
"571 1591 OFFCURVE",
"627 1591 CURVE SMOOTH"
);
}
);
width = 1139;
},
{
layerId = "BF02A00B-9E13-4540-898E-0A41FC656544";
paths = (
{
closed = 1;
nodes = (
"1026 0 LINE",
"1026 256 LINE",
"494 256 LINE",
"494 633 LINE",
"989 633 LINE",
"989 887 LINE",
"494 887 LINE",
"494 1208 LINE",
"1026 1208 LINE",
"1026 1462 LINE",
"184 1462 LINE",
"184 0 LINE"
);
},
{
closed = 1;
nodes = (
"727 1566 OFFCURVE",
"782 1621 OFFCURVE",
"782 1716 CURVE SMOOTH",
"782 1815 OFFCURVE",
"727 1865 OFFCURVE",
"616 1865 CURVE SMOOTH",
"505 1865 OFFCURVE",
"450 1815 OFFCURVE",
"450 1716 CURVE SMOOTH",
"450 1616 OFFCURVE",
"505 1566 OFFCURVE",
"616 1566 CURVE SMOOTH"
);
}
);
width = 1147;
},
{
layerId = "E5E970AF-9D0D-497A-BF30-FBE5F35FA9E4";
paths = (
{
closed = 1;
nodes = (
"309 94 LINE",
"309 721 LINE",
"967 721 LINE",
"967 815 LINE",
"309 815 LINE",
"309 1368 LINE",
"1006 1368 LINE",
"1006 1462 LINE",
"207 1462 LINE",
"207 0 LINE",
"1006 0 LINE",
"1006 94 LINE"
);
},
{
closed = 1;
nodes = (
"543 1633 OFFCURVE",
"564 1601 OFFCURVE",
"607 1601 CURVE SMOOTH",
"648 1601 OFFCURVE",
"672 1638 OFFCURVE",
"672 1698 CURVE SMOOTH",
"672 1759 OFFCURVE",
"648 1794 OFFCURVE",
"607 1794 CURVE SMOOTH",
"564 1794 OFFCURVE",
"543 1762 OFFCURVE",
"543 1698 CURVE SMOOTH"
);
}
);
width = 1130;
},
{
layerId = "BD2371FC-E5C9-4A02-81E0-967D9F93D406";
paths = (
{
closed = 1;
nodes = (
"553 322 LINE",
"553 598 LINE",
"991 598 LINE",
"991 915 LINE",
"553 915 LINE",
"553 1145 LINE",
"1026 1145 LINE",
"1026 1462 LINE",
"158 1462 LINE",
"158 0 LINE",
"1026 0 LINE",
"1026 322 LINE"
);
},
{
closed = 1;
nodes = (
"387 1609 OFFCURVE",
"456 1552 OFFCURVE",
"594 1552 CURVE SMOOTH",
"733 1552 OFFCURVE",
"803 1609 OFFCURVE",
"803 1724 CURVE SMOOTH",
"803 1839 OFFCURVE",
"739 1898 OFFCURVE",
"594 1898 CURVE SMOOTH",
"449 1898 OFFCURVE",
"387 1841 OFFCURVE",
"387 1724 CURVE SMOOTH"
);
}
);
width = 1124;
},
{
components = (
{
name = E;
},
{
name = dotaccent;
transform = "{1, 0, 0, 1, 334, 309}";
}
);
layerId = "57AE6E33-18DE-4F33-B821-7CA4FEF45BB8";
width = 1143;
}
);
note = Edotaccent;
unicode = 0116;
},
{
glyphname = Egrave;
lastChange = "2017-12-01 17:48:57 +0000";
layers = (
{
layerId = "2BF40018-41B3-4590-AC2B-A33F7CBCBD7D";
paths = (
{
closed = 1;
nodes = (
"1016 0 LINE",
"1016 152 LINE",
"371 152 LINE",
"371 690 LINE",
"977 690 LINE",
"977 840 LINE",
"371 840 LINE",
"371 1311 LINE",
"1016 1311 LINE",
"1016 1462 LINE",
"201 1462 LINE",
"201 0 LINE"
);
},
{
closed = 1;
nodes = (
"713 1579 LINE",
"713 1604 LINE",
"654 1675 OFFCURVE",
"566 1815 OFFCURVE",
"523 1907 CURVE",
"320 1907 LINE",
"320 1886 LINE",
"373 1802 OFFCURVE",
"516 1648 OFFCURVE",
"603 1579 CURVE"
);
}
);
width = 1139;
},
{
layerId = "BF02A00B-9E13-4540-898E-0A41FC656544";
paths = (
{
closed = 1;
nodes = (
"1026 0 LINE",
"1026 256 LINE",
"494 256 LINE",
"494 633 LINE",
"989 633 LINE",
"989 887 LINE",
"494 887 LINE",
"494 1208 LINE",
"1026 1208 LINE",
"1026 1462 LINE",
"184 1462 LINE",
"184 0 LINE"
);
},
{
closed = 1;
nodes = (
"836 1579 LINE",
"836 1606 LINE",
"721 1739 OFFCURVE",
"643 1840 OFFCURVE",
"601 1907 CURVE",
"259 1907 LINE",
"259 1886 LINE",
"350 1798 OFFCURVE",
"550 1638 OFFCURVE",
"634 1579 CURVE"
);
}
);
width = 1147;
},
{
layerId = "E5E970AF-9D0D-497A-BF30-FBE5F35FA9E4";
paths = (
{
closed = 1;
nodes = (
"309 94 LINE",
"309 721 LINE",
"967 721 LINE",
"967 815 LINE",
"309 815 LINE",
"309 1368 LINE",
"1006 1368 LINE",
"1006 1462 LINE",
"207 1462 LINE",
"207 0 LINE",
"1006 0 LINE",
"1006 94 LINE"
);
},
{
closed = 1;
nodes = (
"604 1696 OFFCURVE",
"491 1843 OFFCURVE",
"456 1907 CURVE",
"314 1907 LINE",
"314 1890 LINE",
"358 1827 OFFCURVE",
"500 1684 OFFCURVE",
"628 1579 CURVE",
"697 1579 LINE",
"697 1595 LINE"
);
}
);
width = 1130;
},
{
layerId = "BD2371FC-E5C9-4A02-81E0-967D9F93D406";
paths = (
{
closed = 1;
nodes = (
"553 322 LINE",
"553 598 LINE",
"991 598 LINE",
"991 915 LINE",
"553 915 LINE",
"553 1145 LINE",
"1026 1145 LINE",
"1026 1462 LINE",
"158 1462 LINE",
"158 0 LINE",
"1026 0 LINE",
"1026 322 LINE"
);
},
{
closed = 1;
nodes = (
"846 1608 LINE",
"787 1674 LINE SMOOTH",
"686 1783 OFFCURVE",
"619 1860 OFFCURVE",
"584 1907 CURVE",
"154 1907 LINE",
"154 1886 LINE",
"279 1787 OFFCURVE",
"494 1638 OFFCURVE",
"586 1579 CURVE",
"846 1579 LINE"
);
}
);
width = 1124;
},
{
components = (
{
name = E;
},
{
name = grave;
transform = "{1, 0, 0, 1, -73, 338}";
}
);
layerId = "57AE6E33-18DE-4F33-B821-7CA4FEF45BB8";
width = 1143;
}
);
note = Egrave;
unicode = 00C8;
},
{
glyphname = Emacron;
lastChange = "2017-12-01 17:48:57 +0000";
layers = (
{
layerId = "2BF40018-41B3-4590-AC2B-A33F7CBCBD7D";
paths = (
{
closed = 1;
nodes = (
"1016 0 LINE",
"1016 152 LINE",
"371 152 LINE",
"371 690 LINE",
"977 690 LINE",
"977 840 LINE",
"371 840 LINE",
"371 1311 LINE",
"1016 1311 LINE",
"1016 1462 LINE",
"201 1462 LINE",
"201 0 LINE"
);
},
{
closed = 1;
nodes = (
"919 1579 LINE",
"919 1716 LINE",
"319 1716 LINE",
"319 1579 LINE"
);
}
);
width = 1139;
},
{
layerId = "BF02A00B-9E13-4540-898E-0A41FC656544";
paths = (
{
closed = 1;
nodes = (
"1026 0 LINE",
"1026 256 LINE",
"494 256 LINE",
"494 633 LINE",
"989 633 LINE",
"989 887 LINE",
"494 887 LINE",
"494 1208 LINE",
"1026 1208 LINE",
"1026 1462 LINE",
"184 1462 LINE",
"184 0 LINE"
);
},
{
closed = 1;
nodes = (
"952 1579 LINE",
"952 1790 LINE",
"274 1790 LINE",
"274 1579 LINE"
);
}
);
width = 1147;
},
{
layerId = "E5E970AF-9D0D-497A-BF30-FBE5F35FA9E4";
paths = (
{
closed = 1;
nodes = (
"309 94 LINE",
"309 721 LINE",
"967 721 LINE",
"967 815 LINE",
"309 815 LINE",
"309 1368 LINE",
"1006 1368 LINE",
"1006 1462 LINE",
"207 1462 LINE",
"207 0 LINE",
"1006 0 LINE",
"1006 94 LINE"
);
},
{
closed = 1;
nodes = (
"877 1589 LINE",
"877 1671 LINE",
"322 1671 LINE",
"322 1589 LINE"
);
}
);
width = 1130;
},
{
layerId = "BD2371FC-E5C9-4A02-81E0-967D9F93D406";
paths = (
{
closed = 1;
nodes = (
"553 322 LINE",
"553 598 LINE",
"991 598 LINE",
"991 915 LINE",
"553 915 LINE",
"553 1145 LINE",
"1026 1145 LINE",
"1026 1462 LINE",
"158 1462 LINE",
"158 0 LINE",
"1026 0 LINE",
"1026 322 LINE"
);
},
{
closed = 1;
nodes = (
"954 1579 LINE",
"954 1815 LINE",
"227 1815 LINE",
"227 1579 LINE"
);
}
);
width = 1124;
},
{
components = (
{
name = E;
},
{
name = macron;
transform = "{1, 0, 0, 1, 4, 338}";
}
);
layerId = "57AE6E33-18DE-4F33-B821-7CA4FEF45BB8";
width = 1143;
}
);
note = Emacron;
unicode = 0112;
},
{
glyphname = Eogonek;
lastChange = "2017-12-07 15:40:37 +0000";
layers = (
{
layerId = "2BF40018-41B3-4590-AC2B-A33F7CBCBD7D";
paths = (
{
closed = 1;
nodes = (
"1016 0 LINE",
"1016 152 LINE",
"371 152 LINE",
"371 690 LINE",
"977 690 LINE",
"977 840 LINE",
"371 840 LINE",
"371 1311 LINE",
"1016 1311 LINE",
"1016 1462 LINE",
"201 1462 LINE",
"201 0 LINE"
);
},
{
closed = 1;
nodes = (
"911 -446 OFFCURVE",
"953 -440 OFFCURVE",
"996 -428 CURVE",
"996 -319 LINE",
"959 -328 OFFCURVE",
"927 -332 OFFCURVE",
"899 -332 CURVE SMOOTH",
"836 -332 OFFCURVE",
"805 -301 OFFCURVE",
"805 -238 CURVE SMOOTH",
"805 -154 OFFCURVE",
"851 -88 OFFCURVE",
"942 0 CURVE",
"822 0 LINE",
"726 -71 OFFCURVE",
"664 -165 OFFCURVE",
"664 -258 CURVE SMOOTH",
"664 -383 OFFCURVE",
"733 -446 OFFCURVE",
"871 -446 CURVE SMOOTH"
);
}
);
width = 1139;
},
{
color = 2;
layerId = "BF02A00B-9E13-4540-898E-0A41FC656544";
paths = (
{
closed = 1;
nodes = (
"1026 0 LINE",
"1026 256 LINE",
"494 256 LINE",
"494 633 LINE",
"989 633 LINE",
"989 887 LINE",
"494 887 LINE",
"494 1208 LINE",
"1026 1208 LINE",
"1026 1462 LINE",
"184 1462 LINE",
"184 0 LINE"
);
},
{
closed = 1;
nodes = (
"874 -492 OFFCURVE",
"926 -484 OFFCURVE",
"981 -469 CURVE",
"981 -291 LINE",
"941 -303 OFFCURVE",
"903 -309 OFFCURVE",
"866 -309 CURVE SMOOTH",
"819 -309 OFFCURVE",
"786 -283 OFFCURVE",
"786 -227 CURVE SMOOTH",
"786 -158 OFFCURVE",
"841 -88 OFFCURVE",
"934 0 CURVE",
"755 0 LINE",
"616 -103 OFFCURVE",
"575 -173 OFFCURVE",
"575 -262 CURVE SMOOTH",
"575 -399 OFFCURVE",
"674 -492 OFFCURVE",
"825 -492 CURVE SMOOTH"
);
}
);
width = 1147;
},
{
anchors = (
{
name = top;
position = "{565, 1462}";
}
);
layerId = "E5E970AF-9D0D-497A-BF30-FBE5F35FA9E4";
paths = (
{
closed = 1;
nodes = (
"309 94 LINE",
"309 721 LINE",
"967 721 LINE",
"967 815 LINE",
"309 815 LINE",
"309 1368 LINE",
"1006 1368 LINE",
"1006 1462 LINE",
"207 1462 LINE",
"207 0 LINE",
"1006 0 LINE",
"1006 94 LINE"
);
},
{
closed = 1;
nodes = (
"754 -152 OFFCURVE",
"801 -84 OFFCURVE",
"897 0 CURVE",
"807 0 LINE",
"711 -75 OFFCURVE",
"655 -171 OFFCURVE",
"655 -264 CURVE SMOOTH",
"655 -380 OFFCURVE",
"726 -446 OFFCURVE",
"838 -446 CURVE SMOOTH",
"881 -446 OFFCURVE",
"915 -441 OFFCURVE",
"942 -430 CURVE",
"942 -346 LINE",
"920 -354 OFFCURVE",
"893 -358 OFFCURVE",
"860 -358 CURVE SMOOTH",
"789 -358 OFFCURVE",
"754 -321 OFFCURVE",
"754 -248 CURVE SMOOTH"
);
}
);
width = 1130;
},
{
layerId = "BD2371FC-E5C9-4A02-81E0-967D9F93D406";
paths = (
{
closed = 1;
nodes = (
"553 322 LINE",
"553 598 LINE",
"991 598 LINE",
"991 915 LINE",
"553 915 LINE",
"553 1145 LINE",
"1026 1145 LINE",
"1026 1462 LINE",
"158 1462 LINE",
"158 0 LINE",
"1026 0 LINE",
"1026 322 LINE"
);
},
{
closed = 1;
nodes = (
"758 -173 OFFCURVE",
"767 -146 OFFCURVE",
"785 -117 CURVE SMOOTH",
"803 -88 OFFCURVE",
"838 -49 OFFCURVE",
"891 0 CURVE",
"678 0 LINE",
"553 -88 OFFCURVE",
"504 -168 OFFCURVE",
"504 -260 CURVE SMOOTH",
"504 -397 OFFCURVE",
"617 -492 OFFCURVE",
"780 -492 CURVE SMOOTH",
"841 -492 OFFCURVE",
"899 -483 OFFCURVE",
"954 -465 CURVE",
"954 -244 LINE",
"922 -259 OFFCURVE",
"883 -266 OFFCURVE",
"836 -266 CURVE SMOOTH",
"784 -266 OFFCURVE",
"758 -244 OFFCURVE",
"758 -199 CURVE SMOOTH"
);
}
);
width = 1124;
},
{
components = (
{
name = E;
},
{
name = ogonek;
transform = "{1, 0, 0, 1, 596, 0}";
}
);
layerId = "57AE6E33-18DE-4F33-B821-7CA4FEF45BB8";
width = 1143;
}
);
note = Eogonek;
unicode = 0118;
},
{
glyphname = F;
lastChange = "2017-12-07 15:40:37 +0000";
layers = (
{
layerId = "2BF40018-41B3-4590-AC2B-A33F7CBCBD7D";
paths = (
{
closed = 1;
nodes = (
"371 0 LINE",
"371 625 LINE",
"977 625 LINE",
"977 776 LINE",
"371 776 LINE",
"371 1311 LINE",
"1016 1311 LINE",
"1016 1462 LINE",
"201 1462 LINE",
"201 0 LINE"
);
}
);
width = 1057;
},
{
layerId = "BF02A00B-9E13-4540-898E-0A41FC656544";
paths = (
{
closed = 1;
nodes = (
"489 0 LINE",
"489 578 LINE",
"985 578 LINE",
"985 831 LINE",
"489 831 LINE",
"489 1208 LINE",
"1022 1208 LINE",
"1022 1462 LINE",
"184 1462 LINE",
"184 0 LINE"
);
}
);
width = 1124;
},
{
anchors = (
{
name = bottom;
position = "{514, 0}";
},
{
name = top;
position = "{514, 1462}";
}
);
layerId = "E5E970AF-9D0D-497A-BF30-FBE5F35FA9E4";
paths = (
{
closed = 1;
nodes = (
"969 653 LINE",
"969 748 LINE",
"309 748 LINE",
"309 1368 LINE",
"1008 1368 LINE",
"1008 1462 LINE",
"207 1462 LINE",
"207 0 LINE",
"309 0 LINE",
"309 653 LINE"
);
}
);
width = 1028;
},
{
layerId = "BD2371FC-E5C9-4A02-81E0-967D9F93D406";
paths = (
{
closed = 1;
nodes = (
"985 549 LINE",
"985 866 LINE",
"547 866 LINE",
"547 1145 LINE",
"1022 1145 LINE",
"1022 1462 LINE",
"158 1462 LINE",
"158 0 LINE",
"547 0 LINE",
"547 549 LINE"
);
}
);
width = 1104;
},
{
layerId = "57AE6E33-18DE-4F33-B821-7CA4FEF45BB8";
paths = (
{
closed = 1;
nodes = (
"981 600 LINE",
"981 803 LINE",
"430 803 LINE",
"430 1260 LINE",
"1018 1260 LINE",
"1018 1462 LINE",
"193 1462 LINE",
"193 0 LINE",
"430 0 LINE",
"430 600 LINE"
);
}
);
width = 1090;
}
);
note = F;
unicode = 0046;
},
{
glyphname = G;
lastChange = "2017-12-07 15:40:37 +0000";
layers = (
{
layerId = "2BF40018-41B3-4590-AC2B-A33F7CBCBD7D";
paths = (
{
closed = 1;
nodes = (
"1038 -20 OFFCURVE",
"1186 6 OFFCURVE",
"1341 55 CURVE",
"1341 766 LINE",
"844 766 LINE",
"844 614 LINE",
"1171 614 LINE",
"1171 164 LINE",
"1074 141 OFFCURVE",
"975 129 OFFCURVE",
"874 129 CURVE SMOOTH",
"501 129 OFFCURVE",
"305 336 OFFCURVE",
"305 731 CURVE SMOOTH",
"305 1107 OFFCURVE",
"516 1331 OFFCURVE",
"872 1331 CURVE SMOOTH",
"994 1331 OFFCURVE",
"1121 1303 OFFCURVE",
"1253 1247 CURVE",
"1319 1397 LINE",
"1184 1454 OFFCURVE",
"1039 1483 OFFCURVE",
"883 1483 CURVE SMOOTH",
"729 1483 OFFCURVE",
"595 1453 OFFCURVE",
"480 1393 CURVE SMOOTH",
"251 1272 OFFCURVE",
"125 1035 OFFCURVE",
"125 731 CURVE SMOOTH",
"125 256 OFFCURVE",
"384 -20 OFFCURVE",
"827 -20 CURVE SMOOTH"
);
}
);
width = 1491;
},
{
layerId = "BF02A00B-9E13-4540-898E-0A41FC656544";
paths = (
{
closed = 1;
nodes = (
"972 -20 OFFCURVE",
"1131 2 OFFCURVE",
"1319 63 CURVE",
"1319 821 LINE",
"739 821 LINE",
"739 563 LINE",
"1016 563 LINE",
"1016 258 LINE",
"949 245 OFFCURVE",
"884 238 OFFCURVE",
"819 238 CURVE SMOOTH",
"571 238 OFFCURVE",
"438 410 OFFCURVE",
"438 727 CURVE SMOOTH",
"438 1031 OFFCURVE",
"613 1225 OFFCURVE",
"881 1225 CURVE SMOOTH",
"996 1225 OFFCURVE",
"1107 1198 OFFCURVE",
"1214 1145 CURVE",
"1317 1393 LINE",
"1178 1453 OFFCURVE",
"1033 1483 OFFCURVE",
"883 1483 CURVE SMOOTH",
"404 1483 OFFCURVE",
"119 1205 OFFCURVE",
"119 733 CURVE SMOOTH",
"119 248 OFFCURVE",
"358 -20 OFFCURVE",
"799 -20 CURVE SMOOTH"
);
}
);
width = 1483;
},
{
anchors = (
{
name = bottom;
position = "{741, 0}";
},
{
name = top;
position = "{741, 1462}";
}
);
layerId = "E5E970AF-9D0D-497A-BF30-FBE5F35FA9E4";
paths = (
{
closed = 1;
nodes = (
"1217 641 LINE",
"1217 127 LINE",
"1123 89 OFFCURVE",
"1009 70 OFFCURVE",
"874 70 CURVE SMOOTH",
"458 70 OFFCURVE",
"240 293 OFFCURVE",
"240 733 CURVE SMOOTH",
"240 1137 OFFCURVE",
"483 1393 OFFCURVE",
"868 1393 CURVE SMOOTH",
"1004 1393 OFFCURVE",
"1135 1364 OFFCURVE",
"1262 1305 CURVE",
"1303 1397 LINE",
"1176 1456 OFFCURVE",
"1033 1485 OFFCURVE",
"874 1485 CURVE SMOOTH",
"727 1485 OFFCURVE",
"596 1454 OFFCURVE",
"483 1391 CURVE SMOOTH",
"255 1266 OFFCURVE",
"129 1026 OFFCURVE",
"129 729 CURVE SMOOTH",
"129 252 OFFCURVE",
"383 -20 OFFCURVE",
"844 -20 CURVE SMOOTH",
"1021 -20 OFFCURVE",
"1180 10 OFFCURVE",
"1321 70 CURVE",
"1321 737 LINE",
"782 737 LINE",
"782 641 LINE"
);
}
);
width = 1481;
},
{
layerId = "BD2371FC-E5C9-4A02-81E0-967D9F93D406";
paths = (
{
closed = 1;
nodes = (
"1006 551 LINE",
"1006 322 LINE",
"957 311 OFFCURVE",
"903 305 OFFCURVE",
"844 305 CURVE SMOOTH",
"629 305 OFFCURVE",
"512 452 OFFCURVE",
"512 725 CURVE SMOOTH",
"512 1004 OFFCURVE",
"643 1159 OFFCURVE",
"874 1159 CURVE SMOOTH",
"1000 1159 OFFCURVE",
"1116 1133 OFFCURVE",
"1221 1081 CURVE",
"1346 1391 LINE",
"1225 1444 OFFCURVE",
"1056 1483 OFFCURVE",
"872 1483 CURVE SMOOTH",
"387 1483 OFFCURVE",
"104 1207 OFFCURVE",
"104 735 CURVE SMOOTH",
"104 251 OFFCURVE",
"360 -20 OFFCURVE",
"811 -20 CURVE SMOOTH",
"1016 -20 OFFCURVE",
"1205 9 OFFCURVE",
"1376 68 CURVE",
"1376 856 LINE",
"745 856 LINE",
"745 551 LINE"
);
}
);
width = 1516;
},
{
layerId = "57AE6E33-18DE-4F33-B821-7CA4FEF45BB8";
paths = (
{
closed = 1;
nodes = (
"1094 588 LINE",
"1094 211 LINE",
"1006 192 OFFCURVE",
"923 182 OFFCURVE",
"846 182 CURVE SMOOTH",
"539 182 OFFCURVE",
"371 372 OFFCURVE",
"371 729 CURVE SMOOTH",
"371 1069 OFFCURVE",
"565 1278 OFFCURVE",
"877 1278 CURVE SMOOTH",
"996 1278 OFFCURVE",
"1114 1251 OFFCURVE",
"1233 1196 CURVE",
"1317 1395 LINE",
"1180 1454 OFFCURVE",
"1036 1483 OFFCURVE",
"883 1483 CURVE SMOOTH",
"408 1483 OFFCURVE",
"121 1202 OFFCURVE",
"121 731 CURVE SMOOTH",
"121 254 OFFCURVE",
"370 -20 OFFCURVE",
"813 -20 CURVE SMOOTH",
"1001 -20 OFFCURVE",
"1153 2 OFFCURVE",
"1329 59 CURVE",
"1329 793 LINE",
"791 793 LINE",
"791 588 LINE"
);
}
);
width = 1487;
}
);
note = G;
unicode = 0047;
},
{
glyphname = Gbreve;
lastChange = "2017-12-01 17:48:57 +0000";
layers = (
{
layerId = "2BF40018-41B3-4590-AC2B-A33F7CBCBD7D";
paths = (
{
closed = 1;
nodes = (
"1038 -20 OFFCURVE",
"1186 6 OFFCURVE",
"1341 55 CURVE",
"1341 766 LINE",
"844 766 LINE",
"844 614 LINE",
"1171 614 LINE",
"1171 164 LINE",
"1074 141 OFFCURVE",
"975 129 OFFCURVE",
"874 129 CURVE SMOOTH",
"501 129 OFFCURVE",
"305 336 OFFCURVE",
"305 731 CURVE SMOOTH",
"305 1107 OFFCURVE",
"516 1331 OFFCURVE",
"872 1331 CURVE SMOOTH",
"994 1331 OFFCURVE",
"1121 1303 OFFCURVE",
"1253 1247 CURVE",
"1319 1397 LINE",
"1184 1454 OFFCURVE",
"1039 1483 OFFCURVE",
"883 1483 CURVE SMOOTH",
"729 1483 OFFCURVE",
"595 1453 OFFCURVE",
"480 1393 CURVE SMOOTH",
"251 1272 OFFCURVE",
"125 1035 OFFCURVE",
"125 731 CURVE SMOOTH",
"125 256 OFFCURVE",
"384 -20 OFFCURVE",
"827 -20 CURVE SMOOTH"
);
},
{
closed = 1;
nodes = (
"1038 1579 OFFCURVE",
"1156 1679 OFFCURVE",
"1169 1847 CURVE",
"1065 1847 LINE",
"1052 1758 OFFCURVE",
"993 1716 OFFCURVE",
"858 1716 CURVE SMOOTH",
"801 1716 OFFCURVE",
"761 1720 OFFCURVE",
"737 1729 CURVE SMOOTH",
"688 1746 OFFCURVE",
"661 1782 OFFCURVE",
"653 1847 CURVE",
"549 1847 LINE",
"561 1672 OFFCURVE",
"667 1579 OFFCURVE",
"854 1579 CURVE SMOOTH"
);
}
);
width = 1491;
},
{
layerId = "BF02A00B-9E13-4540-898E-0A41FC656544";
paths = (
{
closed = 1;
nodes = (
"972 -20 OFFCURVE",
"1131 2 OFFCURVE",
"1319 63 CURVE",
"1319 821 LINE",
"739 821 LINE",
"739 563 LINE",
"1016 563 LINE",
"1016 258 LINE",
"949 245 OFFCURVE",
"884 238 OFFCURVE",
"819 238 CURVE SMOOTH",
"571 238 OFFCURVE",
"438 410 OFFCURVE",
"438 727 CURVE SMOOTH",
"438 1031 OFFCURVE",
"613 1225 OFFCURVE",
"881 1225 CURVE SMOOTH",
"996 1225 OFFCURVE",
"1107 1198 OFFCURVE",
"1214 1145 CURVE",
"1317 1393 LINE",
"1178 1453 OFFCURVE",
"1033 1483 OFFCURVE",
"883 1483 CURVE SMOOTH",
"404 1483 OFFCURVE",
"119 1205 OFFCURVE",
"119 733 CURVE SMOOTH",
"119 248 OFFCURVE",
"358 -20 OFFCURVE",
"799 -20 CURVE SMOOTH"
);
},
{
closed = 1;
nodes = (
"1027 1579 OFFCURVE",
"1188 1712 OFFCURVE",
"1204 1917 CURVE",
"1030 1917 LINE",
"1019 1834 OFFCURVE",
"945 1792 OFFCURVE",
"808 1792 CURVE SMOOTH",
"751 1792 OFFCURVE",
"709 1796 OFFCURVE",
"681 1804 CURVE SMOOTH",
"624 1820 OFFCURVE",
"592 1854 OFFCURVE",
"587 1917 CURVE",
"417 1917 LINE",
"428 1709 OFFCURVE",
"574 1579 OFFCURVE",
"806 1579 CURVE SMOOTH"
);
}
);
width = 1483;
},
{
layerId = "E5E970AF-9D0D-497A-BF30-FBE5F35FA9E4";
paths = (
{
closed = 1;
nodes = (
"1217 641 LINE",
"1217 127 LINE",
"1123 89 OFFCURVE",
"1009 70 OFFCURVE",
"874 70 CURVE SMOOTH",
"458 70 OFFCURVE",
"240 293 OFFCURVE",
"240 733 CURVE SMOOTH",
"240 1137 OFFCURVE",
"483 1393 OFFCURVE",
"868 1393 CURVE SMOOTH",
"1004 1393 OFFCURVE",
"1135 1364 OFFCURVE",
"1262 1305 CURVE",
"1303 1397 LINE",
"1176 1456 OFFCURVE",
"1033 1485 OFFCURVE",
"874 1485 CURVE SMOOTH",
"727 1485 OFFCURVE",
"596 1454 OFFCURVE",
"483 1391 CURVE SMOOTH",
"255 1266 OFFCURVE",
"129 1026 OFFCURVE",
"129 729 CURVE SMOOTH",
"129 252 OFFCURVE",
"383 -20 OFFCURVE",
"844 -20 CURVE SMOOTH",
"1021 -20 OFFCURVE",
"1180 10 OFFCURVE",
"1321 70 CURVE",
"1321 737 LINE",
"782 737 LINE",
"782 641 LINE"
);
},
{
closed = 1;
nodes = (
"964 1579 OFFCURVE",
"1057 1661 OFFCURVE",
"1077 1825 CURVE",
"997 1825 LINE",
"977 1709 OFFCURVE",
"918 1663 OFFCURVE",
"801 1663 CURVE SMOOTH",
"684 1663 OFFCURVE",
"625 1709 OFFCURVE",
"606 1825 CURVE",
"524 1825 LINE",
"539 1661 OFFCURVE",
"630 1579 OFFCURVE",
"799 1579 CURVE SMOOTH"
);
}
);
width = 1481;
},
{
layerId = "BD2371FC-E5C9-4A02-81E0-967D9F93D406";
paths = (
{
closed = 1;
nodes = (
"1006 551 LINE",
"1006 322 LINE",
"957 311 OFFCURVE",
"903 305 OFFCURVE",
"844 305 CURVE SMOOTH",
"629 305 OFFCURVE",
"512 452 OFFCURVE",
"512 725 CURVE SMOOTH",
"512 1004 OFFCURVE",
"643 1159 OFFCURVE",
"874 1159 CURVE SMOOTH",
"1000 1159 OFFCURVE",
"1116 1133 OFFCURVE",
"1221 1081 CURVE",
"1346 1391 LINE",
"1225 1444 OFFCURVE",
"1056 1483 OFFCURVE",
"872 1483 CURVE SMOOTH",
"387 1483 OFFCURVE",
"104 1207 OFFCURVE",
"104 735 CURVE SMOOTH",
"104 251 OFFCURVE",
"360 -20 OFFCURVE",
"811 -20 CURVE SMOOTH",
"1016 -20 OFFCURVE",
"1205 9 OFFCURVE",
"1376 68 CURVE",
"1376 856 LINE",
"745 856 LINE",
"745 551 LINE"
);
},
{
closed = 1;
nodes = (
"932 1859 OFFCURVE",
"876 1819 OFFCURVE",
"768 1819 CURVE SMOOTH",
"641 1819 OFFCURVE",
"605 1846 OFFCURVE",
"578 1950 CURVE",
"367 1950 LINE",
"379 1709 OFFCURVE",
"519 1579 OFFCURVE",
"768 1579 CURVE SMOOTH",
"1011 1579 OFFCURVE",
"1163 1722 OFFCURVE",
"1176 1950 CURVE",
"957 1950 LINE"
);
}
);
width = 1516;
},
{
components = (
{
name = G;
},
{
name = breve;
transform = "{1, 0, 0, 1, 223, 338}";
}
);
layerId = "57AE6E33-18DE-4F33-B821-7CA4FEF45BB8";
width = 1487;
}
);
note = Gbreve;
unicode = 011E;
},
{
glyphname = Gcircumflex;
lastChange = "2017-12-01 17:48:57 +0000";
layers = (
{
layerId = "2BF40018-41B3-4590-AC2B-A33F7CBCBD7D";
paths = (
{
closed = 1;
nodes = (
"1038 -20 OFFCURVE",
"1186 6 OFFCURVE",
"1341 55 CURVE",
"1341 766 LINE",
"844 766 LINE",
"844 614 LINE",
"1171 614 LINE",
"1171 164 LINE",
"1074 141 OFFCURVE",
"975 129 OFFCURVE",
"874 129 CURVE SMOOTH",
"501 129 OFFCURVE",
"305 336 OFFCURVE",
"305 731 CURVE SMOOTH",
"305 1107 OFFCURVE",
"516 1331 OFFCURVE",
"872 1331 CURVE SMOOTH",
"994 1331 OFFCURVE",
"1121 1303 OFFCURVE",
"1253 1247 CURVE",
"1319 1397 LINE",
"1184 1454 OFFCURVE",
"1039 1483 OFFCURVE",
"883 1483 CURVE SMOOTH",
"729 1483 OFFCURVE",
"595 1453 OFFCURVE",
"480 1393 CURVE SMOOTH",
"251 1272 OFFCURVE",
"125 1035 OFFCURVE",
"125 731 CURVE SMOOTH",
"125 256 OFFCURVE",
"384 -20 OFFCURVE",
"827 -20 CURVE SMOOTH"
);
},
{
closed = 1;
nodes = (
"616 1579 LINE",
"671 1614 OFFCURVE",
"744 1676 OFFCURVE",
"835 1765 CURVE",
"924 1678 OFFCURVE",
"997 1616 OFFCURVE",
"1056 1579 CURVE",
"1175 1579 LINE",
"1175 1602 LINE",
"1092 1689 OFFCURVE",
"1032 1754 OFFCURVE",
"996 1799 CURVE SMOOTH",
"959 1843 OFFCURVE",
"934 1879 OFFCURVE",
"919 1907 CURVE",
"753 1907 LINE",
"738 1880 OFFCURVE",
"713 1845 OFFCURVE",
"679 1802 CURVE SMOOTH",
"645 1759 OFFCURVE",
"586 1693 OFFCURVE",
"501 1602 CURVE",
"501 1579 LINE"
);
}
);
width = 1491;
},
{
layerId = "BF02A00B-9E13-4540-898E-0A41FC656544";
paths = (
{
closed = 1;
nodes = (
"972 -20 OFFCURVE",
"1131 2 OFFCURVE",
"1319 63 CURVE",
"1319 821 LINE",
"739 821 LINE",
"739 563 LINE",
"1016 563 LINE",
"1016 258 LINE",
"949 245 OFFCURVE",
"884 238 OFFCURVE",
"819 238 CURVE SMOOTH",
"571 238 OFFCURVE",
"438 410 OFFCURVE",
"438 727 CURVE SMOOTH",
"438 1031 OFFCURVE",
"613 1225 OFFCURVE",
"881 1225 CURVE SMOOTH",
"996 1225 OFFCURVE",
"1107 1198 OFFCURVE",
"1214 1145 CURVE",
"1317 1393 LINE",
"1178 1453 OFFCURVE",
"1033 1483 OFFCURVE",
"883 1483 CURVE SMOOTH",
"404 1483 OFFCURVE",
"119 1205 OFFCURVE",
"119 733 CURVE SMOOTH",
"119 248 OFFCURVE",
"358 -20 OFFCURVE",
"799 -20 CURVE SMOOTH"
);
},
{
closed = 1;
nodes = (
"573 1579 LINE",
"674 1642 OFFCURVE",
"750 1701 OFFCURVE",
"802 1755 CURVE",
"853 1700 OFFCURVE",
"931 1641 OFFCURVE",
"1036 1579 CURVE",
"1239 1579 LINE",
"1239 1606 LINE",
"1143 1699 OFFCURVE",
"1024 1838 OFFCURVE",
"983 1907 CURVE",
"626 1907 LINE",
"581 1832 OFFCURVE",
"496 1732 OFFCURVE",
"370 1606 CURVE",
"370 1579 LINE"
);
}
);
width = 1483;
},
{
layerId = "E5E970AF-9D0D-497A-BF30-FBE5F35FA9E4";
paths = (
{
closed = 1;
nodes = (
"1217 641 LINE",
"1217 127 LINE",
"1123 89 OFFCURVE",
"1009 70 OFFCURVE",
"874 70 CURVE SMOOTH",
"458 70 OFFCURVE",
"240 293 OFFCURVE",
"240 733 CURVE SMOOTH",
"240 1137 OFFCURVE",
"483 1393 OFFCURVE",
"868 1393 CURVE SMOOTH",
"1004 1393 OFFCURVE",
"1135 1364 OFFCURVE",
"1262 1305 CURVE",
"1303 1397 LINE",
"1176 1456 OFFCURVE",
"1033 1485 OFFCURVE",
"874 1485 CURVE SMOOTH",
"727 1485 OFFCURVE",
"596 1454 OFFCURVE",
"483 1391 CURVE SMOOTH",
"255 1266 OFFCURVE",
"129 1026 OFFCURVE",
"129 729 CURVE SMOOTH",
"129 252 OFFCURVE",
"383 -20 OFFCURVE",
"844 -20 CURVE SMOOTH",
"1021 -20 OFFCURVE",
"1180 10 OFFCURVE",
"1321 70 CURVE",
"1321 737 LINE",
"782 737 LINE",
"782 641 LINE"
);
},
{
closed = 1;
nodes = (
"582 1579 LINE",
"657 1641 OFFCURVE",
"731 1710 OFFCURVE",
"803 1786 CURVE",
"869 1715 OFFCURVE",
"943 1646 OFFCURVE",
"1024 1579 CURVE",
"1094 1579 LINE",
"1094 1595 LINE",
"978 1723 OFFCURVE",
"897 1827 OFFCURVE",
"852 1907 CURVE",
"754 1907 LINE",
"699 1818 OFFCURVE",
"595 1684 OFFCURVE",
"512 1595 CURVE",
"512 1579 LINE"
);
}
);
width = 1481;
},
{
layerId = "BD2371FC-E5C9-4A02-81E0-967D9F93D406";
paths = (
{
closed = 1;
nodes = (
"1006 551 LINE",
"1006 322 LINE",
"957 311 OFFCURVE",
"903 305 OFFCURVE",
"844 305 CURVE SMOOTH",
"629 305 OFFCURVE",
"512 452 OFFCURVE",
"512 725 CURVE SMOOTH",
"512 1004 OFFCURVE",
"643 1159 OFFCURVE",
"874 1159 CURVE SMOOTH",
"1000 1159 OFFCURVE",
"1116 1133 OFFCURVE",
"1221 1081 CURVE",
"1346 1391 LINE",
"1225 1444 OFFCURVE",
"1056 1483 OFFCURVE",
"872 1483 CURVE SMOOTH",
"387 1483 OFFCURVE",
"104 1207 OFFCURVE",
"104 735 CURVE SMOOTH",
"104 251 OFFCURVE",
"360 -20 OFFCURVE",
"811 -20 CURVE SMOOTH",
"1016 -20 OFFCURVE",
"1205 9 OFFCURVE",
"1376 68 CURVE",
"1376 856 LINE",
"745 856 LINE",
"745 551 LINE"
);
},
{
closed = 1;
nodes = (
"1227 1608 LINE",
"1119 1716 OFFCURVE",
"1034 1816 OFFCURVE",
"971 1907 CURVE",
"578 1907 LINE",
"527 1830 OFFCURVE",
"412 1695 OFFCURVE",
"320 1608 CURVE",
"320 1579 LINE",
"578 1579 LINE",
"624 1608 OFFCURVE",
"689 1658 OFFCURVE",
"772 1729 CURVE",
"850 1661 OFFCURVE",
"917 1611 OFFCURVE",
"973 1579 CURVE",
"1227 1579 LINE"
);
}
);
width = 1516;
},
{
components = (
{
name = G;
},
{
name = circumflex;
transform = "{1, 0, 0, 1, 209, 338}";
}
);
layerId = "57AE6E33-18DE-4F33-B821-7CA4FEF45BB8";
width = 1487;
}
);
note = Gcircumflex;
unicode = 011C;
},
{
glyphname = Gcommaaccent;
lastChange = "2017-12-07 16:10:42 +0000";
layers = (
{
layerId = "2BF40018-41B3-4590-AC2B-A33F7CBCBD7D";
paths = (
{
closed = 1;
nodes = (
"1038 -20 OFFCURVE",
"1186 6 OFFCURVE",
"1341 55 CURVE",
"1341 766 LINE",
"844 766 LINE",
"844 614 LINE",
"1171 614 LINE",
"1171 164 LINE",
"1074 141 OFFCURVE",
"975 129 OFFCURVE",
"874 129 CURVE SMOOTH",
"501 129 OFFCURVE",
"305 336 OFFCURVE",
"305 731 CURVE SMOOTH",
"305 1107 OFFCURVE",
"516 1331 OFFCURVE",
"872 1331 CURVE SMOOTH",
"994 1331 OFFCURVE",
"1121 1303 OFFCURVE",
"1253 1247 CURVE",
"1319 1397 LINE",
"1184 1454 OFFCURVE",
"1039 1483 OFFCURVE",
"883 1483 CURVE SMOOTH",
"729 1483 OFFCURVE",
"595 1453 OFFCURVE",
"480 1393 CURVE SMOOTH",
"251 1272 OFFCURVE",
"125 1035 OFFCURVE",
"125 731 CURVE SMOOTH",
"125 256 OFFCURVE",
"384 -20 OFFCURVE",
"827 -20 CURVE SMOOTH"
);
},
{
closed = 1;
nodes = (
"754 -453 LINE",
"827 -365 OFFCURVE",
"903 -211 OFFCURVE",
"918 -143 CURVE",
"918 -125 LINE",
"750 -125 LINE",
"741 -196 OFFCURVE",
"701 -343 OFFCURVE",
"664 -428 CURVE",
"664 -453 LINE"
);
}
);
width = 1491;
},
{
layerId = "BF02A00B-9E13-4540-898E-0A41FC656544";
paths = (
{
closed = 1;
nodes = (
"972 -20 OFFCURVE",
"1131 2 OFFCURVE",
"1319 63 CURVE",
"1319 821 LINE",
"739 821 LINE",
"739 563 LINE",
"1016 563 LINE",
"1016 258 LINE",
"949 245 OFFCURVE",
"884 238 OFFCURVE",
"819 238 CURVE SMOOTH",
"571 238 OFFCURVE",
"438 410 OFFCURVE",
"438 727 CURVE SMOOTH",
"438 1031 OFFCURVE",
"613 1225 OFFCURVE",
"881 1225 CURVE SMOOTH",
"996 1225 OFFCURVE",
"1107 1198 OFFCURVE",
"1214 1145 CURVE",
"1317 1393 LINE",
"1178 1453 OFFCURVE",
"1033 1483 OFFCURVE",
"883 1483 CURVE SMOOTH",
"404 1483 OFFCURVE",
"119 1205 OFFCURVE",
"119 733 CURVE SMOOTH",
"119 248 OFFCURVE",
"358 -20 OFFCURVE",
"799 -20 CURVE SMOOTH"
);
},
{
closed = 1;
nodes = (
"807 -453 LINE",
"868 -360 OFFCURVE",
"923 -257 OFFCURVE",
"973 -145 CURVE",
"973 -125 LINE",
"691 -125 LINE",
"680 -210 OFFCURVE",
"649 -361 OFFCURVE",
"629 -426 CURVE",
"629 -453 LINE"
);
}
);
width = 1483;
},
{
layerId = "E5E970AF-9D0D-497A-BF30-FBE5F35FA9E4";
paths = (
{
closed = 1;
nodes = (
"1209 641 LINE",
"1209 127 LINE",
"1115 89 OFFCURVE",
"1001 70 OFFCURVE",
"866 70 CURVE SMOOTH",
"450 70 OFFCURVE",
"232 293 OFFCURVE",
"232 733 CURVE SMOOTH",
"232 1137 OFFCURVE",
"475 1393 OFFCURVE",
"860 1393 CURVE SMOOTH",
"996 1393 OFFCURVE",
"1127 1364 OFFCURVE",
"1254 1305 CURVE",
"1295 1397 LINE",
"1168 1456 OFFCURVE",
"1025 1485 OFFCURVE",
"866 1485 CURVE SMOOTH",
"719 1485 OFFCURVE",
"588 1454 OFFCURVE",
"475 1391 CURVE SMOOTH",
"247 1266 OFFCURVE",
"121 1026 OFFCURVE",
"121 729 CURVE SMOOTH",
"121 252 OFFCURVE",
"375 -20 OFFCURVE",
"836 -20 CURVE SMOOTH",
"1013 -20 OFFCURVE",
"1172 10 OFFCURVE",
"1313 70 CURVE",
"1313 737 LINE",
"774 737 LINE",
"774 641 LINE"
);
},
{
closed = 1;
nodes = (
"728 -453 LINE",
"783 -372 OFFCURVE",
"842 -248 OFFCURVE",
"873 -139 CURVE",
"873 -125 LINE",
"760 -125 LINE",
"745 -225 OFFCURVE",
"707 -364 OFFCURVE",
"674 -436 CURVE",
"674 -453 LINE"
);
}
);
width = 1471;
},
{
layerId = "BD2371FC-E5C9-4A02-81E0-967D9F93D406";
paths = (
{
closed = 1;
nodes = (
"1006 551 LINE",
"1006 322 LINE",
"957 311 OFFCURVE",
"903 305 OFFCURVE",
"844 305 CURVE SMOOTH",
"629 305 OFFCURVE",
"512 452 OFFCURVE",
"512 725 CURVE SMOOTH",
"512 1004 OFFCURVE",
"643 1159 OFFCURVE",
"874 1159 CURVE SMOOTH",
"1000 1159 OFFCURVE",
"1116 1133 OFFCURVE",
"1221 1081 CURVE",
"1346 1391 LINE",
"1225 1444 OFFCURVE",
"1056 1483 OFFCURVE",
"872 1483 CURVE SMOOTH",
"387 1483 OFFCURVE",
"104 1207 OFFCURVE",
"104 735 CURVE SMOOTH",
"104 251 OFFCURVE",
"360 -20 OFFCURVE",
"811 -20 CURVE SMOOTH",
"1016 -20 OFFCURVE",
"1205 9 OFFCURVE",
"1376 68 CURVE",
"1376 856 LINE",
"745 856 LINE",
"745 551 LINE"
);
},
{
closed = 1;
nodes = (
"830 -453 LINE",
"895 -359 OFFCURVE",
"951 -257 OFFCURVE",
"998 -147 CURVE",
"998 -125 LINE",
"643 -125 LINE",
"640 -209 OFFCURVE",
"617 -349 OFFCURVE",
"596 -424 CURVE",
"596 -453 LINE"
);
}
);
width = 1516;
},
{
components = (
{
name = G;
},
{
name = commaaccent;
transform = "{1, 0, 0, 1, 287, 0}";
}
);
layerId = "57AE6E33-18DE-4F33-B821-7CA4FEF45BB8";
width = 1487;
}
);
note = Gcommaaccent;
unicode = 0122;
},
{
glyphname = Gdotaccent;
lastChange = "2017-12-07 16:10:32 +0000";
layers = (
{
layerId = "2BF40018-41B3-4590-AC2B-A33F7CBCBD7D";
paths = (
{
closed = 1;
nodes = (
"1038 -20 OFFCURVE",
"1186 6 OFFCURVE",
"1341 55 CURVE",
"1341 766 LINE",
"844 766 LINE",
"844 614 LINE",
"1171 614 LINE",
"1171 164 LINE",
"1074 141 OFFCURVE",
"975 129 OFFCURVE",
"874 129 CURVE SMOOTH",
"501 129 OFFCURVE",
"305 336 OFFCURVE",
"305 731 CURVE SMOOTH",
"305 1107 OFFCURVE",
"516 1331 OFFCURVE",
"872 1331 CURVE SMOOTH",
"994 1331 OFFCURVE",
"1121 1303 OFFCURVE",
"1253 1247 CURVE",
"1319 1397 LINE",
"1184 1454 OFFCURVE",
"1039 1483 OFFCURVE",
"883 1483 CURVE SMOOTH",
"729 1483 OFFCURVE",
"595 1453 OFFCURVE",
"480 1393 CURVE SMOOTH",
"251 1272 OFFCURVE",
"125 1035 OFFCURVE",
"125 731 CURVE SMOOTH",
"125 256 OFFCURVE",
"384 -20 OFFCURVE",
"827 -20 CURVE SMOOTH"
);
},
{
closed = 1;
nodes = (
"925 1620 OFFCURVE",
"970 1656 OFFCURVE",
"970 1731 CURVE SMOOTH",
"970 1806 OFFCURVE",
"925 1841 OFFCURVE",
"872 1841 CURVE SMOOTH",
"816 1841 OFFCURVE",
"774 1807 OFFCURVE",
"774 1731 CURVE SMOOTH",
"774 1656 OFFCURVE",
"816 1620 OFFCURVE",
"872 1620 CURVE SMOOTH"
);
}
);
width = 1491;
},
{
layerId = "BF02A00B-9E13-4540-898E-0A41FC656544";
paths = (
{
closed = 1;
nodes = (
"972 -20 OFFCURVE",
"1131 2 OFFCURVE",
"1319 63 CURVE",
"1319 821 LINE",
"739 821 LINE",
"739 563 LINE",
"1016 563 LINE",
"1016 258 LINE",
"949 245 OFFCURVE",
"884 238 OFFCURVE",
"819 238 CURVE SMOOTH",
"571 238 OFFCURVE",
"438 410 OFFCURVE",
"438 727 CURVE SMOOTH",
"438 1031 OFFCURVE",
"613 1225 OFFCURVE",
"881 1225 CURVE SMOOTH",
"996 1225 OFFCURVE",
"1107 1198 OFFCURVE",
"1214 1145 CURVE",
"1317 1393 LINE",
"1178 1453 OFFCURVE",
"1033 1483 OFFCURVE",
"883 1483 CURVE SMOOTH",
"404 1483 OFFCURVE",
"119 1205 OFFCURVE",
"119 733 CURVE SMOOTH",
"119 248 OFFCURVE",
"358 -20 OFFCURVE",
"799 -20 CURVE SMOOTH"
);
},
{
closed = 1;
nodes = (
"932 1595 OFFCURVE",
"987 1650 OFFCURVE",
"987 1745 CURVE SMOOTH",
"987 1844 OFFCURVE",
"932 1894 OFFCURVE",
"821 1894 CURVE SMOOTH",
"710 1894 OFFCURVE",
"655 1844 OFFCURVE",
"655 1745 CURVE SMOOTH",
"655 1645 OFFCURVE",
"710 1595 OFFCURVE",
"821 1595 CURVE SMOOTH"
);
}
);
width = 1483;
},
{
layerId = "E5E970AF-9D0D-497A-BF30-FBE5F35FA9E4";
paths = (
{
closed = 1;
nodes = (
"1209 641 LINE",
"1209 127 LINE",
"1115 89 OFFCURVE",
"1001 70 OFFCURVE",
"866 70 CURVE SMOOTH",
"450 70 OFFCURVE",
"232 293 OFFCURVE",
"232 733 CURVE SMOOTH",
"232 1137 OFFCURVE",
"475 1393 OFFCURVE",
"860 1393 CURVE SMOOTH",
"996 1393 OFFCURVE",
"1127 1364 OFFCURVE",
"1254 1305 CURVE",
"1295 1397 LINE",
"1168 1456 OFFCURVE",
"1025 1485 OFFCURVE",
"866 1485 CURVE SMOOTH",
"719 1485 OFFCURVE",
"588 1454 OFFCURVE",
"475 1391 CURVE SMOOTH",
"247 1266 OFFCURVE",
"121 1026 OFFCURVE",
"121 729 CURVE SMOOTH",
"121 252 OFFCURVE",
"375 -20 OFFCURVE",
"836 -20 CURVE SMOOTH",
"1013 -20 OFFCURVE",
"1172 10 OFFCURVE",
"1313 70 CURVE",
"1313 737 LINE",
"774 737 LINE",
"774 641 LINE"
);
},
{
closed = 1;
nodes = (
"745 1662 OFFCURVE",
"766 1630 OFFCURVE",
"809 1630 CURVE SMOOTH",
"850 1630 OFFCURVE",
"874 1667 OFFCURVE",
"874 1727 CURVE SMOOTH",
"874 1788 OFFCURVE",
"850 1823 OFFCURVE",
"809 1823 CURVE SMOOTH",
"766 1823 OFFCURVE",
"745 1791 OFFCURVE",
"745 1727 CURVE SMOOTH"
);
}
);
width = 1471;
},
{
layerId = "BD2371FC-E5C9-4A02-81E0-967D9F93D406";
paths = (
{
closed = 1;
nodes = (
"1006 551 LINE",
"1006 322 LINE",
"957 311 OFFCURVE",
"903 305 OFFCURVE",
"844 305 CURVE SMOOTH",
"629 305 OFFCURVE",
"512 452 OFFCURVE",
"512 725 CURVE SMOOTH",
"512 1004 OFFCURVE",
"643 1159 OFFCURVE",
"874 1159 CURVE SMOOTH",
"1000 1159 OFFCURVE",
"1116 1133 OFFCURVE",
"1221 1081 CURVE",
"1346 1391 LINE",
"1225 1444 OFFCURVE",
"1056 1483 OFFCURVE",
"872 1483 CURVE SMOOTH",
"387 1483 OFFCURVE",
"104 1207 OFFCURVE",
"104 735 CURVE SMOOTH",
"104 251 OFFCURVE",
"360 -20 OFFCURVE",
"811 -20 CURVE SMOOTH",
"1016 -20 OFFCURVE",
"1205 9 OFFCURVE",
"1376 68 CURVE",
"1376 856 LINE",
"745 856 LINE",
"745 551 LINE"
);
},
{
closed = 1;
nodes = (
"571 1638 OFFCURVE",
"640 1581 OFFCURVE",
"778 1581 CURVE SMOOTH",
"917 1581 OFFCURVE",
"987 1638 OFFCURVE",
"987 1753 CURVE SMOOTH",
"987 1868 OFFCURVE",
"923 1927 OFFCURVE",
"778 1927 CURVE SMOOTH",
"633 1927 OFFCURVE",
"571 1870 OFFCURVE",
"571 1753 CURVE SMOOTH"
);
}
);
width = 1516;
},
{
components = (
{
name = G;
},
{
name = dotaccent;
transform = "{1, 0, 0, 1, 559, 338}";
}
);
layerId = "57AE6E33-18DE-4F33-B821-7CA4FEF45BB8";
width = 1487;
}
);
note = Gdotaccent;
unicode = 0120;
},
{
glyphname = H;
lastChange = "2017-12-07 15:40:37 +0000";
layers = (
{
layerId = "2BF40018-41B3-4590-AC2B-A33F7CBCBD7D";
paths = (
{
closed = 1;
nodes = (
"371 0 LINE",
"371 688 LINE",
"1141 688 LINE",
"1141 0 LINE",
"1311 0 LINE",
"1311 1462 LINE",
"1141 1462 LINE",
"1141 840 LINE",
"371 840 LINE",
"371 1462 LINE",
"201 1462 LINE",
"201 0 LINE"
);
}
);
width = 1511;
},
{
layerId = "BF02A00B-9E13-4540-898E-0A41FC656544";
paths = (
{
closed = 1;
nodes = (
"494 0 LINE",
"494 631 LINE",
"1073 631 LINE",
"1073 0 LINE",
"1382 0 LINE",
"1382 1462 LINE",
"1073 1462 LINE",
"1073 889 LINE",
"494 889 LINE",
"494 1462 LINE",
"184 1462 LINE",
"184 0 LINE"
);
}
);
width = 1567;
},
{
anchors = (
{
name = bottom;
position = "{737, 0}";
},
{
name = center;
position = "{737, 731}";
},
{
name = top;
position = "{737, 1462}";
},
{
name = topleft;
position = "{20, 1462}";
}
);
layerId = "E5E970AF-9D0D-497A-BF30-FBE5F35FA9E4";
paths = (
{
closed = 1;
nodes = (
"1163 1462 LINE",
"1163 813 LINE",
"309 813 LINE",
"309 1462 LINE",
"207 1462 LINE",
"207 0 LINE",
"309 0 LINE",
"309 719 LINE",
"1163 719 LINE",
"1163 0 LINE",
"1266 0 LINE",
"1266 1462 LINE"
);
}
);
width = 1473;
},
{
layerId = "BD2371FC-E5C9-4A02-81E0-967D9F93D406";
paths = (
{
closed = 1;
nodes = (
"1014 1462 LINE",
"1014 920 LINE",
"555 920 LINE",
"555 1462 LINE",
"158 1462 LINE",
"158 0 LINE",
"555 0 LINE",
"555 596 LINE",
"1014 596 LINE",
"1014 0 LINE",
"1411 0 LINE",
"1411 1462 LINE"
);
}
);
width = 1569;
},
{
layerId = "57AE6E33-18DE-4F33-B821-7CA4FEF45BB8";
paths = (
{
closed = 1;
nodes = (
"1106 1462 LINE",
"1106 864 LINE",
"432 864 LINE",
"432 1462 LINE",
"193 1462 LINE",
"193 0 LINE",
"432 0 LINE",
"432 659 LINE",
"1106 659 LINE",
"1106 0 LINE",
"1346 0 LINE",
"1346 1462 LINE"
);
}
);
width = 1538;
}
);
note = H;
unicode = 0048;
},
{
glyphname = Hbar;
lastChange = "2017-12-01 17:48:57 +0000";
layers = (
{
layerId = "2BF40018-41B3-4590-AC2B-A33F7CBCBD7D";
paths = (
{
closed = 1;
nodes = (
"371 0 LINE",
"371 688 LINE",
"1141 688 LINE",
"1141 0 LINE",
"1311 0 LINE",
"1311 1073 LINE",
"1511 1073 LINE",
"1511 1214 LINE",
"1311 1214 LINE",
"1311 1462 LINE",
"1141 1462 LINE",
"1141 1214 LINE",
"371 1214 LINE",
"371 1462 LINE",
"201 1462 LINE",
"201 1214 LINE",
"0 1214 LINE",
"0 1073 LINE",
"201 1073 LINE",
"201 0 LINE"
);
},
{
closed = 1;
nodes = (
"371 1073 LINE",
"1141 1073 LINE",
"1141 840 LINE",
"371 840 LINE"
);
}
);
width = 1511;
},
{
layerId = "BF02A00B-9E13-4540-898E-0A41FC656544";
paths = (
{
closed = 1;
nodes = (
"494 0 LINE",
"494 631 LINE",
"1073 631 LINE",
"1073 0 LINE",
"1382 0 LINE",
"1382 1069 LINE",
"1567 1069 LINE",
"1567 1268 LINE",
"1382 1268 LINE",
"1382 1462 LINE",
"1073 1462 LINE",
"1073 1268 LINE",
"494 1268 LINE",
"494 1462 LINE",
"184 1462 LINE",
"184 1268 LINE",
"0 1268 LINE",
"0 1069 LINE",
"184 1069 LINE",
"184 0 LINE"
);
},
{
closed = 1;
nodes = (
"494 1069 LINE",
"1073 1069 LINE",
"1073 889 LINE",
"494 889 LINE"
);
}
);
width = 1567;
},
{
layerId = "E5E970AF-9D0D-497A-BF30-FBE5F35FA9E4";
paths = (
{
closed = 1;
nodes = (
"0 1098 LINE",
"207 1098 LINE",
"207 0 LINE",
"309 0 LINE",
"309 719 LINE",
"1163 719 LINE",
"1163 0 LINE",
"1266 0 LINE",
"1266 1098 LINE",
"1473 1098 LINE",
"1473 1192 LINE",
"1266 1192 LINE",
"1266 1462 LINE",
"1163 1462 LINE",
"1163 1192 LINE",
"309 1192 LINE",
"309 1462 LINE",
"207 1462 LINE",
"207 1192 LINE",
"0 1192 LINE"
);
},
{
closed = 1;
nodes = (
"309 1098 LINE",
"1163 1098 LINE",
"1163 813 LINE",
"309 813 LINE"
);
}
);
width = 1473;
},
{
layerId = "BD2371FC-E5C9-4A02-81E0-967D9F93D406";
paths = (
{
closed = 1;
nodes = (
"0 1067 LINE",
"174 1067 LINE",
"174 0 LINE",
"569 0 LINE",
"569 596 LINE",
"1030 596 LINE",
"1030 0 LINE",
"1427 0 LINE",
"1427 1067 LINE",
"1602 1067 LINE",
"1602 1300 LINE",
"1427 1300 LINE",
"1427 1462 LINE",
"1030 1462 LINE",
"1030 1300 LINE",
"569 1300 LINE",
"569 1462 LINE",
"174 1462 LINE",
"174 1300 LINE",
"0 1300 LINE"
);
},
{
closed = 1;
nodes = (
"569 1067 LINE",
"1030 1067 LINE",
"1030 920 LINE",
"569 920 LINE"
);
}
);
width = 1602;
},
{
layerId = "57AE6E33-18DE-4F33-B821-7CA4FEF45BB8";
paths = (
{
closed = 1;
nodes = (
"1106 1462 LINE",
"1106 1241 LINE",
"432 1241 LINE",
"432 1462 LINE",
"193 1462 LINE",
"193 1241 LINE",
"0 1241 LINE",
"0 1071 LINE",
"193 1071 LINE",
"193 0 LINE",
"432 0 LINE",
"432 659 LINE",
"1106 659 LINE",
"1106 0 LINE",
"1346 0 LINE",
"1346 1071 LINE",
"1538 1071 LINE",
"1538 1241 LINE",
"1346 1241 LINE",
"1346 1462 LINE"
);
},
{
closed = 1;
nodes = (
"432 1071 LINE",
"1106 1071 LINE",
"1106 864 LINE",
"432 864 LINE"
);
}
);
width = 1538;
}
);
note = Hbar;
unicode = 0126;
},
{
glyphname = Hcircumflex;
lastChange = "2017-12-01 17:48:57 +0000";
layers = (
{
layerId = "2BF40018-41B3-4590-AC2B-A33F7CBCBD7D";
paths = (
{
closed = 1;
nodes = (
"371 0 LINE",
"371 688 LINE",
"1141 688 LINE",
"1141 0 LINE",
"1311 0 LINE",
"1311 1462 LINE",
"1141 1462 LINE",
"1141 840 LINE",
"371 840 LINE",
"371 1462 LINE",
"201 1462 LINE",
"201 0 LINE"
);
},
{
closed = 1;
nodes = (
"533 1579 LINE",
"588 1614 OFFCURVE",
"661 1676 OFFCURVE",
"752 1765 CURVE",
"841 1678 OFFCURVE",
"914 1616 OFFCURVE",
"973 1579 CURVE",
"1092 1579 LINE",
"1092 1602 LINE",
"1009 1689 OFFCURVE",
"949 1754 OFFCURVE",
"913 1799 CURVE SMOOTH",
"876 1843 OFFCURVE",
"851 1879 OFFCURVE",
"836 1907 CURVE",
"670 1907 LINE",
"655 1880 OFFCURVE",
"630 1845 OFFCURVE",
"596 1802 CURVE SMOOTH",
"562 1759 OFFCURVE",
"503 1693 OFFCURVE",
"418 1602 CURVE",
"418 1579 LINE"
);
}
);
width = 1511;
},
{
layerId = "BF02A00B-9E13-4540-898E-0A41FC656544";
paths = (
{
closed = 1;
nodes = (
"494 0 LINE",
"494 631 LINE",
"1073 631 LINE",
"1073 0 LINE",
"1382 0 LINE",
"1382 1462 LINE",
"1073 1462 LINE",
"1073 889 LINE",
"494 889 LINE",
"494 1462 LINE",
"184 1462 LINE",
"184 0 LINE"
);
},
{
closed = 1;
nodes = (
"549 1579 LINE",
"650 1642 OFFCURVE",
"726 1701 OFFCURVE",
"778 1755 CURVE",
"829 1700 OFFCURVE",
"907 1641 OFFCURVE",
"1012 1579 CURVE",
"1215 1579 LINE",
"1215 1606 LINE",
"1119 1699 OFFCURVE",
"1000 1838 OFFCURVE",
"959 1907 CURVE",
"602 1907 LINE",
"557 1832 OFFCURVE",
"472 1732 OFFCURVE",
"346 1606 CURVE",
"346 1579 LINE"
);
}
);
width = 1567;
},
{
layerId = "E5E970AF-9D0D-497A-BF30-FBE5F35FA9E4";
paths = (
{
closed = 1;
nodes = (
"1163 1462 LINE",
"1163 813 LINE",
"309 813 LINE",
"309 1462 LINE",
"207 1462 LINE",
"207 0 LINE",
"309 0 LINE",
"309 719 LINE",
"1163 719 LINE",
"1163 0 LINE",
"1266 0 LINE",
"1266 1462 LINE"
);
},
{
closed = 1;
nodes = (
"514 1579 LINE",
"589 1641 OFFCURVE",
"663 1710 OFFCURVE",
"735 1786 CURVE",
"801 1715 OFFCURVE",
"875 1646 OFFCURVE",
"956 1579 CURVE",
"1026 1579 LINE",
"1026 1595 LINE",
"910 1723 OFFCURVE",
"829 1827 OFFCURVE",
"784 1907 CURVE",
"686 1907 LINE",
"631 1818 OFFCURVE",
"527 1684 OFFCURVE",
"444 1595 CURVE",
"444 1579 LINE"
);
}
);
width = 1473;
},
{
layerId = "BD2371FC-E5C9-4A02-81E0-967D9F93D406";
paths = (
{
closed = 1;
nodes = (
"1014 1462 LINE",
"1014 920 LINE",
"555 920 LINE",
"555 1462 LINE",
"158 1462 LINE",
"158 0 LINE",
"555 0 LINE",
"555 596 LINE",
"1014 596 LINE",
"1014 0 LINE",
"1411 0 LINE",
"1411 1462 LINE"
);
},
{
closed = 1;
nodes = (
"1233 1608 LINE",
"1125 1716 OFFCURVE",
"1040 1816 OFFCURVE",
"977 1907 CURVE",
"584 1907 LINE",
"533 1830 OFFCURVE",
"418 1695 OFFCURVE",
"326 1608 CURVE",
"326 1579 LINE",
"584 1579 LINE",
"630 1608 OFFCURVE",
"695 1658 OFFCURVE",
"778 1729 CURVE",
"856 1661 OFFCURVE",
"923 1611 OFFCURVE",
"979 1579 CURVE",
"1233 1579 LINE"
);
}
);
width = 1569;
},
{
components = (
{
name = H;
},
{
name = circumflex;
transform = "{1, 0, 0, 1, 154, 338}";
}
);
layerId = "57AE6E33-18DE-4F33-B821-7CA4FEF45BB8";
width = 1538;
}
);
note = Hcircumflex;
unicode = 0124;
},
{
glyphname = I;
lastChange = "2017-12-07 15:40:37 +0000";
layers = (
{
layerId = "2BF40018-41B3-4590-AC2B-A33F7CBCBD7D";
paths = (
{
closed = 1;
nodes = (
"371 0 LINE",
"371 1462 LINE",
"201 1462 LINE",
"201 0 LINE"
);
}
);
width = 571;
},
{
layerId = "BF02A00B-9E13-4540-898E-0A41FC656544";
paths = (
{
closed = 1;
nodes = (
"494 0 LINE",
"494 1462 LINE",
"184 1462 LINE",
"184 0 LINE"
);
}
);
width = 678;
},
{
anchors = (
{
name = bottom;
position = "{258, 0}";
},
{
name = ogonek;
position = "{464, 10}";
},
{
name = top;
position = "{258, 1462}";
},
{
name = topleft;
position = "{20, 1462}";
}
);
layerId = "E5E970AF-9D0D-497A-BF30-FBE5F35FA9E4";
paths = (
{
closed = 1;
nodes = (
"309 1462 LINE",
"207 1462 LINE",
"207 0 LINE",
"309 0 LINE"
);
}
);
width = 516;
},
{
layerId = "BD2371FC-E5C9-4A02-81E0-967D9F93D406";
paths = (
{
closed = 1;
nodes = (
"555 1462 LINE",
"158 1462 LINE",
"158 0 LINE",
"555 0 LINE"
);
}
);
width = 713;
},
{
layerId = "57AE6E33-18DE-4F33-B821-7CA4FEF45BB8";
paths = (
{
closed = 1;
nodes = (
"432 1462 LINE",
"193 1462 LINE",
"193 0 LINE",
"432 0 LINE"
);
}
);
width = 625;
}
);
note = I;
unicode = 0049;
},
{
glyphname = IJ;
lastChange = "2017-12-01 17:48:57 +0000";
layers = (
{
layerId = "2BF40018-41B3-4590-AC2B-A33F7CBCBD7D";
paths = (
{
closed = 1;
nodes = (
"371 0 LINE",
"371 1462 LINE",
"201 1462 LINE",
"201 0 LINE"
);
},
{
closed = 1;
nodes = (
"799 -385 OFFCURVE",
"931 -239 OFFCURVE",
"931 14 CURVE SMOOTH",
"931 1462 LINE",
"761 1462 LINE",
"761 0 LINE SMOOTH",
"761 -151 OFFCURVE",
"691 -233 OFFCURVE",
"559 -233 CURVE SMOOTH",
"508 -233 OFFCURVE",
"458 -226 OFFCURVE",
"411 -213 CURVE",
"411 -358 LINE",
"447 -376 OFFCURVE",
"496 -385 OFFCURVE",
"559 -385 CURVE SMOOTH"
);
}
);
width = 1118;
},
{
layerId = "BF02A00B-9E13-4540-898E-0A41FC656544";
paths = (
{
closed = 1;
nodes = (
"494 0 LINE",
"494 1462 LINE",
"184 1462 LINE",
"184 0 LINE"
);
},
{
closed = 1;
nodes = (
"1133 -430 OFFCURVE",
"1291 -247 OFFCURVE",
"1291 94 CURVE SMOOTH",
"1291 1462 LINE",
"981 1462 LINE",
"981 92 LINE SMOOTH",
"981 -88 OFFCURVE",
"927 -170 OFFCURVE",
"791 -170 CURVE SMOOTH",
"747 -170 OFFCURVE",
"698 -163 OFFCURVE",
"645 -150 CURVE",
"645 -408 LINE",
"697 -423 OFFCURVE",
"758 -430 OFFCURVE",
"828 -430 CURVE SMOOTH"
);
}
);
width = 1475;
},
{
layerId = "E5E970AF-9D0D-497A-BF30-FBE5F35FA9E4";
paths = (
{
closed = 1;
nodes = (
"309 1462 LINE",
"207 1462 LINE",
"207 0 LINE",
"309 0 LINE"
);
},
{
closed = 1;
nodes = (
"711 -369 OFFCURVE",
"825 -246 OFFCURVE",
"825 0 CURVE SMOOTH",
"825 1462 LINE",
"723 1462 LINE",
"723 -10 LINE SMOOTH",
"723 -186 OFFCURVE",
"642 -274 OFFCURVE",
"481 -274 CURVE SMOOTH",
"434 -274 OFFCURVE",
"384 -267 OFFCURVE",
"332 -254 CURVE",
"332 -342 LINE",
"371 -360 OFFCURVE",
"422 -369 OFFCURVE",
"483 -369 CURVE SMOOTH"
);
}
);
width = 1022;
},
{
layerId = "BD2371FC-E5C9-4A02-81E0-967D9F93D406";
paths = (
{
closed = 1;
nodes = (
"555 1462 LINE",
"158 1462 LINE",
"158 0 LINE",
"555 0 LINE"
);
},
{
closed = 1;
nodes = (
"1103 -459 OFFCURVE",
"1276 -253 OFFCURVE",
"1276 143 CURVE SMOOTH",
"1276 1462 LINE",
"879 1462 LINE",
"879 109 LINE SMOOTH",
"879 -82 OFFCURVE",
"828 -152 OFFCURVE",
"697 -152 CURVE SMOOTH",
"669 -152 OFFCURVE",
"643 -149 OFFCURVE",
"619 -144 CURVE SMOOTH",
"595 -139 OFFCURVE",
"572 -135 OFFCURVE",
"551 -131 CURVE",
"551 -438 LINE",
"616 -452 OFFCURVE",
"684 -459 OFFCURVE",
"756 -459 CURVE SMOOTH"
);
}
);
width = 1434;
},
{
components = (
{
name = I;
},
{
name = J;
transform = "{1, 0, 0, 1, 625, 0}";
}
);
layerId = "57AE6E33-18DE-4F33-B821-7CA4FEF45BB8";
width = 1237;
}
);
note = IJ;
unicode = 0132;
},
{
glyphname = Iacute;
lastChange = "2017-12-01 17:48:57 +0000";
layers = (
{
layerId = "2BF40018-41B3-4590-AC2B-A33F7CBCBD7D";
paths = (
{
closed = 1;
nodes = (
"371 0 LINE",
"371 1462 LINE",
"201 1462 LINE",
"201 0 LINE"
);
},
{
closed = 1;
nodes = (
"290 1579 LINE",
"375 1648 OFFCURVE",
"513 1799 OFFCURVE",
"572 1886 CURVE",
"572 1907 LINE",
"370 1907 LINE",
"327 1820 OFFCURVE",
"243 1687 OFFCURVE",
"179 1604 CURVE",
"179 1579 LINE"
);
}
);
width = 571;
},
{
layerId = "BF02A00B-9E13-4540-898E-0A41FC656544";
paths = (
{
closed = 1;
nodes = (
"494 0 LINE",
"494 1462 LINE",
"184 1462 LINE",
"184 0 LINE"
);
},
{
closed = 1;
nodes = (
"370 1579 LINE",
"465 1646 OFFCURVE",
"675 1817 OFFCURVE",
"744 1886 CURVE",
"744 1907 LINE",
"402 1907 LINE",
"360 1840 OFFCURVE",
"282 1739 OFFCURVE",
"167 1606 CURVE",
"167 1579 LINE"
);
}
);
width = 678;
},
{
layerId = "E5E970AF-9D0D-497A-BF30-FBE5F35FA9E4";
paths = (
{
closed = 1;
nodes = (
"309 1462 LINE",
"207 1462 LINE",
"207 0 LINE",
"309 0 LINE"
);
},
{
closed = 1;
nodes = (
"261 1579 LINE",
"400 1695 OFFCURVE",
"526 1821 OFFCURVE",
"574 1890 CURVE",
"574 1907 LINE",
"433 1907 LINE",
"398 1843 OFFCURVE",
"288 1700 OFFCURVE",
"191 1595 CURVE",
"191 1579 LINE"
);
}
);
width = 516;
},
{
layerId = "BD2371FC-E5C9-4A02-81E0-967D9F93D406";
paths = (
{
closed = 1;
nodes = (
"555 1462 LINE",
"158 1462 LINE",
"158 0 LINE",
"555 0 LINE"
);
},
{
closed = 1;
nodes = (
"512 1639 OFFCURVE",
"741 1801 OFFCURVE",
"848 1886 CURVE",
"848 1907 LINE",
"420 1907 LINE",
"402 1882 OFFCURVE",
"379 1853 OFFCURVE",
"352 1821 CURVE SMOOTH",
"324 1789 OFFCURVE",
"259 1718 OFFCURVE",
"156 1608 CURVE",
"156 1579 LINE",
"416 1579 LINE"
);
}
);
width = 713;
},
{
components = (
{
name = I;
},
{
name = acute;
transform = "{1, 0, 0, 1, -183, 338}";
}
);
layerId = "57AE6E33-18DE-4F33-B821-7CA4FEF45BB8";
width = 625;
}
);
note = Iacute;
unicode = 00CD;
},
{
glyphname = Ibreve;
lastChange = "2017-12-01 17:48:57 +0000";
layers = (
{
layerId = "2BF40018-41B3-4590-AC2B-A33F7CBCBD7D";
paths = (
{
closed = 1;
nodes = (
"371 0 LINE",
"371 1462 LINE",
"201 1462 LINE",
"201 0 LINE"
);
},
{
closed = 1;
nodes = (
"464 1579 OFFCURVE",
"582 1679 OFFCURVE",
"595 1847 CURVE",
"491 1847 LINE",
"478 1758 OFFCURVE",
"419 1716 OFFCURVE",
"284 1716 CURVE SMOOTH",
"227 1716 OFFCURVE",
"187 1720 OFFCURVE",
"163 1729 CURVE SMOOTH",
"114 1746 OFFCURVE",
"87 1782 OFFCURVE",
"79 1847 CURVE",
"-25 1847 LINE",
"-13 1672 OFFCURVE",
"93 1579 OFFCURVE",
"280 1579 CURVE SMOOTH"
);
}
);
width = 571;
},
{
layerId = "BF02A00B-9E13-4540-898E-0A41FC656544";
paths = (
{
closed = 1;
nodes = (
"494 0 LINE",
"494 1462 LINE",
"184 1462 LINE",
"184 0 LINE"
);
},
{
closed = 1;
nodes = (
"557 1579 OFFCURVE",
"718 1712 OFFCURVE",
"734 1917 CURVE",
"560 1917 LINE",
"549 1834 OFFCURVE",
"475 1792 OFFCURVE",
"338 1792 CURVE SMOOTH",
"281 1792 OFFCURVE",
"239 1796 OFFCURVE",
"211 1804 CURVE SMOOTH",
"154 1820 OFFCURVE",
"122 1854 OFFCURVE",
"117 1917 CURVE",
"-53 1917 LINE",
"-42 1709 OFFCURVE",
"104 1579 OFFCURVE",
"336 1579 CURVE SMOOTH"
);
}
);
width = 678;
},
{
layerId = "E5E970AF-9D0D-497A-BF30-FBE5F35FA9E4";
paths = (
{
closed = 1;
nodes = (
"309 1462 LINE",
"207 1462 LINE",
"207 0 LINE",
"309 0 LINE"
);
},
{
closed = 1;
nodes = (
"422 1579 OFFCURVE",
"515 1661 OFFCURVE",
"535 1825 CURVE",
"455 1825 LINE",
"435 1709 OFFCURVE",
"376 1663 OFFCURVE",
"259 1663 CURVE SMOOTH",
"142 1663 OFFCURVE",
"83 1709 OFFCURVE",
"64 1825 CURVE",
"-18 1825 LINE",
"-3 1661 OFFCURVE",
"88 1579 OFFCURVE",
"257 1579 CURVE SMOOTH"
);
}
);
width = 516;
},
{
layerId = "BD2371FC-E5C9-4A02-81E0-967D9F93D406";
paths = (
{
closed = 1;
nodes = (
"555 1462 LINE",
"158 1462 LINE",
"158 0 LINE",
"555 0 LINE"
);
},
{
closed = 1;
nodes = (
"521 1859 OFFCURVE",
"465 1819 OFFCURVE",
"357 1819 CURVE SMOOTH",
"230 1819 OFFCURVE",
"194 1846 OFFCURVE",
"167 1950 CURVE",
"-44 1950 LINE",
"-32 1709 OFFCURVE",
"108 1579 OFFCURVE",
"357 1579 CURVE SMOOTH",
"600 1579 OFFCURVE",
"752 1722 OFFCURVE",
"765 1950 CURVE",
"546 1950 LINE"
);
}
);
width = 713;
},
{
components = (
{
name = I;
},
{
name = breve;
transform = "{1, 0, 0, 1, -298, 338}";
}
);
layerId = "57AE6E33-18DE-4F33-B821-7CA4FEF45BB8";
width = 625;
}
);
note = Ibreve;
unicode = 012C;
},
{
glyphname = Icircumflex;
lastChange = "2017-12-01 17:48:57 +0000";
layers = (
{
layerId = "2BF40018-41B3-4590-AC2B-A33F7CBCBD7D";
paths = (
{
closed = 1;
nodes = (
"371 0 LINE",
"371 1462 LINE",
"201 1462 LINE",
"201 0 LINE"
);
},
{
closed = 1;
nodes = (
"58 1579 LINE",
"113 1614 OFFCURVE",
"186 1676 OFFCURVE",
"277 1765 CURVE",
"366 1678 OFFCURVE",
"439 1616 OFFCURVE",
"498 1579 CURVE",
"617 1579 LINE",
"617 1602 LINE",
"534 1689 OFFCURVE",
"474 1754 OFFCURVE",
"438 1799 CURVE SMOOTH",
"401 1843 OFFCURVE",
"376 1879 OFFCURVE",
"361 1907 CURVE",
"195 1907 LINE",
"180 1880 OFFCURVE",
"155 1845 OFFCURVE",
"121 1802 CURVE SMOOTH",
"87 1759 OFFCURVE",
"28 1693 OFFCURVE",
"-57 1602 CURVE",
"-57 1579 LINE"
);
}
);
width = 571;
},
{
layerId = "BF02A00B-9E13-4540-898E-0A41FC656544";
paths = (
{
closed = 1;
nodes = (
"494 0 LINE",
"494 1462 LINE",
"184 1462 LINE",
"184 0 LINE"
);
},
{
closed = 1;
nodes = (
"107 1579 LINE",
"208 1642 OFFCURVE",
"284 1701 OFFCURVE",
"336 1755 CURVE",
"387 1700 OFFCURVE",
"465 1641 OFFCURVE",
"570 1579 CURVE",
"773 1579 LINE",
"773 1606 LINE",
"677 1699 OFFCURVE",
"558 1838 OFFCURVE",
"517 1907 CURVE",
"160 1907 LINE",
"115 1832 OFFCURVE",
"30 1732 OFFCURVE",
"-96 1606 CURVE",
"-96 1579 LINE"
);
}
);
width = 678;
},
{
layerId = "E5E970AF-9D0D-497A-BF30-FBE5F35FA9E4";
paths = (
{
closed = 1;
nodes = (
"309 1462 LINE",
"207 1462 LINE",
"207 0 LINE",
"309 0 LINE"
);
},
{
closed = 1;
nodes = (
"38 1579 LINE",
"113 1641 OFFCURVE",
"187 1710 OFFCURVE",
"259 1786 CURVE",
"325 1715 OFFCURVE",
"399 1646 OFFCURVE",
"480 1579 CURVE",
"550 1579 LINE",
"550 1595 LINE",
"434 1723 OFFCURVE",
"353 1827 OFFCURVE",
"308 1907 CURVE",
"210 1907 LINE",
"155 1818 OFFCURVE",
"51 1684 OFFCURVE",
"-32 1595 CURVE",
"-32 1579 LINE"
);
}
);
width = 516;
},
{
layerId = "BD2371FC-E5C9-4A02-81E0-967D9F93D406";
paths = (
{
closed = 1;
nodes = (
"555 1462 LINE",
"158 1462 LINE",
"158 0 LINE",
"555 0 LINE"
);
},
{
closed = 1;
nodes = (
"812 1608 LINE",
"704 1716 OFFCURVE",
"619 1816 OFFCURVE",
"556 1907 CURVE",
"163 1907 LINE",
"112 1830 OFFCURVE",
"-3 1695 OFFCURVE",
"-95 1608 CURVE",
"-95 1579 LINE",
"163 1579 LINE",
"209 1608 OFFCURVE",
"274 1658 OFFCURVE",
"357 1729 CURVE",
"435 1661 OFFCURVE",
"502 1611 OFFCURVE",
"558 1579 CURVE",
"812 1579 LINE"
);
}
);
width = 713;
},
{
components = (
{
name = I;
},
{
name = circumflex;
transform = "{1, 0, 0, 1, -302, 338}";
}
);
layerId = "57AE6E33-18DE-4F33-B821-7CA4FEF45BB8";
width = 625;
}
);
note = Icircumflex;
unicode = 00CE;
},
{
glyphname = Idieresis;
lastChange = "2017-12-01 17:48:57 +0000";
layers = (
{
layerId = "2BF40018-41B3-4590-AC2B-A33F7CBCBD7D";
paths = (
{
closed = 1;
nodes = (
"371 0 LINE",
"371 1462 LINE",
"201 1462 LINE",
"201 0 LINE"
);
},
{
closed = 1;
nodes = (
"146 1632 OFFCURVE",
"188 1664 OFFCURVE",
"188 1731 CURVE SMOOTH",
"188 1800 OFFCURVE",
"146 1829 OFFCURVE",
"95 1829 CURVE SMOOTH",
"46 1829 OFFCURVE",
"5 1800 OFFCURVE",
"5 1731 CURVE SMOOTH",
"5 1664 OFFCURVE",
"46 1632 OFFCURVE",
"95 1632 CURVE SMOOTH"
);
},
{
closed = 1;
nodes = (
"525 1632 OFFCURVE",
"568 1664 OFFCURVE",
"568 1731 CURVE SMOOTH",
"568 1800 OFFCURVE",
"525 1829 OFFCURVE",
"476 1829 CURVE SMOOTH",
"427 1829 OFFCURVE",
"386 1800 OFFCURVE",
"386 1731 CURVE SMOOTH",
"386 1664 OFFCURVE",
"427 1632 OFFCURVE",
"476 1632 CURVE SMOOTH"
);
}
);
width = 571;
},
{
layerId = "BF02A00B-9E13-4540-898E-0A41FC656544";
paths = (
{
closed = 1;
nodes = (
"494 0 LINE",
"494 1462 LINE",
"184 1462 LINE",
"184 0 LINE"
);
},
{
closed = 1;
nodes = (
"223 1610 OFFCURVE",
"277 1663 OFFCURVE",
"277 1743 CURVE SMOOTH",
"277 1824 OFFCURVE",
"224 1878 OFFCURVE",
"136 1878 CURVE SMOOTH",
"51 1878 OFFCURVE",
"-3 1830 OFFCURVE",
"-3 1743 CURVE SMOOTH",
"-3 1659 OFFCURVE",
"51 1610 OFFCURVE",
"136 1610 CURVE SMOOTH"
);
},
{
closed = 1;
nodes = (
"626 1610 OFFCURVE",
"683 1662 OFFCURVE",
"683 1743 CURVE SMOOTH",
"683 1827 OFFCURVE",
"628 1878 OFFCURVE",
"541 1878 CURVE SMOOTH",
"461 1878 OFFCURVE",
"400 1836 OFFCURVE",
"400 1743 CURVE SMOOTH",
"400 1652 OFFCURVE",
"461 1610 OFFCURVE",
"541 1610 CURVE SMOOTH"
);
}
);
width = 678;
},
{
layerId = "E5E970AF-9D0D-497A-BF30-FBE5F35FA9E4";
paths = (
{
closed = 1;
nodes = (
"309 1462 LINE",
"207 1462 LINE",
"207 0 LINE",
"309 0 LINE"
);
},
{
closed = 1;
nodes = (
"5 1670 OFFCURVE",
"26 1641 OFFCURVE",
"68 1641 CURVE SMOOTH",
"111 1641 OFFCURVE",
"132 1670 OFFCURVE",
"132 1727 CURVE SMOOTH",
"132 1784 OFFCURVE",
"111 1813 OFFCURVE",
"68 1813 CURVE SMOOTH",
"25 1813 OFFCURVE",
"5 1788 OFFCURVE",
"5 1727 CURVE SMOOTH"
);
},
{
closed = 1;
nodes = (
"386 1670 OFFCURVE",
"407 1641 OFFCURVE",
"449 1641 CURVE SMOOTH",
"492 1641 OFFCURVE",
"513 1670 OFFCURVE",
"513 1727 CURVE SMOOTH",
"513 1784 OFFCURVE",
"492 1813 OFFCURVE",
"449 1813 CURVE SMOOTH",
"406 1813 OFFCURVE",
"386 1788 OFFCURVE",
"386 1727 CURVE SMOOTH"
);
}
);
width = 516;
},
{
layerId = "BD2371FC-E5C9-4A02-81E0-967D9F93D406";
paths = (
{
closed = 1;
nodes = (
"555 1462 LINE",
"158 1462 LINE",
"158 0 LINE",
"555 0 LINE"
);
},
{
closed = 1;
nodes = (
"-55 1652 OFFCURVE",
"11 1595 OFFCURVE",
"115 1595 CURVE SMOOTH",
"220 1595 OFFCURVE",
"287 1656 OFFCURVE",
"287 1751 CURVE SMOOTH",
"287 1848 OFFCURVE",
"220 1909 OFFCURVE",
"115 1909 CURVE SMOOTH",
"11 1909 OFFCURVE",
"-55 1851 OFFCURVE",
"-55 1751 CURVE SMOOTH"
);
},
{
closed = 1;
nodes = (
"424 1654 OFFCURVE",
"488 1595 OFFCURVE",
"596 1595 CURVE SMOOTH",
"703 1595 OFFCURVE",
"769 1656 OFFCURVE",
"769 1751 CURVE SMOOTH",
"769 1847 OFFCURVE",
"703 1909 OFFCURVE",
"596 1909 CURVE SMOOTH",
"489 1909 OFFCURVE",
"424 1851 OFFCURVE",
"424 1751 CURVE SMOOTH"
);
}
);
width = 713;
},
{
components = (
{
name = I;
},
{
name = dieresis;
transform = "{1, 0, 0, 1, -292, 338}";
}
);
layerId = "57AE6E33-18DE-4F33-B821-7CA4FEF45BB8";
width = 625;
}
);
note = Idieresis;
unicode = 00CF;
},
{
glyphname = Idotaccent;
lastChange = "2017-12-01 17:48:57 +0000";
layers = (
{
layerId = "2BF40018-41B3-4590-AC2B-A33F7CBCBD7D";
paths = (
{
closed = 1;
nodes = (
"371 0 LINE",
"371 1462 LINE",
"201 1462 LINE",
"201 0 LINE"
);
},
{
closed = 1;
nodes = (
"338 1620 OFFCURVE",
"383 1656 OFFCURVE",
"383 1731 CURVE SMOOTH",
"383 1806 OFFCURVE",
"338 1841 OFFCURVE",
"285 1841 CURVE SMOOTH",
"229 1841 OFFCURVE",
"187 1807 OFFCURVE",
"187 1731 CURVE SMOOTH",
"187 1656 OFFCURVE",
"229 1620 OFFCURVE",
"285 1620 CURVE SMOOTH"
);
}
);
width = 571;
},
{
layerId = "BF02A00B-9E13-4540-898E-0A41FC656544";
paths = (
{
closed = 1;
nodes = (
"494 0 LINE",
"494 1462 LINE",
"184 1462 LINE",
"184 0 LINE"
);
},
{
closed = 1;
nodes = (
"449 1595 OFFCURVE",
"504 1650 OFFCURVE",
"504 1745 CURVE SMOOTH",
"504 1844 OFFCURVE",
"449 1894 OFFCURVE",
"338 1894 CURVE SMOOTH",
"227 1894 OFFCURVE",
"172 1844 OFFCURVE",
"172 1745 CURVE SMOOTH",
"172 1645 OFFCURVE",
"227 1595 OFFCURVE",
"338 1595 CURVE SMOOTH"
);
}
);
width = 678;
},
{
layerId = "E5E970AF-9D0D-497A-BF30-FBE5F35FA9E4";
paths = (
{
closed = 1;
nodes = (
"309 1462 LINE",
"207 1462 LINE",
"207 0 LINE",
"309 0 LINE"
);
},
{
closed = 1;
nodes = (
"194 1662 OFFCURVE",
"215 1630 OFFCURVE",
"258 1630 CURVE SMOOTH",
"299 1630 OFFCURVE",
"323 1667 OFFCURVE",
"323 1727 CURVE SMOOTH",
"323 1788 OFFCURVE",
"299 1823 OFFCURVE",
"258 1823 CURVE SMOOTH",
"215 1823 OFFCURVE",
"194 1791 OFFCURVE",
"194 1727 CURVE SMOOTH"
);
}
);
width = 516;
},
{
layerId = "BD2371FC-E5C9-4A02-81E0-967D9F93D406";
paths = (
{
closed = 1;
nodes = (
"555 1462 LINE",
"158 1462 LINE",
"158 0 LINE",
"555 0 LINE"
);
},
{
closed = 1;
nodes = (
"147 1638 OFFCURVE",
"216 1581 OFFCURVE",
"354 1581 CURVE SMOOTH",
"493 1581 OFFCURVE",
"563 1638 OFFCURVE",
"563 1753 CURVE SMOOTH",
"563 1868 OFFCURVE",
"499 1927 OFFCURVE",
"354 1927 CURVE SMOOTH",
"209 1927 OFFCURVE",
"147 1870 OFFCURVE",
"147 1753 CURVE SMOOTH"
);
}
);
width = 713;
},
{
components = (
{
name = I;
},
{
name = dotaccent;
transform = "{1, 0, 0, 1, 25, 338}";
}
);
layerId = "57AE6E33-18DE-4F33-B821-7CA4FEF45BB8";
width = 625;
}
);
note = Idotaccent;
unicode = 0130;
},
{
glyphname = Igrave;
lastChange = "2017-12-01 17:48:57 +0000";
layers = (
{
layerId = "2BF40018-41B3-4590-AC2B-A33F7CBCBD7D";
paths = (
{
closed = 1;
nodes = (
"371 0 LINE",
"371 1462 LINE",
"201 1462 LINE",
"201 0 LINE"
);
},
{
closed = 1;
nodes = (
"398 1579 LINE",
"398 1604 LINE",
"339 1675 OFFCURVE",
"251 1815 OFFCURVE",
"208 1907 CURVE",
"5 1907 LINE",
"5 1886 LINE",
"58 1802 OFFCURVE",
"201 1648 OFFCURVE",
"288 1579 CURVE"
);
}
);
width = 571;
},
{
layerId = "BF02A00B-9E13-4540-898E-0A41FC656544";
paths = (
{
closed = 1;
nodes = (
"494 0 LINE",
"494 1462 LINE",
"184 1462 LINE",
"184 0 LINE"
);
},
{
closed = 1;
nodes = (
"519 1579 LINE",
"519 1606 LINE",
"404 1739 OFFCURVE",
"326 1840 OFFCURVE",
"284 1907 CURVE",
"-58 1907 LINE",
"-58 1886 LINE",
"33 1798 OFFCURVE",
"233 1638 OFFCURVE",
"317 1579 CURVE"
);
}
);
width = 678;
},
{
layerId = "E5E970AF-9D0D-497A-BF30-FBE5F35FA9E4";
paths = (
{
closed = 1;
nodes = (
"309 1462 LINE",
"207 1462 LINE",
"207 0 LINE",
"309 0 LINE"
);
},
{
closed = 1;
nodes = (
"227 1696 OFFCURVE",
"114 1843 OFFCURVE",
"79 1907 CURVE",
"-63 1907 LINE",
"-63 1890 LINE",
"-19 1827 OFFCURVE",
"123 1684 OFFCURVE",
"251 1579 CURVE",
"320 1579 LINE",
"320 1595 LINE"
);
}
);
width = 516;
},
{
layerId = "BD2371FC-E5C9-4A02-81E0-967D9F93D406";
paths = (
{
closed = 1;
nodes = (
"555 1462 LINE",
"158 1462 LINE",
"158 0 LINE",
"555 0 LINE"
);
},
{
closed = 1;
nodes = (
"576 1608 LINE",
"517 1674 LINE SMOOTH",
"416 1783 OFFCURVE",
"349 1860 OFFCURVE",
"314 1907 CURVE",
"-116 1907 LINE",
"-116 1886 LINE",
"9 1787 OFFCURVE",
"224 1638 OFFCURVE",
"316 1579 CURVE",
"576 1579 LINE"
);
}
);
width = 713;
},
{
components = (
{
name = I;
},
{
name = grave;
transform = "{1, 0, 0, 1, -368, 338}";
}
);
layerId = "57AE6E33-18DE-4F33-B821-7CA4FEF45BB8";
width = 625;
}
);
note = Igrave;
unicode = 00CC;
},
{
glyphname = Imacron;
lastChange = "2017-12-01 17:48:57 +0000";
layers = (
{
layerId = "2BF40018-41B3-4590-AC2B-A33F7CBCBD7D";
paths = (
{
closed = 1;
nodes = (
"371 0 LINE",
"371 1462 LINE",
"201 1462 LINE",
"201 0 LINE"
);
},
{
closed = 1;
nodes = (
"587 1579 LINE",
"587 1716 LINE",
"-13 1716 LINE",
"-13 1579 LINE"
);
}
);
width = 571;
},
{
layerId = "BF02A00B-9E13-4540-898E-0A41FC656544";
paths = (
{
closed = 1;
nodes = (
"494 0 LINE",
"494 1462 LINE",
"184 1462 LINE",
"184 0 LINE"
);
},
{
closed = 1;
nodes = (
"681 1579 LINE",
"681 1790 LINE",
"3 1790 LINE",
"3 1579 LINE"
);
}
);
width = 678;
},
{
layerId = "E5E970AF-9D0D-497A-BF30-FBE5F35FA9E4";
paths = (
{
closed = 1;
nodes = (
"309 1462 LINE",
"207 1462 LINE",
"207 0 LINE",
"309 0 LINE"
);
},
{
closed = 1;
nodes = (
"538 1589 LINE",
"538 1671 LINE",
"-17 1671 LINE",
"-17 1589 LINE"
);
}
);
width = 516;
},
{
layerId = "BD2371FC-E5C9-4A02-81E0-967D9F93D406";
paths = (
{
closed = 1;
nodes = (
"555 1462 LINE",
"158 1462 LINE",
"158 0 LINE",
"555 0 LINE"
);
},
{
closed = 1;
nodes = (
"724 1579 LINE",
"724 1815 LINE",
"-3 1815 LINE",
"-3 1579 LINE"
);
}
);
width = 713;
},
{
components = (
{
name = I;
},
{
name = macron;
transform = "{1, 0, 0, 1, -296, 338}";
}
);
layerId = "57AE6E33-18DE-4F33-B821-7CA4FEF45BB8";
width = 625;
}
);
note = Imacron;
unicode = 012A;
},
{
glyphname = Iogonek;
lastChange = "2017-12-01 17:48:57 +0000";
layers = (
{
layerId = "2BF40018-41B3-4590-AC2B-A33F7CBCBD7D";
paths = (
{
closed = 1;
nodes = (
"371 0 LINE",
"371 1462 LINE",
"201 1462 LINE",
"201 0 LINE"
);
},
{
closed = 1;
nodes = (
"333 -446 OFFCURVE",
"375 -440 OFFCURVE",
"418 -428 CURVE",
"418 -319 LINE",
"381 -328 OFFCURVE",
"349 -332 OFFCURVE",
"321 -332 CURVE SMOOTH",
"258 -332 OFFCURVE",
"227 -301 OFFCURVE",
"227 -238 CURVE SMOOTH",
"227 -154 OFFCURVE",
"273 -88 OFFCURVE",
"364 0 CURVE",
"244 0 LINE",
"148 -71 OFFCURVE",
"86 -165 OFFCURVE",
"86 -258 CURVE SMOOTH",
"86 -383 OFFCURVE",
"155 -446 OFFCURVE",
"293 -446 CURVE SMOOTH"
);
}
);
width = 571;
},
{
color = 2;
layerId = "BF02A00B-9E13-4540-898E-0A41FC656544";
paths = (
{
closed = 1;
nodes = (
"494 0 LINE",
"494 1462 LINE",
"184 1462 LINE",
"184 0 LINE"
);
},
{
closed = 1;
nodes = (
"409 -492 OFFCURVE",
"461 -484 OFFCURVE",
"516 -469 CURVE",
"516 -291 LINE",
"476 -303 OFFCURVE",
"438 -309 OFFCURVE",
"401 -309 CURVE SMOOTH",
"354 -309 OFFCURVE",
"321 -283 OFFCURVE",
"321 -227 CURVE SMOOTH",
"321 -158 OFFCURVE",
"376 -88 OFFCURVE",
"469 0 CURVE",
"290 0 LINE",
"151 -103 OFFCURVE",
"110 -173 OFFCURVE",
"110 -262 CURVE SMOOTH",
"110 -399 OFFCURVE",
"209 -492 OFFCURVE",
"360 -492 CURVE SMOOTH"
);
}
);
width = 678;
},
{
layerId = "E5E970AF-9D0D-497A-BF30-FBE5F35FA9E4";
paths = (
{
closed = 1;
nodes = (
"309 1462 LINE",
"207 1462 LINE",
"207 0 LINE",
"309 0 LINE"
);
},
{
closed = 1;
nodes = (
"164 -152 OFFCURVE",
"211 -84 OFFCURVE",
"307 0 CURVE",
"217 0 LINE",
"121 -75 OFFCURVE",
"65 -171 OFFCURVE",
"65 -264 CURVE SMOOTH",
"65 -380 OFFCURVE",
"136 -446 OFFCURVE",
"248 -446 CURVE SMOOTH",
"291 -446 OFFCURVE",
"325 -441 OFFCURVE",
"352 -430 CURVE",
"352 -346 LINE",
"330 -354 OFFCURVE",
"303 -358 OFFCURVE",
"270 -358 CURVE SMOOTH",
"199 -358 OFFCURVE",
"164 -321 OFFCURVE",
"164 -248 CURVE SMOOTH"
);
}
);
width = 516;
},
{
layerId = "BD2371FC-E5C9-4A02-81E0-967D9F93D406";
paths = (
{
closed = 1;
nodes = (
"555 1462 LINE",
"158 1462 LINE",
"158 0 LINE",
"555 0 LINE"
);
},
{
closed = 1;
nodes = (
"342 -173 OFFCURVE",
"351 -146 OFFCURVE",
"369 -117 CURVE SMOOTH",
"387 -88 OFFCURVE",
"422 -49 OFFCURVE",
"475 0 CURVE",
"262 0 LINE",
"137 -88 OFFCURVE",
"88 -168 OFFCURVE",
"88 -260 CURVE SMOOTH",
"88 -397 OFFCURVE",
"201 -492 OFFCURVE",
"364 -492 CURVE SMOOTH",
"425 -492 OFFCURVE",
"483 -483 OFFCURVE",
"538 -465 CURVE",
"538 -244 LINE",
"506 -259 OFFCURVE",
"467 -266 OFFCURVE",
"420 -266 CURVE SMOOTH",
"368 -266 OFFCURVE",
"342 -244 OFFCURVE",
"342 -199 CURVE SMOOTH"
);
}
);
width = 713;
},
{
components = (
{
name = I;
},
{
name = ogonek;
transform = "{1, 0, 0, 1, 53, 0}";
}
);
layerId = "57AE6E33-18DE-4F33-B821-7CA4FEF45BB8";
width = 625;
}
);
note = Iogonek;
unicode = 012E;
},
{
glyphname = Itilde;
lastChange = "2017-12-01 17:48:57 +0000";
layers = (
{
layerId = "2BF40018-41B3-4590-AC2B-A33F7CBCBD7D";
paths = (
{
closed = 1;
nodes = (
"371 0 LINE",
"371 1462 LINE",
"201 1462 LINE",
"201 0 LINE"
);
},
{
closed = 1;
nodes = (
"13 1579 LINE",
"32 1660 OFFCURVE",
"61 1700 OFFCURVE",
"128 1700 CURVE SMOOTH",
"173 1700 OFFCURVE",
"222 1671 OFFCURVE",
"275 1641 CURVE SMOOTH",
"327 1611 OFFCURVE",
"382 1581 OFFCURVE",
"439 1581 CURVE SMOOTH",
"564 1581 OFFCURVE",
"642 1678 OFFCURVE",
"659 1839 CURVE",
"560 1839 LINE",
"540 1756 OFFCURVE",
"513 1718 OFFCURVE",
"448 1718 CURVE SMOOTH",
"405 1718 OFFCURVE",
"357 1748 OFFCURVE",
"305 1778 CURVE SMOOTH",
"253 1808 OFFCURVE",
"195 1837 OFFCURVE",
"134 1837 CURVE SMOOTH",
"13 1837 OFFCURVE",
"-68 1740 OFFCURVE",
"-85 1579 CURVE"
);
}
);
width = 571;
},
{
layerId = "BF02A00B-9E13-4540-898E-0A41FC656544";
paths = (
{
closed = 1;
nodes = (
"494 0 LINE",
"494 1462 LINE",
"184 1462 LINE",
"184 0 LINE"
);
},
{
closed = 1;
nodes = (
"74 1577 LINE",
"91 1649 OFFCURVE",
"134 1684 OFFCURVE",
"175 1684 CURVE SMOOTH",
"223 1684 OFFCURVE",
"272 1658 OFFCURVE",
"324 1632 CURVE SMOOTH",
"375 1606 OFFCURVE",
"427 1579 OFFCURVE",
"482 1579 CURVE SMOOTH",
"637 1579 OFFCURVE",
"739 1695 OFFCURVE",
"754 1888 CURVE",
"605 1888 LINE",
"588 1816 OFFCURVE",
"545 1782 OFFCURVE",
"504 1782 CURVE SMOOTH",
"456 1782 OFFCURVE",
"407 1808 OFFCURVE",
"356 1834 CURVE SMOOTH",
"304 1860 OFFCURVE",
"252 1886 OFFCURVE",
"197 1886 CURVE SMOOTH",
"40 1886 OFFCURVE",
"-60 1770 OFFCURVE",
"-75 1577 CURVE"
);
}
);
width = 678;
},
{
layerId = "E5E970AF-9D0D-497A-BF30-FBE5F35FA9E4";
paths = (
{
closed = 1;
nodes = (
"309 1462 LINE",
"207 1462 LINE",
"207 0 LINE",
"309 0 LINE"
);
},
{
closed = 1;
nodes = (
"524 1581 OFFCURVE",
"599 1664 OFFCURVE",
"620 1819 CURVE",
"544 1819 LINE",
"521 1708 OFFCURVE",
"480 1663 OFFCURVE",
"419 1663 CURVE SMOOTH",
"380 1663 OFFCURVE",
"337 1698 OFFCURVE",
"292 1735 CURVE SMOOTH",
"236 1780 OFFCURVE",
"186 1819 OFFCURVE",
"122 1819 CURVE SMOOTH",
"10 1819 OFFCURVE",
"-65 1729 OFFCURVE",
"-78 1581 CURVE",
"-5 1581 LINE",
"19 1697 OFFCURVE",
"58 1737 OFFCURVE",
"118 1737 CURVE SMOOTH",
"161 1737 OFFCURVE",
"200 1706 OFFCURVE",
"243 1671 CURVE SMOOTH",
"326 1600 OFFCURVE",
"371 1581 OFFCURVE",
"419 1581 CURVE SMOOTH"
);
}
);
width = 516;
},
{
layerId = "BD2371FC-E5C9-4A02-81E0-967D9F93D406";
paths = (
{
closed = 1;
nodes = (
"555 1462 LINE",
"158 1462 LINE",
"158 0 LINE",
"555 0 LINE"
);
},
{
closed = 1;
nodes = (
"678 1577 OFFCURVE",
"764 1696 OFFCURVE",
"779 1919 CURVE",
"597 1919 LINE",
"585 1855 OFFCURVE",
"564 1821 OFFCURVE",
"525 1821 CURVE SMOOTH",
"474 1821 OFFCURVE",
"416 1845 OFFCURVE",
"357 1869 CURVE SMOOTH",
"298 1893 OFFCURVE",
"240 1917 OFFCURVE",
"189 1917 CURVE SMOOTH",
"30 1917 OFFCURVE",
"-48 1808 OFFCURVE",
"-63 1575 CURVE",
"117 1575 LINE",
"129 1640 OFFCURVE",
"153 1673 OFFCURVE",
"189 1673 CURVE SMOOTH",
"238 1673 OFFCURVE",
"294 1649 OFFCURVE",
"353 1625 CURVE SMOOTH",
"412 1601 OFFCURVE",
"473 1577 OFFCURVE",
"533 1577 CURVE SMOOTH"
);
}
);
width = 713;
},
{
components = (
{
name = I;
},
{
name = tilde;
transform = "{1, 0, 0, 1, -314, 338}";
}
);
layerId = "57AE6E33-18DE-4F33-B821-7CA4FEF45BB8";
width = 625;
}
);
note = Itilde;
unicode = 0128;
},
{
glyphname = J;
lastChange = "2017-12-07 15:40:37 +0000";
layers = (
{
layerId = "2BF40018-41B3-4590-AC2B-A33F7CBCBD7D";
paths = (
{
closed = 1;
nodes = (
"228 -385 OFFCURVE",
"360 -239 OFFCURVE",
"360 14 CURVE SMOOTH",
"360 1462 LINE",
"190 1462 LINE",
"190 0 LINE SMOOTH",
"190 -151 OFFCURVE",
"120 -233 OFFCURVE",
"-12 -233 CURVE SMOOTH",
"-63 -233 OFFCURVE",
"-113 -226 OFFCURVE",
"-160 -213 CURVE",
"-160 -358 LINE",
"-124 -376 OFFCURVE",
"-75 -385 OFFCURVE",
"-12 -385 CURVE SMOOTH"
);
}
);
width = 547;
},
{
layerId = "BF02A00B-9E13-4540-898E-0A41FC656544";
paths = (
{
closed = 1;
nodes = (
"336 -430 OFFCURVE",
"494 -247 OFFCURVE",
"494 94 CURVE SMOOTH",
"494 1462 LINE",
"184 1462 LINE",
"184 92 LINE SMOOTH",
"184 -88 OFFCURVE",
"130 -170 OFFCURVE",
"-6 -170 CURVE SMOOTH",
"-50 -170 OFFCURVE",
"-99 -163 OFFCURVE",
"-152 -150 CURVE",
"-152 -408 LINE",
"-100 -423 OFFCURVE",
"-39 -430 OFFCURVE",
"31 -430 CURVE SMOOTH"
);
}
);
width = 678;
},
{
anchors = (
{
name = bottom;
position = "{253, 0}";
},
{
name = top;
position = "{253, 1462}";
}
);
layerId = "E5E970AF-9D0D-497A-BF30-FBE5F35FA9E4";
paths = (
{
closed = 1;
nodes = (
"195 -369 OFFCURVE",
"309 -246 OFFCURVE",
"309 0 CURVE SMOOTH",
"309 1462 LINE",
"207 1462 LINE",
"207 -10 LINE SMOOTH",
"207 -186 OFFCURVE",
"126 -274 OFFCURVE",
"-35 -274 CURVE SMOOTH",
"-82 -274 OFFCURVE",
"-132 -267 OFFCURVE",
"-184 -254 CURVE",
"-184 -342 LINE",
"-145 -360 OFFCURVE",
"-94 -369 OFFCURVE",
"-33 -369 CURVE SMOOTH"
);
}
);
width = 506;
},
{
layerId = "BD2371FC-E5C9-4A02-81E0-967D9F93D406";
paths = (
{
closed = 1;
nodes = (
"390 -459 OFFCURVE",
"563 -253 OFFCURVE",
"563 143 CURVE SMOOTH",
"563 1462 LINE",
"166 1462 LINE",
"166 109 LINE SMOOTH",
"166 -82 OFFCURVE",
"115 -152 OFFCURVE",
"-16 -152 CURVE SMOOTH",
"-44 -152 OFFCURVE",
"-70 -149 OFFCURVE",
"-94 -144 CURVE SMOOTH",
"-118 -139 OFFCURVE",
"-141 -135 OFFCURVE",
"-162 -131 CURVE",
"-162 -438 LINE",
"-97 -452 OFFCURVE",
"-29 -459 OFFCURVE",
"43 -459 CURVE SMOOTH"
);
}
);
width = 721;
},
{
layerId = "57AE6E33-18DE-4F33-B821-7CA4FEF45BB8";
paths = (
{
closed = 1;
nodes = (
"281 -408 OFFCURVE",
"426 -246 OFFCURVE",
"426 53 CURVE SMOOTH",
"426 1462 LINE",
"186 1462 LINE",
"186 45 LINE SMOOTH",
"186 -120 OFFCURVE",
"121 -203 OFFCURVE",
"-10 -203 CURVE SMOOTH",
"-51 -203 OFFCURVE",
"-100 -196 OFFCURVE",
"-156 -182 CURVE",
"-156 -383 LINE",
"-112 -400 OFFCURVE",
"-57 -408 OFFCURVE",
"8 -408 CURVE SMOOTH"
);
}
);
width = 612;
}
);
note = J;
unicode = 004A;
},
{
glyphname = Jcircumflex;
lastChange = "2017-12-01 17:48:57 +0000";
layers = (
{
layerId = "2BF40018-41B3-4590-AC2B-A33F7CBCBD7D";
paths = (
{
closed = 1;
nodes = (
"228 -385 OFFCURVE",
"360 -239 OFFCURVE",
"360 14 CURVE SMOOTH",
"360 1462 LINE",
"190 1462 LINE",
"190 0 LINE SMOOTH",
"190 -151 OFFCURVE",
"120 -233 OFFCURVE",
"-12 -233 CURVE SMOOTH",
"-63 -233 OFFCURVE",
"-113 -226 OFFCURVE",
"-160 -213 CURVE",
"-160 -358 LINE",
"-124 -376 OFFCURVE",
"-75 -385 OFFCURVE",
"-12 -385 CURVE SMOOTH"
);
},
{
closed = 1;
nodes = (
"54 1579 LINE",
"109 1614 OFFCURVE",
"182 1676 OFFCURVE",
"273 1765 CURVE",
"362 1678 OFFCURVE",
"435 1616 OFFCURVE",
"494 1579 CURVE",
"613 1579 LINE",
"613 1602 LINE",
"530 1689 OFFCURVE",
"470 1754 OFFCURVE",
"434 1799 CURVE SMOOTH",
"397 1843 OFFCURVE",
"372 1879 OFFCURVE",
"357 1907 CURVE",
"191 1907 LINE",
"176 1880 OFFCURVE",
"151 1845 OFFCURVE",
"117 1802 CURVE SMOOTH",
"83 1759 OFFCURVE",
"24 1693 OFFCURVE",
"-61 1602 CURVE",
"-61 1579 LINE"
);
}
);
width = 547;
},
{
layerId = "BF02A00B-9E13-4540-898E-0A41FC656544";
paths = (
{
closed = 1;
nodes = (
"336 -430 OFFCURVE",
"494 -247 OFFCURVE",
"494 94 CURVE SMOOTH",
"494 1462 LINE",
"184 1462 LINE",
"184 92 LINE SMOOTH",
"184 -88 OFFCURVE",
"130 -170 OFFCURVE",
"-6 -170 CURVE SMOOTH",
"-50 -170 OFFCURVE",
"-99 -163 OFFCURVE",
"-152 -150 CURVE",
"-152 -408 LINE",
"-100 -423 OFFCURVE",
"-39 -430 OFFCURVE",
"31 -430 CURVE SMOOTH"
);
},
{
closed = 1;
nodes = (
"111 1579 LINE",
"212 1642 OFFCURVE",
"288 1701 OFFCURVE",
"340 1755 CURVE",
"391 1700 OFFCURVE",
"469 1641 OFFCURVE",
"574 1579 CURVE",
"777 1579 LINE",
"777 1606 LINE",
"681 1699 OFFCURVE",
"562 1838 OFFCURVE",
"521 1907 CURVE",
"164 1907 LINE",
"119 1832 OFFCURVE",
"34 1732 OFFCURVE",
"-92 1606 CURVE",
"-92 1579 LINE"
);
}
);
width = 678;
},
{
layerId = "E5E970AF-9D0D-497A-BF30-FBE5F35FA9E4";
paths = (
{
closed = 1;
nodes = (
"195 -369 OFFCURVE",
"309 -246 OFFCURVE",
"309 0 CURVE SMOOTH",
"309 1462 LINE",
"207 1462 LINE",
"207 -10 LINE SMOOTH",
"207 -186 OFFCURVE",
"126 -274 OFFCURVE",
"-35 -274 CURVE SMOOTH",
"-82 -274 OFFCURVE",
"-132 -267 OFFCURVE",
"-184 -254 CURVE",
"-184 -342 LINE",
"-145 -360 OFFCURVE",
"-94 -369 OFFCURVE",
"-33 -369 CURVE SMOOTH"
);
},
{
closed = 1;
nodes = (
"36 1579 LINE",
"111 1641 OFFCURVE",
"185 1710 OFFCURVE",
"257 1786 CURVE",
"323 1715 OFFCURVE",
"397 1646 OFFCURVE",
"478 1579 CURVE",
"548 1579 LINE",
"548 1595 LINE",
"432 1723 OFFCURVE",
"351 1827 OFFCURVE",
"306 1907 CURVE",
"208 1907 LINE",
"153 1818 OFFCURVE",
"49 1684 OFFCURVE",
"-34 1595 CURVE",
"-34 1579 LINE"
);
}
);
width = 506;
},
{
layerId = "BD2371FC-E5C9-4A02-81E0-967D9F93D406";
paths = (
{
closed = 1;
nodes = (
"390 -459 OFFCURVE",
"563 -253 OFFCURVE",
"563 143 CURVE SMOOTH",
"563 1462 LINE",
"166 1462 LINE",
"166 109 LINE SMOOTH",
"166 -82 OFFCURVE",
"115 -152 OFFCURVE",
"-16 -152 CURVE SMOOTH",
"-44 -152 OFFCURVE",
"-70 -149 OFFCURVE",
"-94 -144 CURVE SMOOTH",
"-118 -139 OFFCURVE",
"-141 -135 OFFCURVE",
"-162 -131 CURVE",
"-162 -438 LINE",
"-97 -452 OFFCURVE",
"-29 -459 OFFCURVE",
"43 -459 CURVE SMOOTH"
);
},
{
closed = 1;
nodes = (
"826 1608 LINE",
"718 1716 OFFCURVE",
"633 1816 OFFCURVE",
"570 1907 CURVE",
"177 1907 LINE",
"126 1830 OFFCURVE",
"11 1695 OFFCURVE",
"-81 1608 CURVE",
"-81 1579 LINE",
"177 1579 LINE",
"223 1608 OFFCURVE",
"288 1658 OFFCURVE",
"371 1729 CURVE",
"449 1661 OFFCURVE",
"516 1611 OFFCURVE",
"572 1579 CURVE",
"826 1579 LINE"
);
}
);
width = 721;
},
{
components = (
{
name = J;
},
{
name = circumflex;
transform = "{1, 0, 0, 1, -302, 338}";
}
);
layerId = "57AE6E33-18DE-4F33-B821-7CA4FEF45BB8";
width = 612;
}
);
note = Jcircumflex;
unicode = 0134;
},
{
glyphname = K;
lastChange = "2017-12-07 15:40:37 +0000";
layers = (
{
layerId = "2BF40018-41B3-4590-AC2B-A33F7CBCBD7D";
paths = (
{
closed = 1;
nodes = (
"371 0 LINE",
"371 573 LINE",
"524 709 LINE",
"1057 0 LINE",
"1257 0 LINE",
"647 827 LINE",
"1235 1462 LINE",
"1034 1462 LINE",
"371 737 LINE",
"371 1462 LINE",
"201 1462 LINE",
"201 0 LINE"
);
}
);
width = 1257;
},
{
layerId = "BF02A00B-9E13-4540-898E-0A41FC656544";
paths = (
{
closed = 1;
nodes = (
"494 0 LINE",
"494 522 LINE",
"625 616 LINE",
"1008 0 LINE",
"1360 0 LINE",
"846 815 LINE",
"1356 1462 LINE",
"1012 1462 LINE",
"616 965 LINE",
"494 793 LINE",
"494 1462 LINE",
"184 1462 LINE",
"184 0 LINE"
);
}
);
width = 1360;
},
{
anchors = (
{
name = bottom;
position = "{595, 0}";
},
{
name = top;
position = "{595, 1462}";
}
);
layerId = "E5E970AF-9D0D-497A-BF30-FBE5F35FA9E4";
paths = (
{
closed = 1;
nodes = (
"1174 1462 LINE",
"1044 1462 LINE",
"471 864 LINE",
"309 702 LINE",
"309 1462 LINE",
"207 1462 LINE",
"207 0 LINE",
"309 0 LINE",
"309 600 LINE",
"504 772 LINE",
"1065 0 LINE",
"1190 0 LINE",
"575 844 LINE"
);
}
);
width = 1190;
},
{
layerId = "BD2371FC-E5C9-4A02-81E0-967D9F93D406";
paths = (
{
closed = 1;
nodes = (
"1415 1462 LINE",
"983 1462 LINE",
"676 1014 LINE SMOOTH",
"615 929 OFFCURVE",
"575 866 OFFCURVE",
"555 827 CURVE",
"555 1462 LINE",
"158 1462 LINE",
"158 0 LINE",
"555 0 LINE",
"555 489 LINE",
"672 559 LINE",
"961 0 LINE",
"1407 0 LINE",
"954 807 LINE"
);
}
);
width = 1407;
},
{
layerId = "57AE6E33-18DE-4F33-B821-7CA4FEF45BB8";
paths = (
{
closed = 1;
nodes = (
"856 948 OFFCURVE",
"1039 1162 OFFCURVE",
"1294 1462 CURVE",
"1022 1462 LINE",
"627 995 LINE SMOOTH",
"562 921 OFFCURVE",
"497 844 OFFCURVE",
"432 764 CURVE",
"432 1462 LINE",
"193 1462 LINE",
"193 0 LINE",
"432 0 LINE",
"432 547 LINE",
"573 662 LINE",
"1032 0 LINE",
"1309 0 LINE",
"745 821 LINE"
);
}
);
width = 1309;
}
);
note = K;
unicode = 004B;
},
{
glyphname = Kcommaaccent;
lastChange = "2017-12-01 17:48:57 +0000";
layers = (
{
layerId = "2BF40018-41B3-4590-AC2B-A33F7CBCBD7D";
paths = (
{
closed = 1;
nodes = (
"371 0 LINE",
"371 573 LINE",
"524 709 LINE",
"1057 0 LINE",
"1257 0 LINE",
"647 827 LINE",
"1235 1462 LINE",
"1034 1462 LINE",
"371 737 LINE",
"371 1462 LINE",
"201 1462 LINE",
"201 0 LINE"
);
},
{
closed = 1;
nodes = (
"596 -453 LINE",
"669 -365 OFFCURVE",
"745 -211 OFFCURVE",
"760 -143 CURVE",
"760 -125 LINE",
"592 -125 LINE",
"583 -196 OFFCURVE",
"543 -343 OFFCURVE",
"506 -428 CURVE",
"506 -453 LINE"
);
}
);
width = 1257;
},
{
layerId = "BF02A00B-9E13-4540-898E-0A41FC656544";
paths = (
{
closed = 1;
nodes = (
"494 0 LINE",
"494 522 LINE",
"625 616 LINE",
"1008 0 LINE",
"1360 0 LINE",
"846 815 LINE",
"1356 1462 LINE",
"1012 1462 LINE",
"616 965 LINE",
"494 793 LINE",
"494 1462 LINE",
"184 1462 LINE",
"184 0 LINE"
);
},
{
closed = 1;
nodes = (
"684 -453 LINE",
"745 -360 OFFCURVE",
"800 -257 OFFCURVE",
"850 -145 CURVE",
"850 -125 LINE",
"568 -125 LINE",
"557 -210 OFFCURVE",
"526 -361 OFFCURVE",
"506 -426 CURVE",
"506 -453 LINE"
);
}
);
width = 1360;
},
{
layerId = "E5E970AF-9D0D-497A-BF30-FBE5F35FA9E4";
paths = (
{
closed = 1;
nodes = (
"1174 1462 LINE",
"1044 1462 LINE",
"471 864 LINE",
"309 702 LINE",
"309 1462 LINE",
"207 1462 LINE",
"207 0 LINE",
"309 0 LINE",
"309 600 LINE",
"504 772 LINE",
"1065 0 LINE",
"1190 0 LINE",
"575 844 LINE"
);
},
{
closed = 1;
nodes = (
"578 -453 LINE",
"633 -372 OFFCURVE",
"692 -248 OFFCURVE",
"723 -139 CURVE",
"723 -125 LINE",
"610 -125 LINE",
"595 -225 OFFCURVE",
"557 -364 OFFCURVE",
"524 -436 CURVE",
"524 -453 LINE"
);
}
);
width = 1190;
},
{
layerId = "BD2371FC-E5C9-4A02-81E0-967D9F93D406";
paths = (
{
closed = 1;
nodes = (
"1415 1462 LINE",
"983 1462 LINE",
"676 1014 LINE SMOOTH",
"615 929 OFFCURVE",
"575 866 OFFCURVE",
"555 827 CURVE",
"555 1462 LINE",
"158 1462 LINE",
"158 0 LINE",
"555 0 LINE",
"555 489 LINE",
"672 559 LINE",
"961 0 LINE",
"1407 0 LINE",
"954 807 LINE"
);
},
{
closed = 1;
nodes = (
"723 -453 LINE",
"788 -359 OFFCURVE",
"844 -257 OFFCURVE",
"891 -147 CURVE",
"891 -125 LINE",
"536 -125 LINE",
"533 -209 OFFCURVE",
"510 -349 OFFCURVE",
"489 -424 CURVE",
"489 -453 LINE"
);
}
);
width = 1407;
},
{
components = (
{
name = K;
},
{
name = commaaccent;
transform = "{1, 0, 0, 1, 145, 0}";
}
);
layerId = "57AE6E33-18DE-4F33-B821-7CA4FEF45BB8";
width = 1309;
}
);
note = Kcommaaccent;
unicode = 0136;
},
{
glyphname = L;
lastChange = "2017-12-07 15:40:37 +0000";
layers = (
{
layerId = "2BF40018-41B3-4590-AC2B-A33F7CBCBD7D";
paths = (
{
closed = 1;
nodes = (
"1016 0 LINE",
"1016 154 LINE",
"371 154 LINE",
"371 1462 LINE",
"201 1462 LINE",
"201 0 LINE"
);
}
);
width = 1063;
},
{
layerId = "BF02A00B-9E13-4540-898E-0A41FC656544";
paths = (
{
closed = 1;
nodes = (
"1087 0 LINE",
"1087 256 LINE",
"494 256 LINE",
"494 1462 LINE",
"184 1462 LINE",
"184 0 LINE"
);
}
);
width = 1157;
},
{
anchors = (
{
name = bottom;
position = "{526, 0}";
},
{
name = center;
position = "{526, 731}";
},
{
name = top;
position = "{526, 1462}";
},
{
name = topright;
position = "{1031, 1462}";
}
);
layerId = "E5E970AF-9D0D-497A-BF30-FBE5F35FA9E4";
paths = (
{
closed = 1;
nodes = (
"1006 96 LINE",
"309 96 LINE",
"309 1462 LINE",
"207 1462 LINE",
"207 0 LINE",
"1006 0 LINE"
);
}
);
width = 1051;
},
{
layerId = "BD2371FC-E5C9-4A02-81E0-967D9F93D406";
paths = (
{
closed = 1;
nodes = (
"1116 319 LINE",
"553 319 LINE",
"553 1462 LINE",
"158 1462 LINE",
"158 0 LINE",
"1116 0 LINE"
);
}
);
width = 1192;
},
{
layerId = "57AE6E33-18DE-4F33-B821-7CA4FEF45BB8";
paths = (
{
closed = 1;
nodes = (
"1051 205 LINE",
"432 205 LINE",
"432 1462 LINE",
"193 1462 LINE",
"193 0 LINE",
"1051 0 LINE"
);
}
);
width = 1110;
}
);
note = L;
unicode = 004C;
},
{
glyphname = Lacute;
lastChange = "2017-12-01 17:48:57 +0000";
layers = (
{
layerId = "2BF40018-41B3-4590-AC2B-A33F7CBCBD7D";
paths = (
{
closed = 1;
nodes = (
"1016 0 LINE",
"1016 154 LINE",
"371 154 LINE",
"371 1462 LINE",
"201 1462 LINE",
"201 0 LINE"
);
},
{
closed = 1;
nodes = (
"347 1579 LINE",
"432 1648 OFFCURVE",
"570 1799 OFFCURVE",
"629 1886 CURVE",
"629 1907 LINE",
"427 1907 LINE",
"384 1820 OFFCURVE",
"300 1687 OFFCURVE",
"236 1604 CURVE",
"236 1579 LINE"
);
}
);
width = 1063;
},
{
layerId = "BF02A00B-9E13-4540-898E-0A41FC656544";
paths = (
{
closed = 1;
nodes = (
"1087 0 LINE",
"1087 256 LINE",
"494 256 LINE",
"494 1462 LINE",
"184 1462 LINE",
"184 0 LINE"
);
},
{
closed = 1;
nodes = (
"470 1579 LINE",
"565 1646 OFFCURVE",
"775 1817 OFFCURVE",
"844 1886 CURVE",
"844 1907 LINE",
"502 1907 LINE",
"460 1840 OFFCURVE",
"382 1739 OFFCURVE",
"267 1606 CURVE",
"267 1579 LINE"
);
}
);
width = 1157;
},
{
layerId = "E5E970AF-9D0D-497A-BF30-FBE5F35FA9E4";
paths = (
{
closed = 1;
nodes = (
"1006 96 LINE",
"309 96 LINE",
"309 1462 LINE",
"207 1462 LINE",
"207 0 LINE",
"1006 0 LINE"
);
},
{
closed = 1;
nodes = (
"296 1579 LINE",
"435 1695 OFFCURVE",
"561 1821 OFFCURVE",
"609 1890 CURVE",
"609 1907 LINE",
"468 1907 LINE",
"433 1843 OFFCURVE",
"323 1700 OFFCURVE",
"226 1595 CURVE",
"226 1579 LINE"
);
}
);
width = 1051;
},
{
layerId = "BD2371FC-E5C9-4A02-81E0-967D9F93D406";
paths = (
{
closed = 1;
nodes = (
"1116 319 LINE",
"553 319 LINE",
"553 1462 LINE",
"158 1462 LINE",
"158 0 LINE",
"1116 0 LINE"
);
},
{
closed = 1;
nodes = (
"624 1639 OFFCURVE",
"853 1801 OFFCURVE",
"960 1886 CURVE",
"960 1907 LINE",
"532 1907 LINE",
"514 1882 OFFCURVE",
"491 1853 OFFCURVE",
"464 1821 CURVE SMOOTH",
"436 1789 OFFCURVE",
"371 1718 OFFCURVE",
"268 1608 CURVE",
"268 1579 LINE",
"528 1579 LINE"
);
}
);
width = 1192;
},
{
components = (
{
name = L;
},
{
name = acute;
transform = "{1, 0, 0, 1, -110, 338}";
}
);
layerId = "57AE6E33-18DE-4F33-B821-7CA4FEF45BB8";
width = 1110;
}
);
note = Lacute;
unicode = 0139;
},
{
glyphname = Lcaron;
lastChange = "2017-12-01 17:48:57 +0000";
layers = (
{
layerId = "2BF40018-41B3-4590-AC2B-A33F7CBCBD7D";
paths = (
{
closed = 1;
nodes = (
"1016 0 LINE",
"1016 154 LINE",
"371 154 LINE",
"371 1462 LINE",
"201 1462 LINE",
"201 0 LINE"
);
},
{
closed = 1;
nodes = (
"768 1136 LINE",
"831 1229 OFFCURVE",
"899 1377 OFFCURVE",
"914 1445 CURVE",
"914 1463 LINE",
"746 1463 LINE",
"733 1355 OFFCURVE",
"703 1233 OFFCURVE",
"678 1160 CURVE",
"678 1136 LINE"
);
}
);
width = 1063;
},
{
layerId = "BF02A00B-9E13-4540-898E-0A41FC656544";
paths = (
{
closed = 1;
nodes = (
"1087 0 LINE",
"1087 256 LINE",
"494 256 LINE",
"494 1462 LINE",
"184 1462 LINE",
"184 0 LINE"
);
},
{
closed = 1;
nodes = (
"901 1136 LINE",
"958 1223 OFFCURVE",
"1014 1326 OFFCURVE",
"1067 1443 CURVE",
"1067 1463 LINE",
"785 1463 LINE",
"774 1378 OFFCURVE",
"743 1227 OFFCURVE",
"723 1162 CURVE",
"723 1136 LINE"
);
}
);
width = 1157;
},
{
layerId = "E5E970AF-9D0D-497A-BF30-FBE5F35FA9E4";
paths = (
{
closed = 1;
nodes = (
"1006 96 LINE",
"309 96 LINE",
"309 1462 LINE",
"207 1462 LINE",
"207 0 LINE",
"1006 0 LINE"
);
},
{
closed = 1;
nodes = (
"729 1136 LINE",
"800 1241 OFFCURVE",
"854 1369 OFFCURVE",
"874 1449 CURVE",
"874 1463 LINE",
"762 1463 LINE",
"747 1360 OFFCURVE",
"704 1212 OFFCURVE",
"676 1152 CURVE",
"676 1136 LINE"
);
}
);
width = 1051;
},
{
layerId = "BD2371FC-E5C9-4A02-81E0-967D9F93D406";
paths = (
{
closed = 1;
nodes = (
"1116 319 LINE",
"553 319 LINE",
"553 1462 LINE",
"158 1462 LINE",
"158 0 LINE",
"1116 0 LINE"
);
},
{
closed = 1;
nodes = (
"962 1136 LINE",
"985 1173 OFFCURVE",
"1045 1275 OFFCURVE",
"1141 1441 CURVE",
"1141 1463 LINE",
"786 1463 LINE",
"777 1387 OFFCURVE",
"758 1287 OFFCURVE",
"729 1164 CURVE",
"729 1136 LINE"
);
}
);
width = 1192;
},
{
components = (
{
name = L;
},
{
name = caroncommaaccent;
transform = "{1, 0, 0, 1, 328, -93}";
}
);
layerId = "57AE6E33-18DE-4F33-B821-7CA4FEF45BB8";
width = 1110;
}
);
note = Lcaron;
unicode = 013D;
},
{
glyphname = Lcommaaccent;
lastChange = "2017-12-01 17:48:57 +0000";
layers = (
{
layerId = "2BF40018-41B3-4590-AC2B-A33F7CBCBD7D";
paths = (
{
closed = 1;
nodes = (
"1016 0 LINE",
"1016 154 LINE",
"371 154 LINE",
"371 1462 LINE",
"201 1462 LINE",
"201 0 LINE"
);
},
{
closed = 1;
nodes = (
"508 -453 LINE",
"581 -365 OFFCURVE",
"657 -211 OFFCURVE",
"672 -143 CURVE",
"672 -125 LINE",
"504 -125 LINE",
"495 -196 OFFCURVE",
"455 -343 OFFCURVE",
"418 -428 CURVE",
"418 -453 LINE"
);
}
);
width = 1063;
},
{
layerId = "BF02A00B-9E13-4540-898E-0A41FC656544";
paths = (
{
closed = 1;
nodes = (
"1087 0 LINE",
"1087 256 LINE",
"494 256 LINE",
"494 1462 LINE",
"184 1462 LINE",
"184 0 LINE"
);
},
{
closed = 1;
nodes = (
"602 -453 LINE",
"663 -360 OFFCURVE",
"718 -257 OFFCURVE",
"768 -145 CURVE",
"768 -125 LINE",
"486 -125 LINE",
"475 -210 OFFCURVE",
"444 -361 OFFCURVE",
"424 -426 CURVE",
"424 -453 LINE"
);
}
);
width = 1157;
},
{
layerId = "E5E970AF-9D0D-497A-BF30-FBE5F35FA9E4";
paths = (
{
closed = 1;
nodes = (
"1006 96 LINE",
"309 96 LINE",
"309 1462 LINE",
"207 1462 LINE",
"207 0 LINE",
"1006 0 LINE"
);
},
{
closed = 1;
nodes = (
"515 -453 LINE",
"570 -372 OFFCURVE",
"629 -248 OFFCURVE",
"660 -139 CURVE",
"660 -125 LINE",
"547 -125 LINE",
"532 -225 OFFCURVE",
"494 -364 OFFCURVE",
"461 -436 CURVE",
"461 -453 LINE"
);
}
);
width = 1051;
},
{
layerId = "BD2371FC-E5C9-4A02-81E0-967D9F93D406";
paths = (
{
closed = 1;
nodes = (
"1116 319 LINE",
"553 319 LINE",
"553 1462 LINE",
"158 1462 LINE",
"158 0 LINE",
"1116 0 LINE"
);
},
{
closed = 1;
nodes = (
"643 -453 LINE",
"708 -359 OFFCURVE",
"764 -257 OFFCURVE",
"811 -147 CURVE",
"811 -125 LINE",
"456 -125 LINE",
"453 -209 OFFCURVE",
"430 -349 OFFCURVE",
"409 -424 CURVE",
"409 -453 LINE"
);
}
);
width = 1192;
},
{
components = (
{
name = L;
},
{
name = commaaccent;
transform = "{1, 0, 0, 1, 61, 0}";
}
);
layerId = "57AE6E33-18DE-4F33-B821-7CA4FEF45BB8";
width = 1110;
}
);
note = Lcommaaccent;
unicode = 013B;
},
{
glyphname = Ldot;
lastChange = "2017-12-01 17:48:57 +0000";
layers = (
{
layerId = "2BF40018-41B3-4590-AC2B-A33F7CBCBD7D";
paths = (
{
closed = 1;
nodes = (
"1016 0 LINE",
"1016 154 LINE",
"371 154 LINE",
"371 1462 LINE",
"201 1462 LINE",
"201 0 LINE"
);
},
{
closed = 1;
nodes = (
"829 617 OFFCURVE",
"874 653 OFFCURVE",
"874 728 CURVE SMOOTH",
"874 803 OFFCURVE",
"829 838 OFFCURVE",
"776 838 CURVE SMOOTH",
"720 838 OFFCURVE",
"678 804 OFFCURVE",
"678 728 CURVE SMOOTH",
"678 653 OFFCURVE",
"720 617 OFFCURVE",
"776 617 CURVE SMOOTH"
);
}
);
width = 1063;
},
{
layerId = "BF02A00B-9E13-4540-898E-0A41FC656544";
paths = (
{
closed = 1;
nodes = (
"1087 0 LINE",
"1087 256 LINE",
"494 256 LINE",
"494 1462 LINE",
"184 1462 LINE",
"184 0 LINE"
);
},
{
closed = 1;
nodes = (
"983 601 OFFCURVE",
"1038 656 OFFCURVE",
"1038 751 CURVE SMOOTH",
"1038 850 OFFCURVE",
"983 900 OFFCURVE",
"872 900 CURVE SMOOTH",
"761 900 OFFCURVE",
"706 850 OFFCURVE",
"706 751 CURVE SMOOTH",
"706 651 OFFCURVE",
"761 601 OFFCURVE",
"872 601 CURVE SMOOTH"
);
}
);
width = 1157;
},
{
layerId = "E5E970AF-9D0D-497A-BF30-FBE5F35FA9E4";
paths = (
{
closed = 1;
nodes = (
"1006 96 LINE",
"309 96 LINE",
"309 1462 LINE",
"207 1462 LINE",
"207 0 LINE",
"1006 0 LINE"
);
},
{
closed = 1;
nodes = (
"692 663 OFFCURVE",
"713 631 OFFCURVE",
"756 631 CURVE SMOOTH",
"797 631 OFFCURVE",
"821 668 OFFCURVE",
"821 728 CURVE SMOOTH",
"821 789 OFFCURVE",
"797 824 OFFCURVE",
"756 824 CURVE SMOOTH",
"713 824 OFFCURVE",
"692 792 OFFCURVE",
"692 728 CURVE SMOOTH"
);
}
);
width = 1051;
},
{
layerId = "BD2371FC-E5C9-4A02-81E0-967D9F93D406";
paths = (
{
closed = 1;
nodes = (
"1116 319 LINE",
"553 319 LINE",
"553 1462 LINE",
"158 1462 LINE",
"158 0 LINE",
"1116 0 LINE"
);
},
{
closed = 1;
nodes = (
"735 648 OFFCURVE",
"804 591 OFFCURVE",
"942 591 CURVE SMOOTH",
"1081 591 OFFCURVE",
"1151 648 OFFCURVE",
"1151 763 CURVE SMOOTH",
"1151 878 OFFCURVE",
"1087 937 OFFCURVE",
"942 937 CURVE SMOOTH",
"797 937 OFFCURVE",
"735 880 OFFCURVE",
"735 763 CURVE SMOOTH"
);
}
);
width = 1192;
},
{
components = (
{
name = L;
},
{
name = dotaccent;
transform = "{1, 0, 0, 1, 537, -661}";
}
);
layerId = "57AE6E33-18DE-4F33-B821-7CA4FEF45BB8";
width = 1110;
}
);
note = Ldot;
unicode = 013F;
},
{
glyphname = Lslash;
lastChange = "2017-12-01 17:48:57 +0000";
layers = (
{
layerId = "2BF40018-41B3-4590-AC2B-A33F7CBCBD7D";
paths = (
{
closed = 1;
nodes = (
"1016 0 LINE",
"1016 154 LINE",
"371 154 LINE",
"371 606 LINE",
"735 817 LINE",
"668 938 LINE",
"371 764 LINE",
"371 1462 LINE",
"201 1462 LINE",
"201 664 LINE",
"29 563 LINE",
"96 449 LINE",
"201 508 LINE",
"201 0 LINE"
);
}
);
width = 1071;
},
{
layerId = "BF02A00B-9E13-4540-898E-0A41FC656544";
paths = (
{
closed = 1;
nodes = (
"1087 0 LINE",
"1087 256 LINE",
"494 256 LINE",
"494 680 LINE",
"754 838 LINE",
"637 1034 LINE",
"494 946 LINE",
"494 1462 LINE",
"184 1462 LINE",
"184 758 LINE",
"2 647 LINE",
"115 451 LINE",
"184 492 LINE",
"184 0 LINE"
);
}
);
width = 1157;
},
{
layerId = "E5E970AF-9D0D-497A-BF30-FBE5F35FA9E4";
paths = (
{
closed = 1;
nodes = (
"1006 96 LINE",
"309 96 LINE",
"309 614 LINE",
"680 844 LINE",
"633 920 LINE",
"309 715 LINE",
"309 1462 LINE",
"207 1462 LINE",
"207 651 LINE",
"29 539 LINE",
"70 465 LINE",
"207 551 LINE",
"207 0 LINE",
"1006 0 LINE"
);
}
);
width = 1051;
},
{
layerId = "BD2371FC-E5C9-4A02-81E0-967D9F93D406";
paths = (
{
closed = 1;
nodes = (
"1171 319 LINE",
"608 319 LINE",
"608 725 LINE",
"967 948 LINE",
"819 1192 LINE",
"608 1061 LINE",
"608 1462 LINE",
"213 1462 LINE",
"213 817 LINE",
"-31 672 LINE",
"111 424 LINE",
"213 481 LINE",
"213 0 LINE",
"1171 0 LINE"
);
}
);
width = 1247;
},
{
layerId = "57AE6E33-18DE-4F33-B821-7CA4FEF45BB8";
paths = (
{
closed = 1;
nodes = (
"1051 205 LINE",
"432 205 LINE",
"432 643 LINE",
"743 827 LINE",
"651 985 LINE",
"432 854 LINE",
"432 1462 LINE",
"193 1462 LINE",
"193 711 LINE",
"14 604 LINE",
"104 449 LINE",
"193 500 LINE",
"193 0 LINE",
"1051 0 LINE"
);
}
);
width = 1114;
}
);
note = Lslash;
unicode = 0141;
},
